<svg width="171" height="171" viewBox="0 0 171 171" fill="none" xmlns="http://www.w3.org/2000/svg">
<path d="M65.3849 24.8L42.9549 37.75C39.1444 39.95 37.8633 44.7311 40.0633 48.5416L53.0133 70.9717C55.2133 74.7822 59.9944 76.0633 63.8049 73.8633L86.2349 60.9133C90.0454 58.7133 91.3265 53.9322 89.1265 50.1217L76.1765 27.6917C73.9765 23.8811 69.1088 22.65 65.3849 24.8Z" fill="#2F55FF"/>
<path d="M105.455 146.003L127.885 133.053C131.696 130.853 132.977 126.072 130.777 122.262L117.827 99.8316C115.627 96.0211 110.846 94.74 107.035 96.94L84.605 109.89C80.7945 112.09 79.5134 116.871 81.7134 120.682L94.6634 143.112C96.8134 146.836 101.731 148.153 105.455 146.003Z" fill="#2F55FF"/>
<path d="M96.9766 63.7183L109.927 86.1484C112.127 89.9589 116.908 91.24 120.718 89.04L143.148 76.09C146.959 73.89 148.24 69.1089 146.04 65.2983L133.09 42.8683C130.89 39.0578 126.109 37.7767 122.298 39.9767L99.8682 52.9267C96.0577 55.1267 94.8266 59.9944 96.9766 63.7183Z" fill="#2F55FF"/>
<path d="M24.75 105.418L37.7001 127.848C39.9001 131.659 44.6812 132.94 48.4917 130.74L70.9218 117.79C74.7323 115.59 76.0134 110.809 73.8134 106.998L60.8634 84.5683C58.6634 80.7578 53.8823 79.4767 50.0717 81.6767L27.6417 94.6267C23.9178 96.7767 22.6 101.694 24.75 105.418Z" fill="#2F55FF"/>
</svg>
