<svg width="48" height="48" viewBox="0 0 48 48" fill="none" xmlns="http://www.w3.org/2000/svg">
<g clip-path="url(#clip0_72_219)">
<path d="M17.2206 3.82992C17.343 3.82925 17.4654 3.82858 17.5915 3.82789C17.7256 3.82762 17.8597 3.82737 17.9938 3.82713C18.1364 3.82654 18.2789 3.82592 18.4214 3.82526C18.8884 3.82329 19.3554 3.82232 19.8223 3.82138C19.9841 3.821 20.1458 3.82062 20.3076 3.82022C21.0688 3.81844 21.83 3.8171 22.5912 3.81632C23.4644 3.81541 24.3375 3.81295 25.2106 3.80915C25.8888 3.8063 26.5669 3.80493 27.2451 3.80462C27.6485 3.80441 28.0518 3.8036 28.4552 3.80121C33.6528 3.77203 37.9588 5.2437 41.7188 8.90622C41.9547 9.14492 42.1673 9.39272 42.3751 9.65622C42.4155 9.70742 42.4559 9.75861 42.4976 9.81136C44.8731 12.8403 46.2665 16.3706 46.2371 20.2522C46.2368 20.3911 46.2365 20.5301 46.2363 20.669C46.2356 21.03 46.2338 21.3909 46.2317 21.7518C46.2298 22.1221 46.2289 22.4923 46.228 22.8625C46.226 23.5854 46.2228 24.3083 46.2188 25.0312C46.3058 25.0435 46.3928 25.0559 46.4825 25.0686C47.1187 25.1887 47.5427 25.6457 47.9063 26.1562C48.0098 26.4667 48.0126 26.698 48.0139 27.025C48.0149 27.2097 48.0149 27.2097 48.0159 27.3982C48.0162 27.535 48.0164 27.6718 48.0167 27.8086C48.0172 27.9525 48.0179 28.0963 48.0185 28.2401C48.0205 28.7129 48.0215 29.1856 48.0224 29.6583C48.0228 29.8211 48.0232 29.9839 48.0236 30.1468C48.0254 30.9118 48.0267 31.6769 48.0275 32.4419C48.0284 33.3246 48.0308 34.2072 48.0346 35.0898C48.0375 35.7723 48.0389 36.4548 48.0392 37.1373C48.0394 37.5447 48.0402 37.9522 48.0426 38.3597C48.0448 38.7433 48.0452 39.1268 48.0442 39.5104C48.0442 39.6509 48.0447 39.7913 48.046 39.9317C48.0533 40.7699 48.0437 41.4418 47.454 42.0959C46.8885 42.5062 46.4011 42.6509 45.7025 42.661C45.0817 42.6392 45.0817 42.6392 44.557 42.9027C44.4464 43.0947 44.4464 43.0947 44.3566 43.2993C44.1551 43.6788 43.7469 43.9823 43.3379 44.1151C43.0674 44.1674 42.8115 44.1687 42.5359 44.1694C42.4147 44.1699 42.2936 44.1705 42.1687 44.171C42.0346 44.1711 41.9005 44.1712 41.7664 44.1713C41.625 44.1718 41.4836 44.1722 41.3422 44.1727C40.9581 44.174 40.574 44.1746 40.1898 44.175C39.9495 44.1753 39.7091 44.1756 39.4688 44.1761C38.7158 44.1773 37.9629 44.1783 37.2099 44.1786C36.3426 44.179 35.4754 44.1807 34.6081 44.1834C33.9367 44.1854 33.2652 44.1864 32.5938 44.1865C32.1933 44.1866 31.7929 44.1871 31.3924 44.1888C31.0151 44.1904 30.6377 44.1906 30.2603 44.1897C30.1226 44.1897 29.9849 44.1901 29.8472 44.191C28.2899 44.2009 27.2245 43.8854 26.0098 42.9258C25.1263 42.2348 24.4787 42.0794 23.3438 42.1875C22.6272 42.3278 22.1237 42.7684 21.5731 43.2177C20.4871 44.0968 19.3477 44.1846 17.987 44.182C17.8448 44.1824 17.7026 44.1829 17.5604 44.1834C17.1763 44.1847 16.7922 44.1847 16.4081 44.1845C16.0868 44.1844 15.7655 44.1849 15.4442 44.1853C14.6863 44.1863 13.9283 44.1864 13.1703 44.1858C12.3893 44.1852 11.6084 44.1864 10.8274 44.1884C10.1556 44.1901 9.48372 44.1906 8.81188 44.1903C8.41118 44.1901 8.01049 44.1904 7.60979 44.1917C7.23319 44.1929 6.85661 44.1927 6.48001 44.1915C6.3421 44.1912 6.2042 44.1915 6.0663 44.1923C5.20971 44.1967 4.54017 44.1929 3.86725 43.6113C3.81553 43.5682 3.76381 43.525 3.71052 43.4806C3.56257 43.3125 3.56257 43.3125 3.45966 43.0191C3.3149 42.7387 3.3149 42.7387 3.0956 42.6932C2.8541 42.6654 2.6161 42.6519 2.37311 42.6445C1.62993 42.6149 1.01278 42.5399 0.463323 41.9967C0.420664 41.934 0.378004 41.8712 0.334051 41.8066C0.289699 41.7436 0.245347 41.6807 0.199652 41.6158C-0.00944338 41.2635 -0.0120598 40.9685 -0.0130998 40.5674C-0.0136351 40.444 -0.0141704 40.3206 -0.014722 40.1934C-0.0148387 40.0563 -0.0149442 39.9192 -0.0150395 39.7821C-0.0154735 39.6379 -0.0159445 39.4938 -0.01645 39.3497C-0.0176804 38.9578 -0.0182852 38.5659 -0.0187017 38.1741C-0.0189764 37.9293 -0.0193599 37.6845 -0.0197788 37.4396C-0.0210609 36.6737 -0.0219675 35.9077 -0.0223294 35.1417C-0.0227495 34.2575 -0.0243956 33.3733 -0.0271116 32.4891C-0.0291382 31.8057 -0.0300834 31.1222 -0.0302087 30.4388C-0.0303069 30.0306 -0.0308615 29.6224 -0.0325361 29.2142C-0.0340811 28.8301 -0.034283 28.4461 -0.0334602 28.062C-0.033388 27.9212 -0.0337952 27.7804 -0.034722 27.6396C-0.0359148 27.447 -0.035363 27.2546 -0.0343858 27.062C-0.0345233 26.9543 -0.0346604 26.8467 -0.0348021 26.7358C0.0397482 26.098 0.372028 25.75 0.844183 25.3575C1.15838 25.1245 1.39214 25.0312 1.78132 25.0312C1.78069 24.9567 1.78007 24.8822 1.77942 24.8054C1.77373 24.0941 1.76948 23.3828 1.76674 22.6714C1.76529 22.306 1.76333 21.9405 1.7601 21.5751C1.74338 19.6311 1.74941 17.7405 2.32624 15.8613C2.35062 15.7796 2.375 15.6979 2.40012 15.6138C2.96255 13.7708 3.80902 12.0414 4.96882 10.5C5.02815 10.4208 5.08749 10.3417 5.14863 10.2601C5.5056 9.80008 5.88904 9.36541 6.28132 8.93552C6.32577 8.88651 6.37022 8.83751 6.41601 8.78702C7.67742 7.42518 9.22926 6.36828 10.8751 5.53122C10.9767 5.47853 11.0783 5.42584 11.1831 5.37155C13.0003 4.4805 15.1852 3.83763 17.2206 3.82992ZM7.22468 10.122C7.05787 10.3049 6.90361 10.4933 6.75007 10.6875C6.71013 10.7372 6.67019 10.7869 6.62903 10.8381C4.46096 13.5533 3.23588 16.8079 3.26301 20.2957C3.26336 20.4306 3.26362 20.5655 3.26381 20.7004C3.26452 21.051 3.26635 21.4016 3.26844 21.7522C3.27038 22.1118 3.27122 22.4713 3.27216 22.8308C3.27416 23.5331 3.27735 24.2353 3.28132 24.9375C3.37813 24.7922 3.47468 24.6468 3.5666 24.4984C3.99585 23.8406 4.49667 23.6434 5.25007 23.4375C5.25062 23.3846 5.25117 23.3318 5.25173 23.2774C5.25781 22.719 5.26574 22.1607 5.27467 21.6024C5.27776 21.3951 5.28039 21.1877 5.28255 20.9803C5.3182 17.6311 6.16368 14.1183 8.59714 11.6507C8.67441 11.5758 8.67441 11.5758 8.75324 11.4994C9.02205 11.2862 9.02205 11.2862 9.00007 11.0625C9.0536 11.0393 9.10714 11.0161 9.1623 10.9922C9.40837 10.8566 9.57743 10.6953 9.77936 10.5C12.6075 7.92027 16.1368 7.34395 19.825 7.35585C20.2188 7.35681 20.6125 7.35591 21.0063 7.35533C21.6669 7.35465 22.3275 7.35553 22.9881 7.35733C23.7467 7.35937 24.5052 7.35871 25.2638 7.35665C25.9207 7.35493 26.5776 7.35471 27.2345 7.35569C27.6244 7.35626 28.0142 7.35637 28.4041 7.35511C32.1283 7.34475 35.719 8.04303 38.4995 10.745C38.5409 10.7879 38.5824 10.8308 38.6251 10.875C38.6869 10.9368 38.7488 10.9987 38.8126 11.0625C38.8744 11.0625 38.9363 11.0625 39.0001 11.0625C39.0349 11.1428 39.0349 11.1428 39.0704 11.2247C39.2059 11.4708 39.3673 11.6398 39.5626 11.8418C41.5555 14.0327 42.6375 17.0471 42.686 19.9859C42.6879 20.0849 42.6899 20.1838 42.6919 20.2858C42.698 20.6 42.7035 20.9143 42.7091 21.2285C42.7131 21.4423 42.7172 21.6561 42.7213 21.8699C42.7313 22.3924 42.7409 22.9149 42.7501 23.4375C42.8213 23.4626 42.8926 23.4878 42.966 23.5137C43.0592 23.5471 43.1524 23.5804 43.2485 23.6147C43.341 23.6476 43.4335 23.6805 43.5288 23.7144C44.0977 23.9354 44.3132 24.253 44.5595 24.7866C44.5811 24.8364 44.6028 24.8862 44.6251 24.9375C44.656 24.9375 44.6869 24.9375 44.7188 24.9375C44.7276 24.1786 44.7342 23.4197 44.7382 22.6608C44.7402 22.3081 44.7428 21.9555 44.7471 21.6028C44.7732 19.4124 44.64 17.3586 43.8751 15.2812C43.8397 15.1851 43.8397 15.1851 43.8037 15.087C42.3354 11.1694 39.3467 8.17897 35.5606 6.45114C32.7953 5.31728 30.0034 5.23482 27.0587 5.23752C26.8129 5.23746 26.5671 5.23736 26.3213 5.23725C25.8089 5.23708 25.2964 5.2373 24.7839 5.23775C24.1963 5.23826 23.6087 5.23809 23.0211 5.23758C22.4496 5.2371 21.8781 5.23715 21.3065 5.23743C21.0661 5.23749 20.8257 5.23741 20.5854 5.23719C15.3754 5.23346 10.9758 6.31039 7.22468 10.122ZM17.2384 8.801C17.1578 8.80813 17.0772 8.81525 16.9942 8.8226C13.8437 9.13974 11.0668 10.8736 9.07221 13.2839C8.91139 13.5069 8.76615 13.7327 8.62507 13.9687C8.56392 14.0687 8.50277 14.1686 8.43976 14.2716C7.75737 15.4104 7.23561 16.6084 6.93757 17.9062C6.92157 17.9724 6.90558 18.0385 6.8891 18.1066C6.67321 19.1599 6.72987 20.235 6.73835 21.3047C6.73929 21.5118 6.74015 21.719 6.74091 21.9261C6.74296 22.4299 6.74609 22.9337 6.75007 23.4375C6.80623 23.4376 6.86239 23.4377 6.92025 23.4377C10.2474 23.4432 13.5746 23.4501 16.9017 23.4589C17.3011 23.46 17.7004 23.461 18.0997 23.4621C18.1792 23.4623 18.2587 23.4625 18.3407 23.4627C19.6286 23.466 20.9165 23.4683 22.2045 23.4703C23.5256 23.4724 24.8468 23.4755 26.168 23.4795C26.9834 23.482 27.7989 23.4837 28.6144 23.4843C29.1733 23.4848 29.7322 23.4863 30.2911 23.4886C30.6138 23.4899 30.9364 23.4908 31.2591 23.4904C31.6087 23.4903 31.9583 23.4918 32.3079 23.4938C32.4101 23.4934 32.5124 23.4929 32.6177 23.4925C33.4891 23.5007 33.4891 23.5007 33.8438 23.8125C33.9576 24.1008 33.9493 24.2416 33.8614 24.539C33.7501 24.75 33.7501 24.75 33.5626 24.8437C33.4081 24.8527 33.2533 24.8558 33.0986 24.8559C32.9999 24.8563 32.9012 24.8566 32.7995 24.857C32.6902 24.8569 32.5809 24.8568 32.4683 24.8567C32.2952 24.8571 32.2952 24.8571 32.1185 24.8575C31.797 24.8581 31.4755 24.8583 31.1541 24.8584C30.8077 24.8586 30.4614 24.8593 30.1151 24.86C29.5146 24.861 28.9142 24.8618 28.3137 24.8624C27.3649 24.8634 26.4161 24.8653 25.4672 24.8674C25.1428 24.8681 24.8184 24.8688 24.4939 24.8695C24.4128 24.8696 24.3318 24.8698 24.2482 24.87C23.3247 24.872 22.4012 24.8737 21.4778 24.8754C21.3933 24.8756 21.3089 24.8757 21.2219 24.8759C19.8533 24.8783 18.4848 24.8801 17.1162 24.8816C15.712 24.8833 14.3078 24.886 12.9035 24.8896C12.0369 24.8918 11.1704 24.8931 10.3038 24.8933C9.70998 24.8935 9.11621 24.8947 8.52243 24.8967C8.17965 24.8978 7.83689 24.8985 7.49411 24.898C7.12274 24.8974 6.7514 24.8989 6.38003 24.9007C6.21702 24.8999 6.21702 24.8999 6.05073 24.8992C5.95128 24.9 5.85184 24.9008 5.74939 24.9017C5.66366 24.9018 5.57793 24.9019 5.48961 24.902C5.19521 24.9456 5.01893 25.0414 4.78132 25.2187C4.69082 25.4902 4.67548 25.6625 4.67463 25.9448C4.67412 26.0362 4.6736 26.1277 4.67308 26.222C4.67293 26.3723 4.67293 26.3723 4.67278 26.5257C4.6723 26.6314 4.67183 26.737 4.67134 26.8459C4.67033 27.0756 4.66953 27.3054 4.66889 27.5351C4.66779 27.8983 4.66596 28.2615 4.66391 28.6247C4.65812 29.6574 4.65304 30.6902 4.64994 31.7229C4.64804 32.3542 4.64467 32.9855 4.64049 33.6168C4.63916 33.8578 4.63835 34.0988 4.63805 34.3398C4.63759 34.6763 4.63543 35.0127 4.63286 35.3492C4.63315 35.4494 4.63343 35.5497 4.63372 35.653C4.63268 35.7444 4.63164 35.8359 4.63057 35.9302C4.63026 36.0098 4.62995 36.0893 4.62963 36.1713C4.58525 36.4237 4.51869 36.507 4.31257 36.6562C3.74343 36.7172 3.74343 36.7172 3.48054 36.5332C3.29759 36.2588 3.26924 36.017 3.26648 35.6969C3.26557 35.616 3.26465 35.5352 3.2637 35.4519C3.26289 35.3193 3.26289 35.3193 3.26207 35.184C3.26114 35.0907 3.26021 34.9974 3.25926 34.9012C3.25629 34.5923 3.25397 34.2834 3.25165 33.9745C3.24973 33.7605 3.24776 33.5465 3.24575 33.3325C3.24057 32.7689 3.23594 32.2052 3.23142 31.6416C3.22671 31.0666 3.22149 30.4916 3.21631 29.9167C3.20623 28.7882 3.19672 27.6597 3.18757 26.5312C2.95899 26.5236 2.73066 26.5181 2.50202 26.5136C2.4373 26.5113 2.37259 26.5089 2.30591 26.5065C1.93151 26.4988 1.93151 26.4988 1.60151 26.6554C1.39376 26.9771 1.39438 27.2615 1.39378 27.6333C1.39338 27.7459 1.39298 27.8584 1.39257 27.9743C1.39261 28.0979 1.39265 28.2215 1.3927 28.3489C1.39242 28.4802 1.3921 28.6116 1.39174 28.7429C1.39092 29.0999 1.3907 29.4569 1.39064 29.8139C1.39055 30.1119 1.3902 30.4099 1.38987 30.7078C1.38911 31.4109 1.38888 32.1139 1.38894 32.817C1.389 33.5422 1.38801 34.2675 1.38653 34.9927C1.38531 35.6153 1.3848 36.238 1.38486 36.8606C1.38489 37.2325 1.38462 37.6043 1.38363 37.9762C1.38272 38.326 1.38271 38.6758 1.38339 39.0257C1.38354 39.2151 1.38276 39.4045 1.38195 39.594C1.38234 39.707 1.38273 39.8201 1.38314 39.9365C1.38309 40.0346 1.38304 40.1327 1.38298 40.2337C1.40769 40.5156 1.46561 40.7171 1.59382 40.9687C1.94292 41.1729 2.25625 41.1767 2.65436 41.1679C2.75455 41.1662 2.85473 41.1646 2.95795 41.1628C3.03373 41.1606 3.1095 41.1585 3.18757 41.1562C3.18942 41.1019 3.19128 41.0475 3.1932 40.9915C3.20217 40.7437 3.21243 40.4958 3.22272 40.248C3.22562 40.1625 3.22852 40.077 3.23151 39.9889C3.26732 39.1684 3.26732 39.1684 3.46882 38.8125C3.75474 38.6695 3.99779 38.6966 4.31257 38.7187C4.47169 38.8178 4.47169 38.8178 4.59382 39C4.62148 39.2365 4.63294 39.4511 4.6319 39.6877C4.63292 39.7549 4.63393 39.822 4.63498 39.8912C4.63819 40.1059 4.63965 40.3205 4.64069 40.5351C4.64206 40.8172 4.64523 41.0991 4.64948 41.3811C4.6492 41.4454 4.64891 41.5098 4.64862 41.5761C4.65551 42.0196 4.74373 42.3374 5.06257 42.6562C5.24413 42.6661 5.42606 42.6693 5.60789 42.67C5.7857 42.671 5.7857 42.671 5.9671 42.6721C6.09972 42.6723 6.23233 42.6726 6.36495 42.6728C6.50368 42.6734 6.64242 42.674 6.78115 42.6747C7.1593 42.6763 7.53745 42.6773 7.9156 42.6781C8.15203 42.6786 8.38847 42.6791 8.6249 42.6797C9.36509 42.6815 10.1053 42.6828 10.8455 42.6836C11.6989 42.6845 12.5523 42.687 13.4057 42.6908C14.0657 42.6936 14.7257 42.695 15.3856 42.6953C15.7795 42.6955 16.1734 42.6964 16.5674 42.6987C16.9387 42.7009 17.31 42.7013 17.6814 42.7004C17.817 42.7003 17.9527 42.7009 18.0883 42.7022C19.241 42.7126 20.1387 42.5329 21.0176 41.7656C22.2189 40.7724 23.4041 40.5564 24.9376 40.6875C25.3138 40.7658 25.6303 40.8823 25.9688 41.0625C26.0332 41.0964 26.0976 41.1304 26.164 41.1654C26.6105 41.4252 26.9926 41.7535 27.3769 42.097C28.2347 42.6625 29.1065 42.7106 30.1083 42.7033C30.2484 42.7036 30.3885 42.7041 30.5285 42.7048C30.9058 42.7061 31.2831 42.7051 31.6604 42.7035C32.0561 42.7022 32.4519 42.7028 32.8476 42.7031C33.5111 42.7034 34.1746 42.7021 34.8382 42.7C35.6054 42.6975 36.3726 42.6973 37.1399 42.6984C37.8791 42.6994 38.6183 42.6988 39.3574 42.6975C39.6717 42.697 39.986 42.697 40.3003 42.6974C40.6697 42.6979 41.039 42.6969 41.4084 42.6949C41.544 42.6944 41.6797 42.6943 41.8153 42.6948C42.0001 42.6954 42.1849 42.694 42.3697 42.6926C42.4732 42.6923 42.5767 42.6921 42.6833 42.6919C42.938 42.6767 42.938 42.6767 43.1078 42.5309C43.3546 42.1842 43.3248 41.8438 43.3257 41.4331C43.326 41.3654 43.3263 41.2977 43.3266 41.228C43.3274 41.0007 43.3275 40.7733 43.3277 40.546C43.3281 40.3832 43.3286 40.2204 43.3291 40.0577C43.3303 39.6151 43.3309 39.1725 43.3313 38.7299C43.3316 38.4535 43.332 38.1771 43.3324 37.9006C43.3337 37.0361 43.3346 36.1716 43.335 35.3071C43.3354 34.3085 43.337 33.31 43.3397 32.3114C43.3418 31.5399 43.3427 30.7684 43.3428 29.9969C43.3429 29.5359 43.3435 29.075 43.3452 28.614C43.3467 28.1805 43.3469 27.747 43.3461 27.3134C43.346 27.1543 43.3464 26.9952 43.3474 26.836C43.3485 26.6188 43.348 26.4016 43.347 26.1844C43.3472 26.0021 43.3472 26.0021 43.3474 25.816C43.3099 25.476 43.2424 25.2983 43.0313 25.0312C42.7096 24.924 42.4596 24.9245 42.1202 24.9227C42.0566 24.9222 41.993 24.9217 41.9275 24.9212C41.7895 24.9202 41.6515 24.9194 41.5136 24.9188C41.2953 24.9177 41.077 24.9159 40.8588 24.9138C40.2382 24.908 39.6177 24.903 38.9971 24.8998C38.6175 24.8979 38.2379 24.8946 37.8582 24.8904C37.7135 24.8891 37.5688 24.8883 37.4241 24.888C37.2218 24.8875 37.0197 24.8853 36.8175 24.8828C36.6448 24.8816 36.6448 24.8816 36.4686 24.8805C36.1876 24.8437 36.1876 24.8437 36.0123 24.7116C35.882 24.5282 35.8324 24.4128 35.8126 24.1875C35.883 23.9185 35.927 23.7657 36.1646 23.6129C36.4104 23.5175 36.6016 23.5052 36.8652 23.5013C36.9627 23.4995 37.0603 23.4976 37.1608 23.4957C37.3179 23.4941 37.3179 23.4941 37.4781 23.4924C37.5858 23.4906 37.6934 23.4888 37.8044 23.4869C38.1483 23.4813 38.4921 23.4769 38.836 23.4726C39.0692 23.469 39.3023 23.4654 39.5355 23.4616C40.107 23.4526 40.6785 23.4447 41.2501 23.4375C41.2573 22.8374 41.2622 22.2374 41.2655 21.6373C41.2669 21.4339 41.2688 21.2304 41.2713 21.0269C41.2854 19.8266 41.2637 18.6998 40.9688 17.5312C40.9483 17.4496 40.9277 17.368 40.9065 17.2839C40.8514 17.0842 40.7901 16.8892 40.7227 16.6933C40.6872 16.5893 40.6872 16.5893 40.651 16.4832C39.782 14.0476 38.0474 11.819 35.8126 10.5C35.7532 10.4648 35.6938 10.4295 35.6326 10.3933C32.9291 8.81358 30.1574 8.70386 27.0993 8.70297C26.854 8.70267 26.6088 8.70236 26.3635 8.70203C25.8509 8.70143 25.3383 8.70129 24.8258 8.70135C24.2391 8.7014 23.6524 8.70042 23.0657 8.69893C22.4948 8.69755 21.9239 8.69722 21.353 8.69728C21.1132 8.69717 20.8734 8.69676 20.6336 8.69603C19.4985 8.69289 18.3698 8.70063 17.2384 8.801ZM44.8126 26.5312C44.8126 31.3575 44.8126 36.1837 44.8126 41.1562C45.8476 41.2259 45.8476 41.2259 46.4063 40.9687C46.602 40.6291 46.6175 40.3244 46.6183 39.9378C46.6193 39.7687 46.6193 39.7687 46.6203 39.5961C46.62 39.4731 46.6198 39.3502 46.6196 39.2235C46.62 39.0922 46.6205 38.9608 46.621 38.8294C46.6223 38.4732 46.6223 38.117 46.6221 37.7608C46.622 37.4632 46.6224 37.1657 46.6229 36.8682C46.6239 36.1663 46.624 35.4645 46.6234 34.7626C46.6228 34.0387 46.624 33.3148 46.626 32.591C46.6276 31.9691 46.6282 31.3473 46.6279 30.7255C46.6277 30.3542 46.628 29.983 46.6293 29.6117C46.6305 29.2627 46.6303 28.9137 46.6291 28.5646C46.6287 28.3756 46.6298 28.1866 46.6309 27.9976C46.6299 27.8285 46.6299 27.8285 46.6289 27.6559C46.6289 27.5092 46.6289 27.5092 46.6289 27.3595C46.5846 27.0242 46.4596 26.772 46.2188 26.5312C45.7548 26.5312 45.2907 26.5312 44.8126 26.5312Z" fill="#F4F4F4"/>
<path d="M37.5593 29.9566C37.6426 29.957 37.726 29.9574 37.8119 29.9577C37.9417 29.9612 37.9417 29.9612 38.0742 29.9647C38.1585 29.9648 38.2429 29.9649 38.3298 29.9651C39.1282 29.9754 39.9716 30.0143 40.5937 30.5623C41.0222 31.0811 41.0101 31.5527 41.0093 32.2121C40.9487 32.6876 40.7821 33.0644 40.4003 33.3631C40.1249 33.5623 40.1249 33.5623 39.9374 33.5623C39.972 33.6252 40.0066 33.6881 40.0422 33.7528C40.1981 34.0382 40.352 34.3247 40.5058 34.6112C40.5602 34.7101 40.6147 34.809 40.6708 34.9109C40.7218 35.0067 40.7729 35.1025 40.8255 35.2011C40.8731 35.289 40.9207 35.3769 40.9698 35.4674C41.0768 35.7574 41.0663 35.8972 40.9687 36.1873C40.7609 36.4105 40.6156 36.4635 40.3183 36.533C40.0312 36.4686 40.0312 36.4686 39.9165 36.3291C39.6279 35.8421 39.3624 35.3471 39.1113 34.8397C39.0731 34.7642 39.035 34.6886 38.9957 34.6108C38.9598 34.5387 38.9238 34.4665 38.8868 34.3922C38.8544 34.3272 38.822 34.2623 38.7887 34.1954C38.7187 34.0311 38.7187 34.0311 38.7187 33.8436C38.4712 33.8436 38.2237 33.8436 37.9687 33.8436C37.9687 34.648 37.9687 35.4523 37.9687 36.2811C37.5428 36.494 37.3899 36.4838 36.9374 36.3748C36.7214 36.0508 36.7254 35.9249 36.7227 35.5427C36.7215 35.4294 36.7203 35.3161 36.7191 35.1994C36.7189 35.077 36.7187 34.9545 36.7184 34.8283C36.7178 34.7014 36.7172 34.5745 36.7165 34.4476C36.7154 34.1816 36.7151 33.9156 36.7152 33.6497C36.7152 33.3091 36.7126 32.9685 36.7094 32.628C36.7073 32.3659 36.707 32.1038 36.7071 31.8416C36.7067 31.6551 36.7047 31.4686 36.7026 31.282C36.7032 31.1685 36.7038 31.0549 36.7044 30.9379C36.7041 30.838 36.7039 30.7381 36.7036 30.6352C36.7903 30.148 37.0821 29.9517 37.5593 29.9566ZM37.9687 31.1248C37.9687 31.7127 37.9687 32.3005 37.9687 32.9061C38.5427 32.9218 39.0255 32.9311 39.5624 32.7186C39.816 32.3382 39.8195 32.0397 39.7499 31.5936C39.6161 31.2797 39.6161 31.2797 39.2812 31.1248C38.8359 31.0865 38.4173 31.1039 37.9687 31.1248Z" fill="#F4F4F4"/>
<path d="M32.1563 30.1875C32.275 30.4318 32.275 30.4318 32.3673 30.7676C32.385 30.8297 32.4027 30.8919 32.421 30.9559C32.4636 31.1056 32.5054 31.2556 32.5467 31.4057C32.6422 31.7492 32.7421 32.0914 32.8422 32.4335C33.0527 33.1531 33.2612 33.8733 33.4688 34.5938C33.4839 34.5402 33.499 34.4866 33.5145 34.4313C33.6709 33.8747 33.8276 33.3181 33.9844 32.7616C34.0429 32.5537 34.1014 32.3458 34.1598 32.1379C34.2436 31.8396 34.3277 31.5413 34.4118 31.243C34.438 31.1496 34.4642 31.0562 34.4911 30.96C34.5155 30.8737 34.5399 30.7874 34.5651 30.6984C34.5865 30.6223 34.608 30.5461 34.63 30.4676C34.6876 30.2813 34.6876 30.2813 34.7813 30.0938C35.0628 30 35.2161 29.9898 35.502 30.0762C35.7188 30.1875 35.7188 30.1875 35.9063 30.375C35.8718 30.9906 35.6665 31.578 35.4918 32.1658C35.4597 32.2741 35.4277 32.3823 35.3947 32.4938C35.3268 32.7219 35.2587 32.95 35.1904 33.1779C35.0863 33.5264 34.9843 33.8755 34.8824 34.2246C34.8161 34.4466 34.7497 34.6685 34.6832 34.8904C34.6531 34.9946 34.623 35.0988 34.592 35.2062C34.4275 35.7453 34.3018 36.1251 33.8438 36.4688C33.6267 36.5278 33.6267 36.5278 33.4161 36.5215C33.3464 36.5216 33.2766 36.5218 33.2048 36.5219C32.9213 36.4483 32.8153 36.3145 32.6251 36.0938C32.5195 35.8532 32.5195 35.8532 32.4362 35.5782C32.4043 35.4749 32.3725 35.3717 32.3396 35.2653C32.3067 35.1541 32.2738 35.043 32.2398 34.9285C32.205 34.8138 32.1701 34.6992 32.1342 34.581C32.0607 34.3387 31.988 34.0961 31.9159 33.8534C31.8237 33.5432 31.7298 33.2336 31.6353 32.9241C31.545 32.6276 31.4559 32.3308 31.3668 32.034C31.3331 31.9232 31.2994 31.8125 31.2647 31.6983C31.234 31.5945 31.2033 31.4906 31.1717 31.3836C31.1445 31.2927 31.1173 31.2019 31.0893 31.1082C31.0273 30.8252 31.0211 30.5702 31.0313 30.2813C31.729 29.9256 31.729 29.9256 32.1563 30.1875Z" fill="#F4F4F4"/>
</g>
<defs>
<clipPath id="clip0_72_219">
<rect width="48" height="48" fill="white"/>
</clipPath>
</defs>
</svg>
