<svg width="48" height="48" viewBox="0 0 48 48" fill="none" xmlns="http://www.w3.org/2000/svg">
<g clip-path="url(#clip0_72_184)">
<path d="M28.4064 12.4688C28.7597 12.8906 28.8283 13.1894 28.8284 13.7332C28.8291 13.8351 28.8291 13.8351 28.8299 13.939C28.8311 14.162 28.8296 14.3849 28.8279 14.6079C28.8279 14.7636 28.828 14.9193 28.8283 15.075C28.8284 15.4007 28.8272 15.7264 28.8251 16.0521C28.8224 16.4691 28.8227 16.886 28.8239 17.303C28.8245 17.6243 28.8238 17.9456 28.8226 18.2669C28.8222 18.4206 28.8222 18.5743 28.8226 18.7281C28.8228 18.943 28.8213 19.1579 28.8192 19.3729C28.8187 19.495 28.8182 19.6172 28.8177 19.7431C28.7788 20.085 28.7074 20.2598 28.5001 20.5313C28.1814 20.7486 27.9903 20.8117 27.6036 20.8185C27.2791 20.7181 27.1191 20.6215 26.91 20.3548C26.6923 19.9113 26.7448 19.3955 26.7463 18.912C26.7449 18.7921 26.7435 18.6722 26.742 18.5486C26.7387 18.2314 26.7373 17.9143 26.737 17.5971C26.7361 17.2728 26.7326 16.9485 26.7293 16.6242C26.7234 15.9891 26.7201 15.354 26.7189 14.7188C23.1659 15.7603 19.615 16.8086 16.0665 17.8653C15.9363 17.9041 15.9363 17.9041 15.8035 17.9437C14.9346 18.2024 14.0658 18.4612 13.197 18.7203C13.0784 18.7556 12.9598 18.791 12.8377 18.8274C12.4021 18.9575 11.9667 19.0882 11.5314 19.2188C11.5004 22.5292 11.4695 25.8395 11.4376 29.2501C11.8089 29.3429 12.1801 29.4357 12.5626 29.5313C12.7627 29.5872 12.9624 29.6444 13.1613 29.7042C13.2657 29.7354 13.3701 29.7666 13.4777 29.7988C13.5882 29.8321 13.6987 29.8654 13.8125 29.8998C13.9335 29.936 14.0546 29.9723 14.1757 30.0086C14.4346 30.0861 14.6934 30.1638 14.9522 30.2416C15.5779 30.4297 16.2038 30.617 16.8297 30.8043C16.9756 30.8479 17.1214 30.8916 17.2673 30.9353C18.4095 31.2772 19.5524 31.6169 20.6958 31.9549C20.7714 31.9773 20.847 31.9996 20.9248 32.0226C21.6613 32.2403 22.3979 32.4578 23.1345 32.6751C23.4074 32.7557 23.6804 32.8363 23.9533 32.9169C24.138 32.9714 24.3228 33.0259 24.5076 33.0803C25.2463 33.2985 25.9832 33.5219 26.7189 33.7501C26.7192 33.6771 26.7195 33.6042 26.7199 33.529C26.7234 32.8407 26.7288 32.1524 26.7361 31.4641C26.7398 31.1103 26.7428 30.7565 26.7443 30.4026C26.7457 30.061 26.7489 29.7194 26.7534 29.3778C26.7548 29.2476 26.7555 29.1174 26.7556 28.9872C26.7558 28.8045 26.7586 28.6219 26.7614 28.4392C26.7623 28.3354 26.7631 28.2315 26.7639 28.1244C26.8235 27.7808 26.9477 27.6236 27.1876 27.3751C27.5132 27.2123 27.8637 27.2249 28.2189 27.2813C28.4772 27.4859 28.6347 27.6443 28.7814 27.9376C28.7915 28.1725 28.7961 28.4049 28.7965 28.6399C28.7969 28.7123 28.7974 28.7848 28.7979 28.8594C28.7992 29.0996 28.7999 29.3398 28.8004 29.5801C28.8009 29.7468 28.8015 29.9136 28.802 30.0803C28.803 30.4303 28.8035 30.7803 28.8039 31.1303C28.8044 31.5786 28.8066 32.0269 28.8093 32.4752C28.8111 32.8198 28.8115 33.1644 28.8117 33.5091C28.812 33.6743 28.8127 33.8396 28.814 34.0048C28.8156 34.2362 28.8154 34.4675 28.8148 34.6989C28.8156 34.767 28.8165 34.8352 28.8174 34.9054C28.814 35.3182 28.7555 35.5793 28.5001 35.9063C28.1211 36.159 27.8132 36.1432 27.3751 36.0938C26.9239 35.9927 26.4837 35.8579 26.0421 35.7218C25.9085 35.6816 25.7748 35.6414 25.6412 35.6014C25.3538 35.5152 25.0666 35.4282 24.7796 35.3407C24.3233 35.2015 23.8666 35.064 23.4098 34.9268C22.9269 34.7817 22.4441 34.6364 21.9614 34.4907C20.3158 33.9937 18.6684 33.5032 17.0203 33.0147C16.5168 32.8654 16.0135 32.7159 15.5102 32.5659C15.1954 32.4722 14.8806 32.3787 14.5657 32.2853C14.4198 32.242 14.274 32.1986 14.1282 32.1551C13.9277 32.0953 13.7272 32.0358 13.5266 31.9764C13.4145 31.9431 13.3024 31.9098 13.1869 31.8754C12.7939 31.7676 12.3986 31.6786 12.0001 31.5938C12.0318 31.6977 12.0635 31.8015 12.0962 31.9085C12.3954 32.8888 12.6934 33.8694 12.9902 34.8505C13.1428 35.3548 13.2959 35.8589 13.4499 36.3628C13.5986 36.8494 13.7462 37.3363 13.893 37.8235C13.9491 38.009 14.0056 38.1943 14.0626 38.3795C14.1425 38.6397 14.2209 38.9003 14.299 39.161C14.3227 39.2369 14.3463 39.3127 14.3707 39.3909C14.5157 39.8821 14.6029 40.3624 14.5314 40.8751C14.3632 41.1442 14.2517 41.2962 13.9689 41.4376C13.7527 41.4487 13.5361 41.4535 13.3197 41.4557C13.2529 41.4564 13.1861 41.4572 13.1173 41.458C12.8958 41.4603 12.6743 41.4619 12.4527 41.4632C12.3771 41.4637 12.3014 41.4642 12.2235 41.4647C11.8228 41.4673 11.4222 41.4691 11.0216 41.4704C10.6082 41.472 10.1948 41.4762 9.78145 41.481C9.46328 41.4841 9.14512 41.4852 8.82693 41.4857C8.67458 41.4864 8.52223 41.4878 8.36989 41.49C8.15623 41.493 7.94275 41.493 7.72908 41.4923C7.60765 41.4931 7.48622 41.4938 7.36111 41.4946C6.93692 41.4213 6.7617 41.281 6.46885 40.9688C6.33341 40.6867 6.33341 40.6867 6.24063 40.3683C6.21417 40.2804 6.21417 40.2804 6.18716 40.1908C6.12942 39.9975 6.07448 39.8036 6.01951 39.6095C5.97911 39.4722 5.93853 39.3351 5.89779 39.1979C5.78981 38.8328 5.68418 38.467 5.57899 38.101C5.47045 37.725 5.35969 37.3496 5.2491 36.9741C5.07588 36.3852 4.90377 35.7959 4.73269 35.2063C4.46952 34.2995 4.20141 33.3942 3.93152 32.4894C3.86859 32.2779 3.80612 32.0663 3.74381 31.8546C3.72509 31.7912 3.70638 31.7278 3.68709 31.6625C3.63894 31.4994 3.59092 31.3363 3.54292 31.1732C3.47678 30.9411 3.47678 30.9411 3.3751 30.7501C3.20543 30.6641 3.20543 30.6641 3.0001 30.586C1.83035 30.0818 0.93728 29.2722 0.375103 28.1251C0.0500802 27.291 -0.0558957 26.5278 -0.0497017 25.6374C-0.0500605 25.5211 -0.0504192 25.4048 -0.0507889 25.285C-0.0510422 25.041 -0.0503633 24.797 -0.0487862 24.5531C-0.0467752 24.1823 -0.0487741 23.8118 -0.0511665 23.4411C-0.0509187 23.2025 -0.0504383 22.9639 -0.0497017 22.7253C-0.0504608 22.616 -0.0512199 22.5067 -0.052002 22.3941C-0.0377014 21.1257 0.407093 19.9403 1.25767 18.9841C2.37249 17.9324 3.72822 17.4059 5.25814 17.4345C5.46141 17.4418 5.66467 17.4497 5.8679 17.4581C9.15924 17.5432 11.9313 17.0995 15.0709 16.0377C16.0287 15.7142 16.9928 15.4176 17.9624 15.1316C18.0365 15.1097 18.1105 15.0878 18.1869 15.0653C18.5625 14.9545 18.9382 14.8441 19.314 14.7338C19.9772 14.5391 20.6398 14.3423 21.3024 14.1454C21.5154 14.0821 21.7285 14.0189 21.9415 13.9557C22.7072 13.7284 23.472 13.4988 24.236 13.2662C24.6584 13.1379 25.0811 13.0109 25.504 12.8842C25.6942 12.8268 25.8841 12.7688 26.0738 12.71C26.3296 12.6309 26.586 12.554 26.8426 12.4776C26.9151 12.4545 26.9877 12.4314 27.0624 12.4076C27.5225 12.274 27.9775 12.2125 28.4064 12.4688ZM2.72142 20.4087C2.47469 20.6896 2.31313 20.9417 2.15635 21.2813C2.10125 21.3945 2.10125 21.3945 2.04502 21.5099C1.86224 22.0863 1.86027 22.6961 1.85936 23.2959C1.85904 23.3694 1.85873 23.4428 1.85841 23.5186C1.85794 23.673 1.85772 23.8275 1.85773 23.982C1.85753 24.2153 1.85582 24.4485 1.85405 24.6818C1.84925 25.9858 1.88523 27.1088 2.79576 28.1288C3.59753 28.8916 4.45916 29.0248 5.53209 29.0055C5.68271 29.0049 5.68271 29.0049 5.83638 29.0043C6.20738 29.0024 6.57835 28.9971 6.94932 28.9923C8.19649 28.9807 8.19649 28.9807 9.46885 28.9688C9.46885 25.8132 9.46885 22.6576 9.46885 19.4063C5.8725 19.0457 5.8725 19.0457 2.72142 20.4087ZM5.6251 30.9376C5.7582 31.7112 5.97462 32.4529 6.20408 33.2026C6.24267 33.3299 6.28121 33.4571 6.31972 33.5844C6.42072 33.9179 6.52223 34.2512 6.62387 34.5845C6.74577 34.9845 6.86709 35.3847 6.98847 35.7848C7.08567 36.1052 7.18294 36.4256 7.28043 36.746C7.50365 37.48 7.72451 38.2146 7.93396 38.9527C8.00064 39.2344 8.00064 39.2344 8.15635 39.4688C8.283 39.4775 8.4101 39.4799 8.53705 39.4795C8.6581 39.4795 8.6581 39.4795 8.7816 39.4795C8.91314 39.4787 8.91314 39.4787 9.04734 39.478C9.18136 39.4778 9.18136 39.4778 9.31809 39.4776C9.60467 39.4771 9.89125 39.4759 10.1778 39.4747C10.3716 39.4742 10.5654 39.4738 10.7592 39.4734C11.2353 39.4724 11.7115 39.4708 12.1876 39.4688C12.0309 38.5579 11.7596 37.6859 11.4929 36.8025C11.4429 36.6359 11.393 36.4693 11.343 36.3027C11.2389 35.9555 11.1345 35.6084 11.0298 35.2614C10.8954 34.8158 10.7617 34.37 10.6282 33.9241C10.5254 33.581 10.4223 33.2381 10.3191 32.8951C10.2696 32.7306 10.2203 32.5661 10.171 32.4016C10.1024 32.1728 10.0334 31.9442 9.96431 31.7156C9.9337 31.6131 9.9337 31.6131 9.90247 31.5086C9.82611 31.198 9.82611 31.198 9.65635 30.9376C9.5297 30.9289 9.4026 30.9266 9.27565 30.927C9.19495 30.927 9.11425 30.927 9.0311 30.927C8.89956 30.9277 8.89956 30.9277 8.76536 30.9284C8.63134 30.9286 8.63134 30.9286 8.49462 30.9288C8.20803 30.9294 7.92145 30.9305 7.63487 30.9317C7.44108 30.9322 7.2473 30.9326 7.05351 30.933C6.57737 30.9341 6.10124 30.9357 5.6251 30.9376Z" fill="#F4F4F4"/>
<path d="M34.8749 27.7501C35.3154 28.0169 35.643 28.4195 35.9515 28.825C36.6629 29.7563 37.4333 30.7134 38.6465 30.9135C39.6794 31.0297 40.7227 30.9768 41.758 30.9217C42.4756 30.8863 43.1941 30.8737 43.9124 30.8581C44.1602 30.851 44.4075 30.839 44.6551 30.826C45.6618 30.7822 46.4386 30.8748 47.2413 31.5588C47.8907 32.2468 48.056 33.0303 48.0514 33.9482C48.0524 34.0489 48.0533 34.1496 48.0543 34.2534C48.0569 34.5843 48.0567 34.9152 48.0563 35.2461C48.057 35.4776 48.0578 35.7091 48.0587 35.9406C48.0601 36.4252 48.0601 36.9097 48.0591 37.3943C48.058 38.0131 48.0612 38.6318 48.0655 39.2506C48.0683 39.7286 48.0685 40.2066 48.0679 40.6846C48.068 40.9126 48.0689 41.1406 48.0708 41.3686C48.0884 43.7761 48.0884 43.7761 47.2852 44.7079C46.5187 45.4415 45.6536 45.5241 44.6344 45.5189C44.5047 45.5195 44.3749 45.5204 44.2452 45.5213C43.8949 45.5234 43.5448 45.5232 43.1945 45.5223C42.9012 45.5218 42.6079 45.5225 42.3146 45.5232C41.6223 45.5248 40.9299 45.5245 40.2375 45.5229C39.5253 45.5213 38.813 45.5228 38.1007 45.5258C37.4873 45.5283 36.8738 45.529 36.2603 45.5282C35.8947 45.5278 35.5292 45.5279 35.1637 45.5299C34.8197 45.5316 34.4759 45.531 34.132 45.5287C33.947 45.528 33.762 45.5297 33.577 45.5313C32.6619 45.5217 32.0064 45.3075 31.3241 44.6896C30.8265 44.152 30.552 43.5279 30.5492 42.7951C30.5487 42.7106 30.5482 42.6261 30.5476 42.539C30.5475 42.447 30.5474 42.355 30.5473 42.2602C30.5468 42.1628 30.5464 42.0653 30.5459 41.9649C30.5445 41.6423 30.5439 41.3197 30.5434 40.9971C30.5428 40.7726 30.5423 40.5482 30.5417 40.3237C30.5408 39.8528 30.5402 39.3819 30.5399 38.911C30.5394 38.3087 30.5371 37.7064 30.5344 37.1041C30.5327 36.6403 30.5322 36.1765 30.5321 35.7127C30.5318 35.4907 30.531 35.2687 30.5298 35.0467C30.5282 34.7355 30.5284 34.4243 30.529 34.1131C30.5281 34.0221 30.5273 33.931 30.5264 33.8372C30.5322 32.8712 30.7787 32.2218 31.4505 31.5228C32.0919 30.9538 32.632 30.8131 33.4687 30.8439C33.4667 30.773 33.4647 30.7021 33.4627 30.629C33.4549 30.3061 33.45 29.9832 33.4452 29.6603C33.4421 29.5487 33.4389 29.4372 33.4357 29.3223C33.4241 28.2867 33.4241 28.2867 33.8437 27.8439C34.181 27.6752 34.5081 27.6876 34.8749 27.7501ZM35.4374 31.1251C35.4282 31.2098 35.419 31.2945 35.4096 31.3818C35.3956 31.4924 35.3815 31.603 35.3671 31.7169C35.354 31.8268 35.341 31.9366 35.3275 32.0498C35.2499 32.3439 35.2499 32.3439 35.0983 32.5204C34.7897 32.6651 34.5232 32.6673 34.1835 32.6778C33.3674 32.6916 33.3674 32.6916 32.7051 33.1137C32.5033 33.417 32.4854 33.5671 32.4886 33.9275C32.4886 34.0363 32.4886 34.1451 32.4887 34.2572C32.4906 34.3738 32.4925 34.4903 32.4945 34.6103C32.4951 34.7304 32.4956 34.8504 32.4961 34.9741C32.4976 35.292 32.5012 35.61 32.5054 35.9279C32.5092 36.2528 32.511 36.5777 32.5128 36.9026C32.517 37.5393 32.5232 38.176 32.5312 38.8126C32.92 38.4858 33.2949 38.1537 33.6518 37.7916C33.733 37.7097 33.8142 37.6277 33.8979 37.5433C33.9805 37.4595 34.0632 37.3756 34.1483 37.2892C34.3146 37.1205 34.4811 36.952 34.6479 36.7838C34.7572 36.6728 34.7572 36.6728 34.8688 36.5596C35.149 36.2926 35.3516 36.156 35.7362 36.1349C36.0882 36.1502 36.2591 36.2072 36.5174 36.4462C36.5818 36.5056 36.6463 36.5651 36.7127 36.6264C37.1837 37.0822 37.6476 37.5446 38.1093 38.0099C38.2142 38.1153 38.3192 38.2207 38.4242 38.3261C38.6789 38.5818 38.9332 38.8377 39.1874 39.0939C39.8341 38.5656 40.412 37.9704 40.9979 37.3771C41.2004 37.1721 41.4032 36.9674 41.6062 36.7629C41.6524 36.716 41.6986 36.669 41.7462 36.6206C42.0351 36.3296 42.1707 36.1982 42.5858 36.1583C43.2479 36.2135 43.6624 36.6994 44.1052 37.1529C44.1604 37.2086 44.2156 37.2642 44.2724 37.3216C44.447 37.4978 44.621 37.6747 44.7948 37.8517C44.9705 38.0299 45.1462 38.208 45.3223 38.3858C45.4314 38.4961 45.5404 38.6067 45.649 38.7175C45.7746 38.8447 45.9027 38.9696 46.0312 39.0939C46.0621 39.0939 46.093 39.0939 46.1249 39.0939C46.1314 38.3962 46.1364 37.6986 46.1395 37.001C46.1409 36.677 46.1429 36.353 46.1461 36.029C46.1498 35.656 46.1511 35.283 46.1524 34.9099C46.1538 34.7943 46.1553 34.6788 46.1568 34.5597C46.1657 33.7352 46.1657 33.7352 45.8437 33.0001C45.3438 32.7314 44.9456 32.6796 44.3847 32.6887C44.3072 32.6888 44.2296 32.6889 44.1498 32.689C43.9824 32.6894 43.8151 32.6903 43.6478 32.6918C43.3825 32.694 43.1172 32.6941 42.8519 32.6936C42.098 32.6924 41.344 32.694 40.5901 32.6992C40.1279 32.7023 39.6659 32.7022 39.2037 32.7001C39.0282 32.6999 38.8528 32.7009 38.6773 32.7033C37.1336 32.7231 37.1336 32.7231 36.6524 32.3079C36.5562 32.1981 36.4631 32.0853 36.3749 31.9689C36.2909 31.8868 36.2069 31.8047 36.1204 31.7202C36.0516 31.6495 35.9829 31.5788 35.912 31.506C35.7868 31.3773 35.6603 31.2498 35.5312 31.1251C35.5002 31.1251 35.4693 31.1251 35.4374 31.1251ZM34.3497 39.7274C34.197 39.8743 34.0431 40.02 33.8878 40.1642C32.9581 40.9558 32.9581 40.9558 32.4188 42.0062C32.4049 42.4797 32.4404 42.7907 32.6912 43.1966C33.1223 43.6173 33.6375 43.6209 34.2124 43.6151C34.2847 43.6152 34.357 43.6152 34.4315 43.6152C34.6689 43.6151 34.9063 43.6136 35.1437 43.6122C35.3089 43.6118 35.4742 43.6116 35.6394 43.6114C36.0731 43.6107 36.5068 43.6088 36.9405 43.6067C37.3836 43.6048 37.8266 43.604 38.2697 43.603C39.1381 43.601 40.0065 43.5978 40.8749 43.5939C40.3774 42.9904 39.8295 42.441 39.2764 41.8891C39.1765 41.7892 39.0767 41.6893 38.9768 41.5893C38.7689 41.3812 38.5607 41.1733 38.3525 40.9655C38.0851 40.6986 37.818 40.4312 37.5511 40.1638C37.3457 39.958 37.14 39.7524 36.9342 39.5469C36.8356 39.4483 36.737 39.3496 36.6385 39.2509C36.5016 39.1138 36.3645 38.977 36.2272 38.8403C36.1492 38.7623 36.0711 38.6844 35.9907 38.604C35.5502 38.1929 34.6939 39.3936 34.3497 39.7274ZM42.369 38.7035C42.2914 38.782 42.2139 38.8606 42.1339 38.9415C42.0499 39.0261 41.966 39.1107 41.8794 39.1979C41.7907 39.2882 41.7019 39.3785 41.6132 39.4689C41.5237 39.5592 41.4343 39.6496 41.3448 39.7399C41.1252 39.9616 40.9061 40.1838 40.6874 40.4064C40.8078 40.6675 40.9365 40.8703 41.1306 41.0821C41.182 41.1384 41.2335 41.1947 41.2865 41.2527C41.5252 41.5074 41.7658 41.7601 42.0083 42.0113C42.1347 42.1436 42.2596 42.2775 42.3829 42.4128C43.1832 43.3312 43.1832 43.3312 44.2936 43.7017C44.8692 43.6905 45.3371 43.5743 45.8437 43.3126C46.1085 42.8769 46.2443 42.4111 46.1249 41.9064C45.9197 41.5963 45.6613 41.3509 45.3932 41.0948C45.3187 41.021 45.2443 40.9471 45.1676 40.871C45.0103 40.7158 44.8522 40.5614 44.6932 40.4078C44.449 40.1719 44.2074 39.9335 43.9661 39.6944C43.813 39.5439 43.6598 39.3935 43.5065 39.2433C43.3972 39.1361 43.3972 39.1361 43.2857 39.0267C43.2182 38.9615 43.1506 38.8964 43.081 38.8293C43.0215 38.7716 42.9619 38.7139 42.9006 38.6544C42.6606 38.4584 42.5971 38.5004 42.369 38.7035Z" fill="#F4F4F4"/>
<path d="M33.9355 2.46911C34.065 2.46832 34.1945 2.46733 34.3239 2.46616C34.673 2.46364 35.022 2.46406 35.3711 2.4652C35.6637 2.46587 35.9563 2.46506 36.2489 2.46427C36.9398 2.4624 37.6306 2.46291 38.3215 2.46499C39.0317 2.46708 39.7417 2.46543 40.4518 2.46189C41.0639 2.45895 41.676 2.45822 42.2882 2.45926C42.6527 2.45986 43.0172 2.4597 43.3817 2.45745C43.7248 2.45544 44.0678 2.45622 44.4108 2.45905C44.5949 2.45992 44.779 2.45804 44.963 2.45605C45.8344 2.46732 46.5654 2.67503 47.243 3.24593C47.8883 3.93877 48.056 4.71474 48.0514 5.63555C48.0524 5.73628 48.0533 5.83701 48.0543 5.94079C48.0569 6.2717 48.0567 6.60254 48.0563 6.93347C48.057 7.16498 48.0578 7.39649 48.0587 7.628C48.0601 8.11257 48.0601 8.59712 48.0591 9.08169C48.058 9.70049 48.0612 10.3192 48.0655 10.938C48.0683 11.416 48.0685 11.8939 48.0679 12.372C48.068 12.6 48.0689 12.828 48.0708 13.056C48.0884 15.4635 48.0884 15.4635 47.2852 16.3953C47.1258 16.5479 46.9679 16.6641 46.7812 16.7812C46.7291 16.8164 46.677 16.8515 46.6234 16.8877C45.9393 17.2661 45.2128 17.1687 44.461 17.1248C44.033 17.1012 43.6047 17.0882 43.1763 17.0749C43.0871 17.0722 42.9979 17.0694 42.9061 17.0666C39.543 16.8165 39.543 16.8165 36.5811 18.0915C36.0467 18.6205 35.5942 19.2265 35.224 19.8803C35.0624 20.1562 35.0624 20.1562 34.8749 20.25C34.5881 20.2894 34.3174 20.2955 34.0312 20.25C33.7728 20.0455 33.6153 19.887 33.4687 19.5937C33.4607 19.4101 33.4586 19.2261 33.4595 19.0422C33.4598 18.9329 33.4601 18.8235 33.4604 18.7108C33.4612 18.5961 33.462 18.4814 33.4628 18.3633C33.4632 18.2479 33.4636 18.1325 33.4641 18.0135C33.4652 17.7278 33.4667 17.442 33.4687 17.1562C33.4133 17.1585 33.358 17.1607 33.301 17.163C32.4918 17.1821 31.9203 16.9324 31.3241 16.377C30.8265 15.8394 30.552 15.2153 30.5492 14.4824C30.5487 14.398 30.5482 14.3135 30.5476 14.2264C30.5475 14.1344 30.5474 14.0424 30.5473 13.9476C30.5468 13.8502 30.5464 13.7527 30.5459 13.6523C30.5445 13.3297 30.5439 13.0071 30.5434 12.6844C30.5428 12.46 30.5423 12.2355 30.5417 12.0111C30.5408 11.5402 30.5402 11.0693 30.5399 10.5984C30.5394 9.99613 30.5371 9.39383 30.5344 8.79152C30.5327 8.3277 30.5322 7.86387 30.5321 7.40004C30.5318 7.17806 30.531 6.95608 30.5298 6.7341C30.5282 6.4229 30.5284 6.11174 30.529 5.80053C30.5281 5.70947 30.5273 5.61842 30.5264 5.52461C30.5312 4.72827 30.6753 4.04731 31.2245 3.44531C31.3219 3.33437 31.3219 3.33437 31.4212 3.22119C32.2077 2.56776 32.9335 2.46238 33.9355 2.46911ZM32.6865 4.78212C32.4634 5.18472 32.4787 5.53267 32.4826 5.98608C32.482 6.07867 32.4813 6.17125 32.4806 6.26664C32.479 6.57232 32.4801 6.87791 32.4813 7.18359C32.4811 7.39619 32.4807 7.60879 32.4803 7.82139C32.4797 8.26682 32.4805 8.71222 32.4823 9.15765C32.4844 9.72859 32.4832 10.2995 32.4809 10.8704C32.4796 11.3094 32.48 11.7483 32.481 12.1873C32.4812 12.3978 32.4809 12.6083 32.48 12.8188C32.4791 13.1131 32.4805 13.4072 32.4826 13.7014C32.4819 13.7884 32.4811 13.8754 32.4803 13.965C32.4855 14.356 32.4974 14.5698 32.7054 14.9096C33.2196 15.3813 33.8916 15.3132 34.5504 15.3336C34.89 15.3769 35.0281 15.398 35.2499 15.6562C35.3275 15.9503 35.3275 15.9503 35.3671 16.2832C35.3811 16.3938 35.3951 16.5044 35.4096 16.6183C35.4233 16.7454 35.4233 16.7454 35.4374 16.875C35.9045 16.4874 36.3343 16.0777 36.7576 15.6427C37.0985 15.3129 37.426 15.3608 37.8759 15.3602C37.9923 15.3595 37.9923 15.3595 38.1111 15.3588C38.28 15.3578 38.4489 15.357 38.6178 15.3563C38.8854 15.3552 39.153 15.3534 39.4206 15.3513C40.1816 15.3456 40.9425 15.3405 41.7035 15.3374C42.1688 15.3354 42.634 15.3321 43.0992 15.3279C43.2763 15.3266 43.4535 15.3258 43.6306 15.3255C43.879 15.325 44.1274 15.3228 44.3758 15.3203C44.4485 15.3206 44.5212 15.3209 44.5962 15.3211C45.0778 15.3138 45.4276 15.2527 45.8437 15C46.1548 14.4968 46.1654 14.034 46.1613 13.4535C46.1618 13.3667 46.1623 13.2798 46.1628 13.1904C46.164 12.9049 46.1632 12.6195 46.1623 12.334C46.1624 12.1347 46.1627 11.9354 46.1631 11.7362C46.1635 11.3191 46.1629 10.9021 46.1616 10.4851C46.16 9.95137 46.1609 9.41771 46.1626 8.88401C46.1636 8.4727 46.1633 8.0614 46.1625 7.6501C46.1623 7.45334 46.1626 7.25659 46.1632 7.05984C46.164 6.78454 46.1629 6.5093 46.1613 6.23401C46.1621 6.11286 46.1621 6.11286 46.163 5.98926C46.1578 5.48764 46.1106 5.11912 45.8437 4.6875C45.2863 4.32298 44.6946 4.36697 44.0461 4.37134C43.8758 4.37083 43.8758 4.37083 43.7022 4.37031C43.3924 4.36968 43.0828 4.3703 42.773 4.37156C42.4481 4.37262 42.1232 4.37223 41.7983 4.37205C41.2528 4.37197 40.7074 4.373 40.162 4.37473C39.5323 4.37672 38.9026 4.37704 38.2728 4.37646C37.6658 4.37592 37.0588 4.37646 36.4517 4.37751C36.1939 4.37794 35.9361 4.37803 35.6783 4.37783C35.3182 4.37762 34.958 4.37898 34.5978 4.3805C34.4913 4.38027 34.3848 4.38003 34.275 4.37979C33.4179 4.37694 33.4179 4.37694 32.6865 4.78212Z" fill="#F4F4F4"/>
<path d="M38.6251 6.28126C39.1009 6.47124 39.5121 6.75018 39.9376 7.03126C40.1266 7.15265 40.3157 7.27398 40.5048 7.39527C40.7085 7.52758 40.912 7.66015 41.1153 7.79298C41.2135 7.85679 41.3117 7.9206 41.4129 7.98634C42.5364 8.73413 42.5364 8.73413 42.7501 9.37501C42.8001 9.93421 42.8019 10.4023 42.4688 10.875C41.9778 11.3633 41.3949 11.723 40.8106 12.0879C40.7188 12.1453 40.6269 12.2027 40.5323 12.2619C40.3518 12.3745 40.1711 12.487 39.9902 12.5992C39.7926 12.7233 39.5981 12.8504 39.4047 12.9811C38.7748 13.3902 38.2517 13.5468 37.5001 13.4063C37.0076 13.1688 36.6784 12.8299 36.4603 12.3266C36.3463 11.8897 36.3464 11.4779 36.3469 11.0281C36.3465 10.9349 36.3461 10.8418 36.3456 10.7458C36.3451 10.5493 36.3451 10.3528 36.3455 10.1563C36.3458 9.85712 36.3436 9.55806 36.3412 9.25892C36.341 9.06739 36.3409 8.87586 36.341 8.68434C36.3401 8.59564 36.3393 8.50695 36.3384 8.41556C36.3426 7.79897 36.4049 7.23261 36.8207 6.74452C36.8767 6.70186 36.9326 6.6592 36.9903 6.61524C37.0465 6.57089 37.1027 6.52654 37.1606 6.48084C37.6088 6.16872 38.1004 6.20435 38.6251 6.28126ZM38.3438 8.43751C38.3438 9.36563 38.3438 10.2938 38.3438 11.25C38.8543 10.9252 38.8543 10.9252 39.3751 10.5938C39.7188 10.375 40.0626 10.1563 40.4063 9.93751C40.2943 9.60143 40.2141 9.56749 39.9203 9.386C39.8411 9.33657 39.7619 9.28714 39.6803 9.23622C39.597 9.18534 39.5136 9.13446 39.4278 9.08204C39.3448 9.03044 39.2619 8.97884 39.1764 8.92567C38.7673 8.66877 38.7673 8.66877 38.3438 8.43751Z" fill="#F4F4F4"/>
<path d="M28.3359 23.3145C28.5751 23.4939 28.668 23.6263 28.7812 23.9063C28.8 24.3107 28.7569 24.6389 28.541 24.9844C28.222 25.1807 27.9361 25.2381 27.5625 25.2188C27.2186 25.0736 26.9875 24.8942 26.8125 24.5625C26.7617 24.0974 26.7988 23.8061 27.0937 23.4375C27.4578 23.1645 27.9131 23.1853 28.3359 23.3145Z" fill="#F4F4F4"/>
</g>
<defs>
<clipPath id="clip0_72_184">
<rect width="48" height="48" fill="white"/>
</clipPath>
</defs>
</svg>
