<svg width="48" height="48" viewBox="0 0 48 48" fill="none" xmlns="http://www.w3.org/2000/svg">
<g clip-path="url(#clip0_72_228)">
<path d="M14.2375 -0.052958C14.6478 0.0552538 14.9026 0.356158 15.1874 0.656026C15.2641 0.735304 15.3409 0.814581 15.42 0.896261C17.2066 2.79919 18.1421 5.07137 18.1065 7.69863C18.0856 8.28981 18.0468 8.87884 17.9999 9.46853C18.0693 9.45354 18.1386 9.43856 18.2101 9.42312C18.7889 9.31489 19.2904 9.35508 19.8566 9.51687C19.9482 9.54276 20.0398 9.56865 20.1341 9.59533C20.2033 9.61536 20.2724 9.63539 20.3437 9.65603C20.3415 9.22819 20.3343 8.80058 20.3261 8.37282C20.3255 8.25155 20.325 8.13028 20.3244 8.00533C20.3217 7.88841 20.319 7.77149 20.3162 7.65102C20.314 7.48974 20.314 7.48974 20.3117 7.32521C20.2323 6.94726 20.0695 6.81035 19.7812 6.56228C18.9487 5.63389 18.7547 4.64765 18.8019 3.43154C18.8763 2.41488 19.4043 1.54691 20.1477 0.86733C21.1971 0.0307253 22.3219 -0.10232 23.6249 -0.000223614C24.5967 0.183589 25.4695 0.78863 26.0565 1.57595C26.7467 2.67259 26.9065 3.8146 26.6601 5.08242C26.4245 5.81536 25.9587 6.60017 25.3124 7.03103C25.265 7.21144 25.265 7.21144 25.2644 7.41848C25.2611 7.49401 25.2578 7.56954 25.2544 7.64736C25.2512 7.76573 25.2512 7.76573 25.248 7.8865C25.2448 7.96614 25.2416 8.04577 25.2383 8.12783C25.2305 8.32468 25.2244 8.5216 25.2187 8.71853C25.2765 8.7323 25.3344 8.74608 25.3941 8.76027C26.223 8.9798 26.9062 9.37785 27.4687 10.031C27.4687 10.0929 27.4687 10.1548 27.4687 10.2185C27.7831 10.2278 27.7831 10.2278 28.1249 10.1248C28.3156 9.91578 28.4212 9.67438 28.5376 9.41836C28.5721 9.34774 28.6065 9.27712 28.642 9.20436C28.7513 8.97901 28.857 8.75219 28.9628 8.52517C29.0364 8.37192 29.1102 8.21878 29.1842 8.06576C29.3649 7.69079 29.5426 7.31448 29.7187 6.93728C29.5346 6.79613 29.364 6.66622 29.1562 6.56228C29.3104 6.02931 29.5584 5.55289 29.8124 5.06228C29.9671 5.09321 30.1218 5.12415 30.2812 5.15603C30.279 5.09766 30.2768 5.03929 30.2746 4.97915C30.2616 4.31724 30.3005 3.66489 30.3573 3.00564C30.3639 2.92017 30.3705 2.83471 30.3772 2.74666C30.4549 1.9082 30.4549 1.9082 30.7499 1.59353C31.3039 1.29979 31.9018 1.10304 32.4971 0.912008C32.6213 0.871893 32.6213 0.871893 32.748 0.830968C32.9214 0.775177 33.095 0.71965 33.2686 0.664381C33.5338 0.579639 33.7983 0.493073 34.0628 0.406454C34.2323 0.352203 34.4018 0.29806 34.5713 0.244039C34.6498 0.218073 34.7284 0.192107 34.8093 0.165354C35.2327 0.0329642 35.567 -0.0644752 35.9999 0.0935264C36.4181 0.469664 36.5491 0.991368 36.7191 1.51113C36.7498 1.60277 36.7805 1.69441 36.8121 1.78883C36.8766 1.98212 36.9405 2.17558 37.004 2.36918C37.1012 2.66488 37.2003 2.95987 37.2996 3.25484C37.3621 3.4431 37.4245 3.63139 37.4867 3.81972C37.5163 3.90763 37.5459 3.99554 37.5764 4.08611C37.9 5.08196 37.9 5.08196 37.6698 5.58852C37.4791 5.83969 37.2804 6.01175 37.0312 6.20485C36.6413 6.51465 36.263 6.83128 35.8944 7.16579C35.8091 7.24301 35.7238 7.32024 35.6359 7.3998C35.4331 7.57658 35.4331 7.57658 35.3437 7.78103C35.4055 7.78103 35.4674 7.78103 35.5312 7.78103C35.473 8.17789 35.3338 8.4863 35.1503 8.84157C35.0733 8.99185 35.0733 8.99185 34.9947 9.14516C34.9354 9.25882 34.9354 9.25882 34.8749 9.37478C34.6583 9.28196 34.4418 9.18915 34.2187 9.09353C33.5852 10.2329 32.9651 11.3695 32.4374 12.5623C32.5202 12.5579 32.603 12.5536 32.6883 12.5491C33.7571 12.5169 34.5366 12.7518 35.4374 13.3123C35.461 13.2345 35.4847 13.1568 35.509 13.0767C35.6399 12.7076 35.8031 12.3682 35.9794 12.0192C36.0141 11.9498 36.0487 11.8805 36.0845 11.8091C36.1965 11.5853 36.3091 11.3619 36.4218 11.1384C36.499 10.9846 36.5763 10.8308 36.6535 10.677C37.1437 9.70229 37.6395 8.73106 38.1569 7.77045C38.2513 7.59095 38.3404 7.40956 38.4286 7.22695C38.8643 6.33695 38.8643 6.33695 39.2167 6.13454C39.9748 6.0446 40.7731 6.59025 41.4396 6.92263C41.5674 6.98605 41.5674 6.98605 41.6977 7.05074C41.876 7.13942 42.0542 7.22829 42.2323 7.31736C42.5047 7.45333 42.7776 7.58808 43.0506 7.7228C43.2246 7.80952 43.3985 7.89631 43.5724 7.98318C43.6537 8.02313 43.7349 8.06308 43.8186 8.10424C44.5617 8.47861 44.5617 8.47861 44.8124 8.81228C45.0008 9.41948 44.6966 9.97868 44.425 10.5097C44.3711 10.6108 44.3172 10.712 44.2616 10.8162C44.2114 10.9137 44.1611 11.0112 44.1093 11.1117C43.8767 11.5613 43.6393 12.0083 43.4006 12.4547C42.5722 14.0097 41.7948 15.5906 41.0097 17.1677C40.7553 17.6788 40.5008 18.1897 40.2459 18.7005C40.146 18.9009 40.0464 19.1013 39.9467 19.3018C39.5801 20.0377 39.2044 20.7675 38.8122 21.4901C38.5743 21.9328 38.3824 22.3773 38.2268 22.8561C38.1566 23.0609 38.0697 23.2461 37.9687 23.4373C38.0366 23.4408 38.1045 23.4443 38.1745 23.4479C39.1805 23.5163 39.1805 23.5163 39.5624 23.8123C39.7786 24.3202 39.9198 24.8279 40.0391 25.3655C40.0652 25.4803 40.0652 25.4803 40.0919 25.5973C40.1487 25.8477 40.2048 26.0984 40.2608 26.349C40.3003 26.5246 40.3398 26.7002 40.3794 26.8757C40.4619 27.2428 40.5441 27.6099 40.6259 27.9771C40.7305 28.4462 40.8365 28.9149 40.9427 29.3836C41.0247 29.7458 41.1058 30.1082 41.1867 30.4706C41.2254 30.6435 41.2643 30.8162 41.3036 30.989C41.3586 31.231 41.4123 31.4733 41.4659 31.7156C41.4821 31.7859 41.4983 31.8562 41.515 31.9287C41.6401 32.5048 41.7362 33.102 41.5089 33.659C41.078 33.966 40.6206 33.9007 40.1059 33.8893C39.994 33.8886 39.8822 33.888 39.767 33.8873C39.4097 33.8847 39.0525 33.8788 38.6952 33.8728C38.453 33.8705 38.2108 33.8683 37.9687 33.8664C37.3749 33.8612 36.7811 33.8534 36.1874 33.8435C36.1883 34.0214 36.1883 34.0214 36.1893 34.2028C36.195 35.3201 36.1992 36.4374 36.202 37.5548C36.2034 38.1292 36.2054 38.7036 36.2086 39.2781C36.2117 39.8324 36.2134 40.3868 36.2141 40.9412C36.2146 41.1527 36.2156 41.3641 36.2171 41.5756C36.2192 41.8719 36.2195 42.1681 36.2193 42.4644C36.2209 42.5955 36.2209 42.5955 36.2224 42.7292C36.2201 43.2052 36.2004 43.5722 35.9062 43.9685C35.5077 44.165 35.1426 44.179 34.7032 44.1773C34.6112 44.1774 34.6112 44.1774 34.5173 44.1774C34.3164 44.1773 34.1156 44.1758 33.9147 44.1743C33.7747 44.174 33.6347 44.1737 33.4946 44.1735C33.1275 44.1728 32.7604 44.171 32.3933 44.1689C32.0181 44.167 31.6429 44.1661 31.2677 44.1652C30.5326 44.1632 29.7975 44.16 29.0624 44.156C29.0649 44.2558 29.0673 44.3556 29.0698 44.4584C29.0784 44.8297 29.0837 45.2009 29.0882 45.5722C29.0905 45.7327 29.0937 45.8932 29.0978 46.0537C29.1035 46.2848 29.1061 46.5158 29.1082 46.747C29.1106 46.8184 29.113 46.8898 29.1155 46.9633C29.1157 47.3171 29.0852 47.5015 28.8672 47.7844C28.524 48.0546 28.3468 48.0585 27.9134 48.0587C27.8459 48.0593 27.7784 48.06 27.7088 48.0607C27.4831 48.0623 27.2575 48.0606 27.0317 48.0589C26.8697 48.0594 26.7077 48.0601 26.5457 48.061C26.106 48.0627 25.6663 48.0615 25.2267 48.0597C24.7666 48.0581 24.3066 48.0589 23.8466 48.0594C23.0742 48.0598 22.3018 48.0584 21.5293 48.0557C20.636 48.0527 19.7427 48.0527 18.8493 48.0544C17.9902 48.0558 17.1311 48.0552 16.272 48.0536C15.9062 48.053 15.5405 48.0531 15.1747 48.0537C14.7442 48.0545 14.3137 48.0533 13.8831 48.0508C13.725 48.0501 13.5669 48.0501 13.4087 48.0508C13.1931 48.0516 12.9776 48.0501 12.762 48.048C12.6413 48.0478 12.5206 48.0475 12.3962 48.0472C12.0937 47.9998 12.0937 47.9998 11.8663 47.8326C11.635 47.507 11.688 47.1727 11.7077 46.7906C11.712 46.618 11.7158 46.4455 11.7193 46.2729C11.7214 46.182 11.7234 46.091 11.7256 45.9974C11.7603 43.9486 11.3794 42.3614 10.5811 40.4928C10.2431 39.6968 9.97654 38.8801 9.71475 38.0564C9.6915 37.9838 9.66824 37.9112 9.64428 37.8363C8.65923 34.7564 7.89471 31.631 7.36514 28.4412C7.35335 28.3702 7.34156 28.2992 7.32941 28.2261C7.15509 27.1674 7.01465 26.1233 7.00772 25.0486C7.00579 24.9718 7.00385 24.895 7.00186 24.8159C6.99901 24.3749 7.01526 24.0699 7.31241 23.7185C7.51749 23.5955 7.51749 23.5955 7.68741 23.531C7.65575 23.471 7.62408 23.4109 7.59146 23.349C7.54965 23.2679 7.50783 23.1868 7.46475 23.1033C7.42342 23.0239 7.38209 22.9445 7.33951 22.8627C6.92968 21.9499 6.86039 20.8499 7.17178 19.8924C7.50619 19.1061 8.02645 18.4079 8.71866 17.906C8.57008 17.3534 8.2859 16.9026 7.9921 16.4177C7.88107 16.2322 7.77011 16.0467 7.65921 15.8611C7.60185 15.7654 7.54449 15.6697 7.4854 15.5711C7.20757 15.1053 6.93476 14.6365 6.66202 14.1677C6.55179 13.9785 6.44156 13.7893 6.33133 13.6001C6.24923 13.4591 6.24923 13.4591 6.16548 13.3153C5.94626 12.9389 5.72679 12.5627 5.50724 12.1865C5.39875 12.0005 5.29037 11.8144 5.18209 11.6283C4.89687 11.1384 4.60972 10.6497 4.31973 10.1625C4.25967 10.061 4.19961 9.95959 4.13773 9.85506C4.02285 9.6611 3.9074 9.46748 3.79129 9.27425C3.33706 8.50503 3.05219 7.82543 3.22769 6.91604C3.4225 6.21616 3.84218 5.66459 4.47647 5.30251C5.07948 5.04125 5.72747 4.98062 6.35733 5.1736C7.53818 5.64762 8.02979 6.73223 8.63077 7.79275C8.72241 7.95299 8.81405 8.11324 8.90577 8.27344C8.96837 8.38281 9.03091 8.49221 9.09341 8.60164C9.42238 9.17759 9.75564 9.75101 10.0898 10.324C10.1429 10.4155 10.1961 10.507 10.2509 10.6013C10.5162 11.0564 10.7861 11.5062 11.0746 11.947C11.1562 12.0935 11.1562 12.0935 11.1562 12.281C11.282 12.2335 11.282 12.2335 11.4103 12.1851C12.0697 11.9418 12.7109 11.7388 13.4062 11.6248C13.2832 10.349 13.2832 10.349 12.6349 9.27956C11.8531 8.40475 11.6572 7.10018 11.6861 5.96865C11.7674 5.11016 11.997 4.30956 12.3573 3.52712C12.699 2.78321 12.8837 2.00196 13.0747 1.20777C13.113 1.05466 13.113 1.05466 13.152 0.898458C13.174 0.806658 13.1959 0.714857 13.2185 0.620275C13.4088 0.122817 13.6949 -0.0849927 14.2375 -0.052958ZM21.0647 2.34865C20.5895 2.89518 20.4138 3.49728 20.4374 4.21853C20.5269 4.89879 20.8965 5.28897 21.3595 5.77089C21.6302 6.07622 21.7783 6.37615 21.9374 6.74978C22.8179 6.67877 23.5415 6.6133 24.1698 5.94118C24.7526 5.2316 25.1869 4.57685 25.1073 3.63552C24.9915 2.93118 24.6153 2.416 24.0585 1.98025C23.0734 1.3315 21.8843 1.55724 21.0647 2.34865ZM32.8476 2.57204C32.7825 2.59361 32.7175 2.61519 32.6505 2.63741C32.3315 2.72697 32.3315 2.72697 32.0624 2.90603C32.041 3.05472 32.0254 3.20425 32.0122 3.3539C32.0041 3.44665 31.9959 3.53941 31.9875 3.63497C31.9794 3.7328 31.9712 3.83062 31.9628 3.93142C31.9543 4.02598 31.9458 4.12055 31.937 4.21798C31.886 4.81352 31.8637 5.40214 31.8749 5.99978C32.1317 6.14422 32.3899 6.28608 32.6483 6.42751C32.7577 6.48905 32.7577 6.48905 32.8692 6.55184C32.9399 6.59021 33.0106 6.62858 33.0834 6.66811C33.1806 6.72187 33.1806 6.72187 33.2798 6.77672C33.5129 6.85919 33.6158 6.84094 33.8437 6.74978C34.0435 6.58052 34.2306 6.41047 34.4179 6.22829C34.9257 5.74581 35.446 5.30465 35.9999 4.87478C35.8143 4.28696 35.6287 3.69915 35.4374 3.09353C35.1898 3.42368 35.003 3.73811 34.8105 4.10134C34.7804 4.15778 34.7504 4.21421 34.7195 4.27236C34.646 4.41052 34.5729 4.54888 34.4999 4.68728C34.0138 4.49983 33.5582 4.26641 33.0937 4.03103C33.3412 3.47415 33.5887 2.91728 33.8437 2.34353C33.4844 2.34353 33.1835 2.45744 32.8476 2.57204ZM14.5312 2.53103C14.3091 3.10609 14.0896 3.68207 13.8725 4.25904C13.7994 4.45166 13.724 4.64342 13.6479 4.83486C13.3025 5.75214 13.2671 6.72312 13.5874 7.65615C13.7632 8.04054 13.9977 8.38064 14.2499 8.71853C14.3891 8.67212 14.3891 8.67212 14.5312 8.62478C14.44 7.83402 14.3496 7.05464 14.1562 6.28103C14.223 6.27535 14.2898 6.26967 14.3587 6.26381C14.4485 6.25596 14.5383 6.2481 14.6308 6.24001C14.7189 6.2324 14.807 6.22478 14.8977 6.21694C15.2146 6.1845 15.5287 6.14032 15.8437 6.09353C15.855 6.19311 15.8664 6.29269 15.8781 6.39528C15.9558 7.05667 16.0317 7.70236 16.2187 8.34353C16.3115 8.29712 16.3115 8.29712 16.4062 8.24978C16.4827 6.29478 16.1766 4.47488 14.9062 2.90603C14.783 2.77919 14.6585 2.65364 14.5312 2.53103ZM5.18546 6.90212C4.9192 7.17558 4.89654 7.31027 4.87491 7.68728C4.97297 7.95722 4.97297 7.95722 5.13272 8.20876C5.18251 8.29396 5.2323 8.37916 5.2836 8.46694C5.33436 8.54996 5.38511 8.63299 5.43741 8.71853C5.4901 8.80638 5.54279 8.89424 5.59708 8.98476C5.6372 9.05159 5.67732 9.11842 5.71866 9.18728C5.79093 9.14776 5.86319 9.10824 5.93765 9.06753C6.03167 9.01616 6.12569 8.9648 6.22256 8.91189C6.3161 8.86077 6.40964 8.80965 6.50601 8.75698C6.64872 8.67962 6.79222 8.60362 6.93741 8.53103C6.88347 8.13545 6.74824 7.86936 6.53311 7.53493C6.4774 7.44671 6.42169 7.35849 6.36429 7.2676C6.19289 7.03836 6.05955 6.89223 5.81241 6.74978C5.44182 6.71744 5.44182 6.71744 5.18546 6.90212ZM31.3124 7.59353C31.1114 7.97519 30.9112 8.35723 30.7116 8.73965C30.6436 8.8697 30.5754 8.99965 30.507 9.12948C30.4087 9.31607 30.3112 9.50303 30.2138 9.69008C30.183 9.7481 30.1523 9.80612 30.1206 9.8659C29.9844 10.1291 29.9062 10.2925 29.9062 10.5935C30.0558 10.7219 30.0558 10.7219 30.2519 10.8279C30.316 10.8656 30.3802 10.9033 30.4463 10.9422C30.5502 11.0016 30.5502 11.0016 30.6562 11.0623C30.8108 11.1551 30.9655 11.2479 31.1249 11.3435C31.6199 10.3535 32.1149 9.36353 32.6249 8.34353C32.3481 8.06671 32.1628 7.96368 31.8105 7.81032C31.7173 7.76936 31.6241 7.72839 31.5281 7.68618C31.4569 7.6556 31.3857 7.62503 31.3124 7.59353ZM39.8437 8.15603C39.8108 8.22186 39.778 8.28769 39.7442 8.35552C39.4328 8.98027 39.1212 9.60492 38.8094 10.2295C38.6491 10.5505 38.4889 10.8715 38.3289 11.1926C38.1741 11.5033 38.0191 11.8139 37.8639 12.1244C37.8052 12.2421 37.7465 12.3598 37.6879 12.4775C37.6049 12.6442 37.5216 12.8107 37.4383 12.9773C37.3605 13.1332 37.3605 13.1332 37.2811 13.2923C37.0862 13.6683 36.873 14.0324 36.6529 14.3942C36.5079 14.7637 36.6255 15.038 36.7543 15.3989C36.9835 16.0582 36.9538 16.6437 36.7968 17.3142C36.7302 17.6174 36.7302 17.6174 36.7499 17.906C36.9321 18.1583 37.1231 18.3122 37.3743 18.4945C37.6581 18.7035 37.7949 18.9164 37.9687 19.2185C38.2828 18.8573 38.4389 18.4359 38.6249 17.9998C38.3465 17.8451 38.068 17.6904 37.7812 17.531C38.106 16.8349 38.106 16.8349 38.4374 16.1248C38.651 16.2224 38.8647 16.3201 39.0783 16.4177C39.2737 16.5115 39.2737 16.5115 39.4687 16.4998C39.5655 16.3187 39.6609 16.137 39.7558 15.9549C39.8091 15.8537 39.8624 15.7526 39.9173 15.6483C40.0658 15.376 40.0658 15.376 39.9374 15.0935C39.6837 14.9345 39.6837 14.9345 39.3808 14.7947C39.2794 14.745 39.178 14.6954 39.0735 14.6442C38.8312 14.5186 38.8312 14.5186 38.6249 14.531C38.8724 14.067 39.1199 13.6029 39.3749 13.1248C39.734 13.2445 40.0132 13.34 40.3358 13.5115C40.5917 13.6529 40.5917 13.6529 40.8749 13.6873C40.9717 13.5062 41.0672 13.3245 41.162 13.1424C41.2153 13.0412 41.2686 12.9401 41.3235 12.8358C41.472 12.5635 41.472 12.5635 41.3437 12.281C41.1693 12.1655 41.1693 12.1655 40.9628 12.0759C40.894 12.0437 40.8253 12.0114 40.7544 11.9782C40.7014 11.9544 40.6483 11.9306 40.5937 11.906C40.6343 11.8202 40.6749 11.7344 40.7167 11.646C40.7689 11.5346 40.8211 11.4232 40.8749 11.3084C40.9271 11.1974 40.9793 11.0865 41.0331 10.9722C41.1685 10.7103 41.1685 10.7103 41.1562 10.4998C41.2217 10.5268 41.2872 10.5539 41.3546 10.5818C41.4826 10.634 41.4826 10.634 41.6132 10.6873C41.698 10.7221 41.7829 10.7569 41.8703 10.7927C42.0833 10.8855 42.0833 10.8855 42.2812 10.8748C42.378 10.6937 42.4734 10.512 42.5683 10.3299C42.6216 10.2287 42.6749 10.1276 42.7298 10.0233C42.8783 9.75101 42.8783 9.75101 42.7499 9.46853C42.4944 9.30577 42.4944 9.30577 42.1764 9.15395C42.0902 9.11085 42.0902 9.11085 42.0023 9.06688C41.8807 9.00632 41.7588 8.94622 41.6368 8.88655C41.45 8.79511 41.264 8.70211 41.0782 8.60885C40.4881 8.28228 40.4881 8.28228 39.8437 8.15603ZM22.6757 8.34353C22.6139 8.36141 22.5522 8.3793 22.4886 8.39773C22.336 8.44194 22.1836 8.48645 22.0312 8.53103C22.0312 8.77853 22.0312 9.02603 22.0312 9.28103C22.0973 9.2542 22.1634 9.22737 22.2315 9.19973C22.501 9.09308 22.7722 8.99285 23.0448 8.89431C23.1363 8.86119 23.2278 8.82808 23.3221 8.79397C23.3911 8.76907 23.4601 8.74418 23.5312 8.71853C23.5312 8.5329 23.5312 8.34728 23.5312 8.15603C23.2339 8.15603 22.9589 8.26052 22.6757 8.34353ZM7.11319 10.2654C6.93143 10.3737 6.74967 10.482 6.56241 10.5935C6.80991 11.0267 7.05741 11.4598 7.31241 11.906C7.4787 11.8151 7.64499 11.7243 7.81631 11.6306C8.32022 11.3552 8.32022 11.3552 8.53116 11.2498C8.46863 10.9194 8.33395 10.6701 8.16202 10.3826C8.11283 10.299 8.06365 10.2153 8.01297 10.1292C7.96741 10.0658 7.92185 10.0025 7.87491 9.93728C7.57343 9.93728 7.36867 10.1132 7.11319 10.2654ZM15.5507 10.1131C15.3995 10.1359 15.3995 10.1359 15.2453 10.1592C15.1238 10.1886 15.1238 10.1886 14.9999 10.2185C14.8652 10.488 14.9331 10.6741 14.9823 10.9685C14.9984 11.0691 15.0145 11.1696 15.031 11.2732C15.0728 11.5427 15.0728 11.5427 15.2812 11.7185C15.3231 11.6495 15.365 11.5805 15.4082 11.5094C15.7082 11.0253 15.9918 10.6077 16.4062 10.2185C16.4062 10.1567 16.4062 10.0948 16.4062 10.031C16.1115 10.031 15.8417 10.0675 15.5507 10.1131ZM22.7017 10.9594C22.4801 11.243 22.3164 11.5227 22.1601 11.8474C22.0312 12.0935 22.0312 12.0935 21.8612 12.2224C21.567 12.3065 21.4011 12.3342 21.0937 12.281C20.8945 12.1339 20.7192 11.9716 20.5392 11.8017C19.9747 11.2911 19.438 11.0272 18.6693 11.0429C17.9609 11.1114 17.4416 11.4845 16.9687 11.9998C16.7821 12.3013 16.7821 12.3013 16.6874 12.5623C16.904 12.5623 17.1205 12.5623 17.3437 12.5623C17.3437 13.1192 17.3437 13.676 17.3437 14.2498C17.1271 14.2498 16.9105 14.2498 16.6874 14.2498C15.949 14.4784 15.4864 15.0108 15.0937 15.656C14.9653 15.9916 14.9653 15.9916 14.9999 16.5935C14.443 16.5935 13.8862 16.5935 13.3124 16.5935C13.5739 14.9555 13.5739 14.9555 14.0624 14.2498C14.0999 14.1919 14.1373 14.134 14.1759 14.0744C14.2609 13.9439 14.3488 13.8153 14.4374 13.6873C13.7409 13.3895 13.1493 13.3144 12.4291 13.5851C11.8153 13.8889 11.4358 14.3282 11.1433 14.9423C10.957 15.5063 10.9608 16.1747 11.2148 16.7166C11.3625 16.9724 11.5384 17.1834 11.7362 17.4021C11.9909 17.6866 12.1022 17.8859 12.0937 18.281C11.987 18.4992 11.8904 18.6718 11.7187 18.8435C11.5509 18.8617 11.3831 18.8794 11.2151 18.8945C10.3247 18.9783 9.76864 19.1543 9.15225 19.8279C8.76153 20.3192 8.58899 20.8452 8.64139 21.481C8.7535 22.131 9.04639 22.7077 9.56863 23.1223C9.98135 23.3868 10.3275 23.5426 10.8237 23.5433C10.9527 23.5439 10.9527 23.5439 11.0843 23.5444C11.1789 23.5444 11.2735 23.5443 11.371 23.5442C11.4714 23.5445 11.5718 23.5448 11.6752 23.545C12.0133 23.5459 12.3514 23.546 12.6896 23.5461C12.9313 23.5466 13.173 23.547 13.4148 23.5475C14.0728 23.5488 14.7308 23.5494 15.3888 23.5498C15.7997 23.5501 16.2106 23.5504 16.6215 23.5509C17.7592 23.552 18.897 23.553 20.0347 23.5533C20.1076 23.5533 20.1804 23.5533 20.2554 23.5534C20.3649 23.5534 20.3649 23.5534 20.4767 23.5534C20.6246 23.5535 20.7725 23.5535 20.9205 23.5535C20.9938 23.5536 21.0672 23.5536 21.1428 23.5536C22.3314 23.554 23.5201 23.5556 24.7087 23.5578C25.9291 23.56 27.1495 23.5612 28.3699 23.5613C29.0551 23.5614 29.7403 23.5619 30.4255 23.5636C31.0701 23.5652 31.7147 23.5654 32.3593 23.5646C32.5958 23.5645 32.8324 23.5649 33.069 23.5658C33.392 23.567 33.715 23.5665 34.0381 23.5655C34.1316 23.5662 34.2252 23.567 34.3216 23.5678C35.0455 23.5626 35.6863 23.4407 36.2453 22.9352C36.6556 22.4472 36.9256 21.8248 36.9374 21.1873C36.8363 20.4184 36.4985 19.8348 35.901 19.3511C35.6495 19.1682 35.3878 19.0066 35.1188 18.8509C34.9687 18.7498 34.9687 18.7498 34.8749 18.5623C34.8309 18.1923 34.8788 17.9663 35.0565 17.6482C35.3598 17.0797 35.4236 16.4996 35.244 15.8787C34.9398 15.11 34.5305 14.6793 33.7843 14.3259C33.5424 14.2295 33.5424 14.2295 33.1874 14.2498C33.2144 14.3148 33.2413 14.3798 33.2691 14.4468C33.3809 14.7338 33.4764 15.0222 33.5683 15.3162C33.6003 15.4175 33.6323 15.5187 33.6653 15.6231C33.7499 15.9373 33.7499 15.9373 33.8437 16.5935C33.2868 16.5935 32.7299 16.5935 32.1562 16.5935C32.1484 16.4678 32.1407 16.3422 32.1327 16.2127C32.0613 15.597 31.8319 15.205 31.3769 14.7888C30.7127 14.2648 30.0801 14.1535 29.2499 14.2498C28.6193 14.4197 28.2137 14.8546 27.8437 15.3748C27.6057 15.811 27.5262 16.1885 27.4976 16.6767C27.4647 16.9019 27.3998 17.0561 27.2812 17.2498C27.0426 17.369 26.8436 17.3448 26.5819 17.3374C25.6428 17.3116 24.8965 17.4293 24.1874 18.0935C23.7624 18.5954 23.6553 19.0381 23.6249 19.6873C23.068 19.6873 22.5112 19.6873 21.9374 19.6873C22.1848 18.3594 22.539 17.2511 23.6711 16.4225C24.1719 16.1081 24.662 15.8633 25.2633 15.8311C25.5325 15.8065 25.7258 15.7768 25.9687 15.656C26.1307 15.3887 26.2243 15.1237 26.3261 14.8284C26.6594 13.9381 27.3919 13.3544 28.2216 12.9347C28.7297 12.7254 29.2721 12.6467 29.8124 12.5623C29.4397 12.1576 29.1637 11.9292 28.6061 11.8844C28.5131 11.8857 28.42 11.8871 28.3241 11.8884C28.2255 11.8897 28.1269 11.8909 28.0253 11.8921C27.7337 11.9011 27.7337 11.9011 27.3866 11.9705C27.0068 12.0085 26.8438 11.9339 26.5312 11.7185C26.4042 11.5323 26.2795 11.3446 26.1562 11.156C25.6276 10.6196 25.1782 10.2888 24.4042 10.2713C23.7281 10.2854 23.1797 10.4672 22.7017 10.9594ZM8.70694 12.9842C8.55286 13.0755 8.55286 13.0755 8.39566 13.1687C8.31663 13.2161 8.23759 13.2635 8.15616 13.3123C8.20728 13.406 8.20728 13.406 8.25943 13.5016C8.60001 14.126 8.94058 14.7504 9.28116 15.3748C9.57789 14.8079 9.95171 14.0496 9.93741 13.406C9.81071 13.1332 9.66518 12.8844 9.46866 12.656C9.16718 12.656 8.96242 12.832 8.70694 12.9842ZM8.71866 25.2185C8.71846 26.1234 8.71846 26.1234 8.82193 26.9965C8.83835 27.096 8.83835 27.096 8.8551 27.1975C8.8907 27.411 8.92763 27.6244 8.96475 27.8377C8.97735 27.9115 8.98995 27.9854 9.00293 28.0615C9.24274 29.4667 9.52116 30.861 9.84366 32.2498C9.86537 32.3438 9.88707 32.4379 9.90944 32.5348C10.433 34.7772 11.1232 36.9681 11.8651 39.1463C11.8913 39.2235 11.9174 39.3008 11.9443 39.3804C12.2897 40.4115 12.2897 40.4115 12.71 41.4135C13.5094 43.1602 13.2541 44.1889 13.3124 46.406C17.953 46.406 22.5937 46.406 27.3749 46.406C27.4058 45.3542 27.4368 44.3023 27.4687 43.2185C27.6562 42.7498 27.6562 42.7498 27.9374 42.5623C28.2204 42.5362 28.2204 42.5362 28.5718 42.5324C28.6678 42.531 28.6678 42.531 28.7658 42.5295C28.9774 42.5266 29.1889 42.525 29.4004 42.5235C29.5472 42.5217 29.6939 42.5199 29.8406 42.518C30.2267 42.5131 30.6128 42.5094 30.9988 42.5059C31.3929 42.5022 31.7869 42.4974 32.1809 42.4927C32.9539 42.4836 33.7269 42.4757 34.4999 42.4685C34.501 42.2883 34.501 42.2883 34.5022 42.1045C34.5095 40.9733 34.5177 39.8421 34.5269 38.7109C34.5315 38.1293 34.5359 37.5477 34.5395 36.9662C34.5429 36.4051 34.5473 35.844 34.5522 35.283C34.554 35.0687 34.5554 34.8545 34.5565 34.6402C34.5581 34.3406 34.5608 34.0409 34.5638 33.7413C34.5641 33.6078 34.5641 33.6078 34.5644 33.4717C34.5654 33.39 34.5665 33.3082 34.5676 33.224C34.5681 33.1531 34.5686 33.0822 34.5691 33.0092C34.5974 32.782 34.6609 32.6314 34.7812 32.4373C35.0122 32.3218 35.1704 32.3287 35.4288 32.3243C35.5724 32.3215 35.5724 32.3215 35.7189 32.3186C35.8743 32.3163 35.8743 32.3163 36.0329 32.3139C36.1387 32.3119 36.2446 32.31 36.3537 32.308C36.6928 32.3018 37.0319 32.2963 37.371 32.2908C37.6005 32.2867 37.83 32.2827 38.0595 32.2785C38.6229 32.2685 39.1864 32.2589 39.7499 32.2498C39.687 31.5055 39.5302 30.7922 39.3632 30.0653C39.3341 29.9371 39.305 29.8089 39.276 29.6807C39.2 29.3455 39.1234 29.0105 39.0468 28.6755C38.9688 28.3342 38.8914 27.9928 38.8139 27.6515C38.7006 27.153 38.5872 26.6546 38.4733 26.1563C38.4505 26.0564 38.4276 25.9565 38.4041 25.8536C38.3548 25.6414 38.3027 25.4299 38.2499 25.2185C28.5046 25.2185 18.7593 25.2185 8.71866 25.2185Z" fill="#F4F4F4"/>
</g>
<defs>
<clipPath id="clip0_72_228">
<rect width="48" height="48" fill="white"/>
</clipPath>
</defs>
</svg>
