<svg width="48" height="48" viewBox="0 0 48 48" fill="none" xmlns="http://www.w3.org/2000/svg">
<g clip-path="url(#clip0_72_203)">
<path d="M15.0691 -0.0486787C15.2856 -0.0491874 15.502 -0.0498554 15.7185 -0.05067C16.3042 -0.0523745 16.89 -0.0517187 17.4757 -0.0505278C18.0898 -0.0495759 18.7039 -0.0504596 19.318 -0.0510476C20.4151 -0.0518476 21.5122 -0.0506102 22.6093 -0.0487004C23.6024 -0.0470252 24.5954 -0.0473162 25.5884 -0.0490449C26.744 -0.0510555 27.8995 -0.0517967 29.055 -0.0506903C29.6658 -0.0501068 30.2766 -0.0500246 30.8874 -0.0512665C31.4618 -0.0523528 32.0361 -0.0515927 32.6105 -0.0494312C32.8208 -0.0489369 33.0311 -0.0490749 33.2414 -0.0499047C34.6824 -0.0550641 35.8414 -0.0151984 36.9374 1.03109C37.953 2.09498 38.0231 3.2127 38.0053 4.60641C38.0046 4.76889 38.0041 4.93136 38.0037 5.09383C38.0023 5.51815 37.9986 5.94241 37.9944 6.3667C37.9906 6.80099 37.9889 7.23528 37.987 7.66958C37.983 8.51927 37.9766 9.36893 37.9687 10.2186C38.1217 10.2392 38.1217 10.2392 38.2779 10.2603C38.8572 10.3472 39.4012 10.548 39.955 10.7342C40.0486 10.7655 40.0486 10.7655 40.1442 10.7975C41.2323 11.1633 42.2871 11.5752 43.3124 12.0936C43.3792 12.1273 43.4461 12.1609 43.5149 12.1956C45.1308 13.024 46.7855 14.1893 47.6249 15.8436C47.6563 15.9024 47.6876 15.9611 47.7199 16.0217C48.1487 16.9767 48.0524 18.0257 48.0484 19.0496C48.049 19.2707 48.0496 19.4917 48.0504 19.7128C48.0521 20.3111 48.0515 20.9094 48.0503 21.5078C48.0497 21.8819 48.0497 22.2561 48.0501 22.6303C48.0502 22.6925 48.0502 22.7548 48.0503 22.819C48.0504 22.9455 48.0505 23.072 48.0506 23.1985C48.0517 24.3828 48.0505 25.567 48.0485 26.7513C48.0468 27.7656 48.0471 28.78 48.0488 29.7944C48.0508 30.9746 48.0516 32.1548 48.0504 33.335C48.0503 33.4611 48.0502 33.5871 48.0501 33.7132C48.05 33.7752 48.05 33.8372 48.0499 33.9011C48.0496 34.3363 48.0502 34.7716 48.051 35.2068C48.0521 35.7935 48.0514 36.3801 48.0492 36.9668C48.0487 37.1817 48.0488 37.3965 48.0497 37.6113C48.057 39.697 48.057 39.697 47.6249 40.4998C47.5813 40.5828 47.5377 40.6657 47.4927 40.7512C46.3906 42.7618 43.8728 44.3394 41.7187 44.9998C41.1516 45.0904 40.7041 45.046 40.2187 44.7186C39.8251 44.3787 39.5952 44.0815 39.5379 43.5565C39.5374 43.4781 39.5368 43.3997 39.5363 43.319C39.5347 43.1831 39.5347 43.1831 39.5331 43.0445C39.5329 42.9463 39.5327 42.848 39.5325 42.7468C39.5316 42.6425 39.5306 42.5382 39.5297 42.4307C39.5268 42.0863 39.5252 41.7419 39.5236 41.3974C39.5218 41.1585 39.52 40.9195 39.5181 40.6806C39.5138 40.1162 39.5103 39.5517 39.5072 38.9873C39.5036 38.3445 39.4989 37.7018 39.4942 37.059C39.4845 35.7372 39.4762 34.4154 39.4687 33.0936C38.9737 32.9389 38.4787 32.7842 37.9687 32.6248C37.9695 32.7788 37.9703 32.9327 37.9712 33.0913C37.9788 34.5437 37.9844 35.9961 37.9881 37.4486C37.99 38.1953 37.9927 38.9419 37.997 39.6886C38.0007 40.3397 38.0031 40.9909 38.004 41.6421C38.0044 41.9865 38.0056 42.3309 38.0083 42.6754C38.0114 43.0609 38.0114 43.4464 38.0112 43.8319C38.0126 43.9448 38.0139 44.0577 38.0153 44.174C38.0099 45.2835 37.7094 46.16 36.9374 46.9686C35.7574 48.095 34.4692 48.0544 32.9307 48.0484C32.7142 48.0489 32.4978 48.0495 32.2813 48.0504C31.6956 48.0521 31.1099 48.0514 30.5241 48.0502C29.91 48.0493 29.2959 48.0501 28.6818 48.0507C27.5847 48.0515 26.4876 48.0503 25.3905 48.0484C24.3975 48.0467 23.4044 48.047 22.4114 48.0487C21.2559 48.0507 20.1004 48.0515 18.9449 48.0504C18.334 48.0498 17.7232 48.0497 17.1124 48.051C16.538 48.052 15.9637 48.0513 15.3893 48.0491C15.179 48.0486 14.9687 48.0488 14.7584 48.0496C13.3174 48.0548 12.1584 48.0149 11.0624 46.9686C10.1843 46.0487 9.97375 45.0746 9.98859 43.8319C9.98854 43.7102 9.98849 43.5884 9.98843 43.4629C9.98832 43.1324 9.99051 42.8018 9.99314 42.4712C9.9955 42.1245 9.99571 41.7778 9.99615 41.4311C9.99731 40.776 10.0004 40.121 10.0042 39.466C10.0084 38.7196 10.0104 37.9732 10.0123 37.2268C10.0162 35.6928 10.0229 34.1588 10.0312 32.6248C9.53617 32.7795 9.04117 32.9342 8.53117 33.0936C8.52984 33.3261 8.52851 33.5586 8.52714 33.7982C8.52427 34.0238 8.5206 34.2493 8.51686 34.4749C8.51469 34.6315 8.51334 34.7881 8.51283 34.9447C8.51196 35.17 8.50812 35.3951 8.5037 35.6204C8.50407 35.6903 8.50444 35.7601 8.50482 35.8321C8.49481 36.189 8.4665 36.3442 8.21684 36.6069C7.91464 36.781 7.74979 36.801 7.40617 36.7498C7.11217 36.583 7.04607 36.5133 6.93742 36.1873C6.92849 36.0312 6.92492 35.8747 6.92448 35.7183C6.92396 35.6214 6.92345 35.5245 6.92293 35.4247C6.92283 35.3185 6.92273 35.2123 6.92263 35.1028C6.92215 34.9909 6.92168 34.879 6.92119 34.7637C6.91992 34.4567 6.91904 34.1497 6.91824 33.8427C6.91724 33.5214 6.9155 33.2002 6.91376 32.8789C6.90795 31.7845 6.90289 30.6901 6.89979 29.5956C6.89807 28.9911 6.89536 28.3867 6.89154 27.7822C6.88956 27.4624 6.88811 27.1425 6.8879 26.8227C6.88744 26.466 6.88528 26.1094 6.88271 25.7527C6.883 25.6467 6.88328 25.5407 6.88357 25.4314C6.88253 25.3343 6.88149 25.2371 6.88042 25.1371C6.87995 25.0106 6.87995 25.0106 6.87948 24.8815C6.83643 24.6105 6.74531 24.4825 6.56242 24.2811C6.39941 24.1767 6.39941 24.1767 6.21525 24.1068C6.14726 24.078 6.07926 24.0493 6.00921 24.0197C5.93653 23.99 5.86386 23.9602 5.78898 23.9295C5.63526 23.8635 5.4817 23.7971 5.32829 23.7303C5.21331 23.6803 5.21331 23.6803 5.09602 23.6292C3.75192 23.0326 2.53811 22.2325 1.49992 21.1873C1.49553 23.4447 1.49223 25.7021 1.4902 27.9595C1.48924 29.0077 1.48792 30.0558 1.48577 31.104C1.4839 32.0178 1.48269 32.9316 1.48228 33.8454C1.48203 34.329 1.48146 34.8127 1.48009 35.2964C1.47882 35.7521 1.47843 36.2077 1.47871 36.6634C1.47866 36.8302 1.47829 36.997 1.47756 37.1639C1.47221 38.4647 1.47149 39.6365 2.39091 40.6562C2.49916 40.7614 2.60876 40.8652 2.71867 40.9686C2.71867 41.0305 2.71867 41.0923 2.71867 41.1561C2.77124 41.1795 2.82381 41.203 2.87797 41.2271C3.12765 41.3619 3.32516 41.527 3.54484 41.7069C4.10942 42.137 4.70919 42.4687 5.33781 42.7967C5.43223 42.8463 5.52665 42.8958 5.62393 42.9468C6.03279 43.1563 6.38675 43.3329 6.84367 43.4061C6.84449 43.3266 6.84449 43.3266 6.84533 43.2455C6.85133 42.6934 6.85925 42.1414 6.86827 41.5893C6.87139 41.3834 6.87402 41.1774 6.87614 40.9715C6.87929 40.6752 6.8842 40.379 6.88944 40.0827C6.89004 39.9908 6.89064 39.8989 6.89126 39.8042C6.90865 38.9952 6.90865 38.9952 7.21867 38.6248C7.48616 38.4911 7.67191 38.502 7.96867 38.5311C8.21803 38.6531 8.21803 38.6531 8.43742 38.9061C8.50873 39.2643 8.5008 39.6186 8.49638 39.9828C8.4966 40.0886 8.49683 40.1945 8.49706 40.3036C8.49697 40.5278 8.49571 40.7519 8.49338 40.976C8.49018 41.3176 8.49144 41.659 8.49326 42.0006C8.49262 42.2186 8.49171 42.4366 8.49052 42.6546C8.49121 42.807 8.49121 42.807 8.49193 42.9625C8.48277 43.5564 8.42252 44.0426 8.06242 44.5311C7.5941 44.9038 7.17815 45.057 6.58585 45.0493C4.98806 44.79 3.25889 43.6029 2.06242 42.5623C1.96507 42.4851 1.96507 42.4851 1.86576 42.4063C0.965646 41.6745 0.244695 40.6137 -8.36365e-05 39.4686C-0.0085241 39.3369 -0.0125032 39.2049 -0.0129282 39.073C-0.0134039 38.9943 -0.01388 38.9156 -0.0143702 38.8345C-0.0144168 38.7485 -0.0144637 38.6625 -0.0145118 38.574C-0.0149226 38.4822 -0.015333 38.3905 -0.0157563 38.296C-0.0170111 37.9878 -0.0175911 37.6796 -0.0181653 37.3713C-0.0189061 37.1507 -0.0196813 36.93 -0.0204884 36.7093C-0.0227344 36.0464 -0.024159 35.3834 -0.0253694 34.7204C-0.0258337 34.4705 -0.0263437 34.2206 -0.0268514 33.9707C-0.0290741 32.8683 -0.030966 31.7658 -0.0320699 30.6634C-0.0323445 30.3936 -0.0326227 30.1239 -0.0329053 29.8542C-0.0329752 29.7871 -0.0330449 29.7201 -0.033117 29.651C-0.0343019 28.5664 -0.0374146 27.4818 -0.0413238 26.3972C-0.0453088 25.2823 -0.0475111 24.1675 -0.048 23.0527C-0.0483192 22.4273 -0.0494654 21.8019 -0.0525104 21.1765C-0.0553366 20.5876 -0.0559197 19.9987 -0.0548179 19.4098C-0.0547972 19.1943 -0.0555713 18.9788 -0.0572226 18.7633C-0.07128 16.822 0.286225 15.5898 1.65812 14.1444C3.55672 12.3151 7.36804 10.2186 10.0312 10.2186C10.0303 10.1293 10.0295 10.04 10.0286 9.94792C10.021 9.10253 10.0154 8.25715 10.0117 7.41173C10.0098 6.97718 10.0071 6.54266 10.0029 6.10813C9.99878 5.68809 9.99655 5.26808 9.99559 4.84802C9.9949 4.68847 9.99356 4.52891 9.99152 4.36937C9.97545 3.05811 10.1166 2.02184 11.0624 1.03109C12.2424 -0.0953538 13.5307 -0.0547484 15.0691 -0.0486787ZM12.0234 2.23227C11.6311 2.78803 11.4889 3.23984 11.4952 3.91555C11.4948 3.9863 11.4943 4.05706 11.4938 4.12996C11.4926 4.36672 11.4934 4.60343 11.4942 4.8402C11.4937 5.01179 11.4932 5.18339 11.4925 5.35498C11.4909 5.82628 11.4911 6.29757 11.4917 6.76887C11.4919 7.27726 11.4905 7.78564 11.4894 8.29402C11.4874 9.28993 11.487 10.2858 11.4872 11.2818C11.4873 12.0912 11.4869 12.9007 11.4862 13.7102C11.486 13.9433 11.4858 14.1764 11.4856 14.4095C11.4855 14.5255 11.4854 14.6415 11.4853 14.761C11.4836 16.893 11.4836 19.0251 11.4843 21.1571C11.4848 23.1026 11.4834 25.0481 11.4804 26.9935C11.477 29.1798 11.4752 31.3661 11.4756 33.5523C11.4758 34.7097 11.4753 35.8671 11.473 37.0245C11.471 38.0099 11.4707 38.9952 11.4725 39.9806C11.4733 40.4833 11.4734 40.986 11.4715 41.4887C11.4698 41.9491 11.4702 42.4094 11.4723 42.8698C11.4727 43.0362 11.4723 43.2025 11.471 43.3689C11.4643 44.3075 11.4686 45.163 12.1352 45.8992C12.8736 46.5632 13.6885 46.6079 14.6303 46.6061C14.7137 46.6063 14.7971 46.6066 14.8831 46.6068C15.1615 46.6074 15.4399 46.6073 15.7184 46.6072C15.9185 46.6075 16.1185 46.6078 16.3186 46.6082C16.8614 46.609 17.4041 46.6092 17.9468 46.6093C18.2861 46.6093 18.6253 46.6095 18.9645 46.6098C20.1484 46.6107 21.3323 46.611 22.5162 46.611C23.6191 46.6109 24.722 46.6119 25.825 46.6134C26.7725 46.6146 27.7201 46.6151 28.6676 46.615C29.2333 46.615 29.7989 46.6153 30.3646 46.6163C30.8966 46.6172 31.4286 46.6172 31.9607 46.6165C32.1556 46.6164 32.3506 46.6166 32.5456 46.6172C32.8123 46.6179 33.079 46.6175 33.3457 46.6168C33.4223 46.6173 33.499 46.6177 33.5779 46.6182C34.3696 46.6135 35.0614 46.4861 35.7187 46.0311C36.2909 45.4459 36.5121 44.8901 36.5046 44.0841C36.505 44.0134 36.5055 43.9426 36.506 43.8697C36.5072 43.633 36.5064 43.3963 36.5056 43.1595C36.5061 42.9879 36.5067 42.8163 36.5074 42.6447C36.5089 42.1734 36.5087 41.7021 36.5082 41.2308C36.5079 40.7224 36.5093 40.2141 36.5104 39.7057C36.5124 38.7098 36.5128 37.7138 36.5127 36.7179C36.5126 35.9085 36.5129 35.099 36.5136 34.2895C36.5138 34.0564 36.514 33.8233 36.5142 33.5902C36.5143 33.4742 36.5144 33.3582 36.5145 33.2387C36.5162 31.1066 36.5162 28.9746 36.5156 26.8426C36.515 24.8971 36.5165 22.9516 36.5195 21.0061C36.5229 18.8199 36.5247 16.6336 36.5242 14.4474C36.524 13.29 36.5245 12.1326 36.5268 10.9752C36.5288 9.98983 36.5291 9.00449 36.5274 8.01913C36.5265 7.51641 36.5264 7.01373 36.5283 6.51102C36.5301 6.05063 36.5297 5.59029 36.5275 5.1299C36.5271 4.96354 36.5275 4.79717 36.5288 4.63082C36.5356 3.6711 36.5266 2.81003 35.8308 2.06992C35.1235 1.41055 34.2927 1.39182 33.3695 1.39356C33.2861 1.39335 33.2027 1.39313 33.1167 1.39292C32.8383 1.39232 32.5599 1.3924 32.2815 1.39248C32.0814 1.3922 31.8813 1.39188 31.6812 1.39152C31.1385 1.39069 30.5957 1.39047 30.053 1.39041C29.7138 1.39035 29.3745 1.39015 29.0353 1.3899C27.8514 1.38903 26.6675 1.38865 25.4837 1.38872C24.3807 1.38878 23.2778 1.38779 22.1749 1.38631C21.2273 1.38508 20.2798 1.38458 19.3322 1.38464C18.7666 1.38466 18.2009 1.3844 17.6353 1.3834C17.1032 1.3825 16.5712 1.38249 16.0392 1.38317C15.8442 1.38327 15.6492 1.38305 15.4543 1.38248C15.1875 1.38176 14.9208 1.38219 14.6541 1.38292C14.5392 1.38219 14.5392 1.38219 14.4219 1.38145C13.494 1.38697 12.6911 1.54932 12.0234 2.23227ZM37.9687 11.7186C37.9687 18.0917 37.9687 24.4648 37.9687 31.0311C38.7576 31.2631 38.7576 31.2631 39.5624 31.4998C39.574 31.3355 39.5856 31.1711 39.5976 31.0018C39.6231 30.6402 39.6384 30.4953 39.8437 30.1873C40.1842 30.0814 40.3435 30.0644 40.6698 30.2166C40.8749 30.3748 40.8749 30.3748 40.9687 30.5623C40.9785 30.7322 40.9824 30.9024 40.9835 31.0725C40.9844 31.1808 40.9853 31.2891 40.9863 31.4008C40.9871 31.5799 40.9871 31.5799 40.9879 31.7626C40.9888 31.8892 40.9897 32.0158 40.9907 32.1423C40.9933 32.4865 40.9952 32.8307 40.9971 33.1749C40.9991 33.5344 41.0017 33.8938 41.0042 34.2533C41.0089 34.9343 41.0131 35.6153 41.0172 36.2962C41.0218 37.0714 41.0269 37.8465 41.0321 38.6217C41.0428 40.2165 41.0528 41.8113 41.0624 43.4061C41.397 43.5032 41.5303 43.4887 41.8446 43.3303C41.9223 43.2915 42 43.2528 42.08 43.2128C42.2028 43.149 42.2028 43.149 42.328 43.0838C42.4121 43.0408 42.4962 42.9978 42.5829 42.9535C43.2346 42.6149 43.844 42.2464 44.4374 41.8123C44.5119 41.7609 44.5863 41.7094 44.663 41.6563C45.5574 41.01 46.3609 40.1006 46.5499 38.9862C46.5948 38.6155 46.6065 38.253 46.6049 37.8804C46.605 37.8082 46.6051 37.7361 46.6052 37.6617C46.6053 37.4215 46.6048 37.1813 46.6043 36.941C46.6043 36.7682 46.6043 36.5954 46.6044 36.4226C46.6044 35.9545 46.6038 35.4864 46.6032 35.0182C46.6026 34.5286 46.6025 34.039 46.6024 33.5494C46.6021 32.6228 46.6014 31.6961 46.6004 30.7695C46.5994 29.7143 46.5989 28.6591 46.5984 27.604C46.5974 25.4338 46.5958 23.2637 46.5937 21.0936C46.5497 21.1314 46.5058 21.1692 46.4605 21.2082C46.4023 21.2582 46.344 21.3082 46.284 21.3598C46.2266 21.4092 46.1691 21.4586 46.1099 21.5095C44.7558 22.6604 43.1964 23.4816 41.5596 24.1605C41.3047 24.3029 41.1983 24.3968 41.0624 24.6561C41.0353 24.8968 41.0233 25.1158 41.0243 25.3563C41.0233 25.4235 41.0223 25.4908 41.0213 25.5601C41.018 25.7744 41.0166 25.9886 41.0155 26.203C41.0142 26.4852 41.011 26.7674 41.0068 27.0496C41.007 27.1142 41.0073 27.1788 41.0076 27.2453C41.0017 27.6253 40.9633 27.8544 40.6874 28.1248C40.5058 28.1714 40.5058 28.1714 40.3124 28.1659C40.2167 28.1657 40.2167 28.1657 40.1191 28.1655C39.8703 28.1098 39.8052 28.0532 39.6562 27.8436C39.627 27.5843 39.6145 27.3465 39.6155 27.087C39.615 27.0124 39.6145 26.9378 39.614 26.861C39.6134 26.7029 39.6136 26.5448 39.6143 26.3867C39.6151 26.1472 39.6125 25.9078 39.6095 25.6683C39.6016 24.0241 39.6016 24.0241 40.1705 23.3712C40.5815 22.9806 41.0659 22.773 41.5839 22.5584C43.3842 21.7774 45.3356 20.7246 46.3124 18.9373C46.5792 18.258 46.6311 17.5596 46.4036 16.8598C45.654 15.2506 44.1799 14.2993 42.6562 13.4998C42.5945 13.467 42.5329 13.4342 42.4694 13.4003C40.309 12.2525 40.309 12.2525 37.9687 11.7186ZM3.37492 14.7186C3.32609 14.7584 3.27727 14.7983 3.22697 14.8393C2.4153 15.5106 1.59085 16.3398 1.46842 17.4388C1.45346 18.6779 1.9086 19.4228 2.76005 20.2975C3.882 21.3655 5.2555 22.0274 6.64848 22.6698C7.36497 23.0048 7.9522 23.2967 8.254 24.0597C8.35358 24.4097 8.37243 24.7322 8.37356 25.0928C8.3745 25.1623 8.37544 25.2319 8.37641 25.3036C8.37929 25.5319 8.3809 25.7601 8.38248 25.9884C8.38424 26.1473 8.38608 26.3062 8.38799 26.4652C8.39279 26.8822 8.39651 27.2993 8.4 27.7163C8.40376 28.1424 8.40855 28.5685 8.41325 28.9946C8.42231 29.8297 8.43013 30.6648 8.43742 31.4998C8.96335 31.3452 9.48929 31.1905 10.0312 31.0311C10.0312 24.658 10.0312 18.2848 10.0312 11.7186C8.01045 11.7186 4.84474 13.5085 3.37492 14.7186Z" fill="#F4F4F4"/>
<path d="M14.7017 2.98338C14.7934 2.98217 14.8851 2.98097 14.9796 2.97973C15.1282 2.97869 15.1282 2.97869 15.2797 2.97763C15.3818 2.97687 15.4839 2.97612 15.5891 2.97534C15.8053 2.97404 16.0215 2.97303 16.2378 2.9723C16.5676 2.97068 16.8974 2.96657 17.2272 2.96243C17.4374 2.96148 17.6476 2.96068 17.8578 2.96005C17.9561 2.95841 18.0543 2.95677 18.1556 2.95508C18.7506 2.95683 19.112 3.01666 19.5937 3.37497C19.7512 3.54365 19.7512 3.54365 19.8562 3.71262C19.8956 3.77401 19.9349 3.8354 19.9754 3.89865C20.0138 3.96173 20.0522 4.02482 20.0917 4.08981C20.3728 4.55401 20.3728 4.55401 20.7187 4.96872C20.9992 5.00151 20.9992 5.00151 21.3334 5.00191C21.4281 5.00376 21.4281 5.00376 21.5247 5.00564C21.7341 5.00934 21.9434 5.01153 22.1527 5.0134C22.2243 5.01416 22.2958 5.01493 22.3695 5.01571C22.7482 5.01962 23.127 5.02231 23.5057 5.02406C23.8965 5.02614 24.287 5.03258 24.6777 5.04003C24.9785 5.04494 25.2793 5.04651 25.5801 5.04718C25.7241 5.04809 25.8681 5.05027 26.0121 5.05375C26.7965 5.09858 26.7965 5.09858 27.4915 4.80578C27.6365 4.61536 27.7419 4.43465 27.8437 4.21872C27.9026 4.13014 27.9616 4.04155 28.0224 3.95029C28.1225 3.79635 28.2221 3.64205 28.3212 3.4874C28.5933 3.17348 28.872 3.02193 29.2901 2.9737C29.5681 2.96277 29.8447 2.961 30.123 2.96262C30.2249 2.96235 30.3268 2.96208 30.4318 2.9618C30.6467 2.96161 30.8617 2.96213 31.0767 2.9633C31.405 2.96481 31.7333 2.96332 32.0617 2.96152C32.2709 2.9617 32.4801 2.96206 32.6894 2.96262C32.7872 2.96205 32.8851 2.96148 32.9859 2.96089C33.5861 2.96667 34.0275 3.01844 34.4871 3.44235C34.5319 3.49746 34.5768 3.55257 34.623 3.60934C34.669 3.66445 34.715 3.71956 34.7625 3.77634C35.0061 4.12552 34.9806 4.45771 34.981 4.86962C34.9812 4.93657 34.9814 5.00352 34.9816 5.0725C34.9821 5.29857 34.982 5.52463 34.9818 5.7507C34.9821 5.91373 34.9824 6.07676 34.9827 6.23979C34.9834 6.68914 34.9836 7.13849 34.9837 7.58785C34.9838 8.07195 34.9845 8.55604 34.9852 9.04014C34.9865 10.0993 34.987 11.1584 34.9874 12.2175C34.9877 12.8785 34.9881 13.5395 34.9885 14.2005C34.9896 16.0295 34.9906 17.8586 34.9909 19.6876C34.991 19.8633 34.991 19.8633 34.991 20.0425C34.991 20.1599 34.991 20.2773 34.9911 20.3982C34.9911 20.6362 34.9911 20.8741 34.9912 21.112C34.9912 21.289 34.9912 21.289 34.9912 21.4696C34.9916 23.3825 34.9933 25.2953 34.9954 27.2082C34.9977 29.1709 34.9988 31.1335 34.9989 33.0961C34.999 34.1986 34.9996 35.3011 35.0013 36.4035C35.0027 37.3422 35.0032 38.2808 35.0024 39.2195C35.002 39.6986 35.0021 40.1777 35.0034 40.6568C35.0046 41.0952 35.0045 41.5336 35.0034 41.972C35.0032 42.1308 35.0035 42.2896 35.0043 42.4484C35.0054 42.6639 35.0047 42.8794 35.0035 43.0949C35.0036 43.2147 35.0036 43.3346 35.0037 43.458C34.9486 43.9667 34.7548 44.3325 34.3593 44.6543C34.3042 44.7003 34.2491 44.7464 34.1923 44.7938C33.8181 45.0549 33.4157 45.0136 32.9796 45.0131C32.8604 45.0136 32.8604 45.0136 32.7388 45.014C32.4715 45.0148 32.2042 45.0149 31.9369 45.0151C31.7456 45.0155 31.5544 45.016 31.3631 45.0165C30.8429 45.0177 30.3226 45.0183 29.8023 45.0187C29.4774 45.019 29.1525 45.0194 28.8276 45.0198C27.8114 45.0211 26.7953 45.022 25.7791 45.0224C24.6054 45.0228 23.4316 45.0244 22.2579 45.0271C21.3511 45.0292 20.4443 45.0301 19.5375 45.0302C18.9957 45.0303 18.4539 45.0309 17.9121 45.0326C17.4025 45.0341 16.8929 45.0343 16.3832 45.0335C16.1961 45.0334 16.0091 45.0338 15.822 45.0348C15.5666 45.0359 15.3113 45.0354 15.056 45.0344C14.9449 45.0356 14.9449 45.0356 14.8316 45.0367C14.2977 45.0319 13.9087 44.9228 13.5127 44.5576C13.4679 44.5025 13.4231 44.4474 13.3769 44.3906C13.3308 44.3355 13.2848 44.2804 13.2373 44.2236C13.0188 43.9104 13.0192 43.6298 13.0183 43.2604C13.0178 43.1514 13.0174 43.0423 13.0169 42.93C13.0168 42.7495 13.0168 42.7495 13.0167 42.5654C13.0164 42.4367 13.0159 42.308 13.0155 42.1793C13.0144 41.8249 13.0138 41.4705 13.0134 41.1161C13.0128 40.7342 13.0118 40.3523 13.0108 39.9704C13.0085 39.0478 13.0071 38.1252 13.0059 37.2026C13.0055 36.9422 13.0052 36.6817 13.0048 36.4212C13.0024 34.8045 13.0003 33.1878 12.9992 31.5711C12.9989 31.1967 12.9986 30.8222 12.9983 30.4477C12.9983 30.3546 12.9982 30.2615 12.9981 30.1656C12.9969 28.6567 12.9938 27.1478 12.9899 25.6389C12.9859 24.0906 12.9837 22.5423 12.9832 20.994C12.9829 20.1243 12.9818 19.2547 12.9787 18.385C12.9761 17.6446 12.9751 16.9042 12.9761 16.1638C12.9766 15.7859 12.9763 15.408 12.974 15.0301C12.9719 14.6843 12.972 14.3385 12.9738 13.9927C12.9741 13.808 12.9722 13.6234 12.9702 13.4388C12.9783 12.5455 12.9783 12.5455 13.2566 12.253C13.5069 12.0891 13.5969 12.0373 13.8866 12.0879C13.9798 12.1007 13.9798 12.1007 14.0749 12.1139C14.3177 12.216 14.3943 12.3385 14.5312 12.5625C14.5667 12.8068 14.5667 12.8068 14.5672 13.0903C14.5681 13.1985 14.569 13.3067 14.5699 13.4182C14.5695 13.5371 14.569 13.656 14.5685 13.7785C14.569 13.9061 14.5697 14.0336 14.5704 14.1612C14.5721 14.512 14.5721 14.8628 14.5717 15.2136C14.5717 15.5918 14.5732 15.97 14.5746 16.3482C14.5767 17.0035 14.5778 17.6589 14.5783 18.3143C14.5789 19.2618 14.581 20.2093 14.5835 21.1569C14.5876 22.6941 14.5904 24.2314 14.5924 25.7686C14.5944 27.2621 14.597 28.7555 14.6003 30.2489C14.6005 30.3419 14.6007 30.4349 14.6009 30.5307C14.6026 31.2577 14.6042 31.9848 14.6059 32.7119C14.6141 36.2767 14.6193 39.8414 14.6249 43.4062C20.8124 43.4062 26.9999 43.4062 33.3749 43.4062C33.3749 30.5981 33.3749 17.79 33.3749 4.59372C32.0755 4.56278 30.7762 4.53184 29.4374 4.49997C29.3755 4.65466 29.3137 4.80934 29.2499 4.96872C28.8465 5.68691 28.3639 6.29712 27.5624 6.56247C27.3311 6.58049 27.099 6.58836 26.867 6.58971C26.7645 6.59065 26.7645 6.59065 26.6599 6.59161C26.4347 6.59339 26.2096 6.59376 25.9844 6.59396C25.8271 6.59457 25.6699 6.5952 25.5126 6.59585C25.1831 6.59698 24.8536 6.59732 24.5241 6.59721C24.1033 6.59719 23.6825 6.59975 23.2617 6.60298C22.9368 6.60507 22.612 6.60545 22.2871 6.60535C22.132 6.60557 21.977 6.60639 21.8219 6.60785C20.1865 6.62176 20.1865 6.62176 19.4871 6.01315C18.5624 4.88583 18.5624 4.88583 18.5624 4.49997C16.6133 4.54638 16.6133 4.54638 14.6249 4.59372C14.6236 4.96727 14.6223 5.34081 14.6209 5.72568C14.618 6.08746 14.6143 6.44923 14.6106 6.81101C14.6082 7.06245 14.6069 7.31386 14.6066 7.56531C14.6057 7.92677 14.6019 8.28808 14.5974 8.64951C14.598 8.81813 14.598 8.81813 14.5986 8.99017C14.5849 9.76829 14.5849 9.76829 14.3135 10.1491C13.9808 10.3656 13.7954 10.3832 13.4062 10.3125C13.1645 10.0728 13.0438 9.91527 12.9842 9.57759C12.9842 9.4804 12.9841 9.38321 12.9841 9.28307C12.9832 9.17231 12.9824 9.06154 12.9815 8.94742C12.9825 8.82856 12.9836 8.70971 12.9846 8.58725C12.9845 8.46439 12.9844 8.34154 12.9842 8.21496C12.9841 7.95529 12.9853 7.69566 12.9874 7.436C12.9901 7.10426 12.9898 6.7726 12.9886 6.44086C12.9878 6.12311 12.9892 5.80539 12.9905 5.48764C12.9902 5.36897 12.99 5.25031 12.9897 5.12805C12.9909 5.01698 12.9921 4.90592 12.9933 4.7915C12.9938 4.69423 12.9943 4.59697 12.9948 4.49675C13.058 4.0134 13.2647 3.65142 13.6405 3.34567C13.6956 3.29963 13.7507 3.25358 13.8075 3.20615C14.0986 3.00308 14.3582 2.98731 14.7017 2.98338Z" fill="#F4F4F4"/>
<path d="M25.4035 17.4421C25.5585 17.521 25.5585 17.521 25.7167 17.6014C25.8832 17.6839 26.0496 17.7664 26.2162 17.8486C26.3316 17.9056 26.4469 17.9627 26.5622 18.0199C27.2082 18.34 27.8625 18.6419 28.5175 18.9432C28.8296 19.0869 29.1416 19.2308 29.4529 19.3761C29.6169 19.4525 29.7814 19.5278 29.9467 19.6012C30.3577 19.7908 30.603 19.9594 30.8437 20.3436C30.879 20.6155 30.8932 20.8511 30.8892 21.1224C30.8896 21.1996 30.8899 21.2768 30.8903 21.3563C30.891 21.6107 30.889 21.865 30.8869 22.1194C30.8867 22.2965 30.8866 22.4735 30.8866 22.6506C30.8863 23.0214 30.8848 23.3922 30.8823 23.763C30.8791 24.2383 30.8783 24.7135 30.8785 25.1889C30.8784 25.5544 30.8774 25.9199 30.8761 26.2855C30.8755 26.4607 30.8751 26.636 30.8749 26.8113C30.8745 27.0561 30.8729 27.3009 30.8709 27.5457C30.871 27.6181 30.8711 27.6906 30.8712 27.7652C30.8635 28.4039 30.8635 28.4039 30.6562 28.6874C30.4379 28.8185 30.2299 28.9287 30.0003 29.0356C29.9338 29.0677 29.8674 29.0997 29.7989 29.1327C29.5852 29.2354 29.3707 29.3364 29.1562 29.4374C29.0172 29.5037 28.8783 29.5701 28.7394 29.6366C28.3146 29.8395 27.8888 30.0399 27.4628 30.2401C27.2474 30.3416 27.0321 30.4431 26.8168 30.5447C26.6759 30.6109 26.535 30.677 26.3939 30.7428C26.0569 30.9001 25.7218 31.0598 25.3894 31.2266C25.2958 31.2727 25.2958 31.2727 25.2003 31.3197C25.0319 31.4027 24.8643 31.4871 24.6967 31.5716C24.2218 31.7424 23.8372 31.7586 23.3491 31.5948C23.2209 31.5299 23.2209 31.5299 23.0902 31.4636C22.9427 31.3905 22.9427 31.3905 22.7922 31.3159C22.688 31.2625 22.5838 31.2091 22.4765 31.1542C22.309 31.0708 22.1415 30.9875 21.9739 30.9045C21.8578 30.8469 21.7418 30.7892 21.6259 30.7314C20.8826 30.3611 20.1271 30.0175 19.3726 29.6709C19.0707 29.5317 18.7696 29.3911 18.4687 29.2499C18.3631 29.2013 18.2576 29.1527 18.1489 29.1026C18.0474 29.0544 17.9459 29.0062 17.8413 28.9565C17.7502 28.9138 17.659 28.8711 17.565 28.827C17.3054 28.6632 17.2591 28.5983 17.1562 28.3124C17.1373 28.0537 17.1286 27.8044 17.1289 27.5457C17.1283 27.4687 17.1277 27.3917 17.127 27.3123C17.1252 27.0579 17.1249 26.8035 17.1247 26.549C17.1241 26.372 17.1234 26.195 17.1228 26.018C17.1217 25.6471 17.1213 25.2761 17.1214 24.9052C17.1214 24.43 17.1189 23.9548 17.1156 23.4797C17.1136 23.1141 17.1132 22.7486 17.1133 22.383C17.1131 22.2079 17.1122 22.0327 17.1108 21.8575C17.1089 21.6124 17.1095 21.3674 17.1106 21.1224C17.1096 21.0501 17.1085 20.9779 17.1074 20.9035C17.1114 20.5607 17.144 20.3626 17.3298 20.0707C17.5726 19.8346 17.8049 19.709 18.1112 19.5643C18.1681 19.537 18.225 19.5098 18.2837 19.4817C18.4698 19.3928 18.6567 19.3057 18.8437 19.2186C18.9735 19.1571 19.1033 19.0955 19.2331 19.0338C19.5677 18.8751 19.9029 18.718 20.2385 18.5615C20.4326 18.4709 20.6265 18.38 20.8205 18.289C22.187 17.648 22.187 17.648 22.8123 17.365C22.9601 17.297 23.1069 17.2265 23.251 17.1508C24.0186 16.7617 24.6878 17.0885 25.4035 17.4421ZM23.3389 18.7934C23.2295 18.845 23.1201 18.8965 23.0074 18.9496C22.8909 19.006 22.7745 19.0625 22.6581 19.119C22.5397 19.1754 22.4212 19.2317 22.3026 19.2879C21.4564 19.6905 20.6146 20.1027 19.7812 20.5311C20.0087 20.7586 20.2256 20.8493 20.5183 20.9837C20.6307 21.0356 20.743 21.0874 20.8587 21.1408C20.9781 21.1954 21.0974 21.25 21.2167 21.3045C21.3895 21.384 21.5622 21.4636 21.7348 21.5433C21.8497 21.5961 21.9647 21.6486 22.0798 21.7009C22.3663 21.8312 22.6504 21.9646 22.9318 22.1056C23.0381 22.1579 23.1444 22.2102 23.2539 22.264C23.3481 22.3116 23.4423 22.3592 23.5393 22.4082C24.1158 22.6016 24.5856 22.3304 25.104 22.0787C25.1724 22.0462 25.2408 22.0137 25.3113 21.9802C25.5288 21.8768 25.7458 21.7723 25.9628 21.6678C26.1796 21.5642 26.3964 21.4608 26.6133 21.3574C26.7478 21.2932 26.8822 21.2289 27.0165 21.1643C27.4133 20.974 27.8131 20.7956 28.2187 20.6249C28.0234 20.4125 27.846 20.2817 27.5859 20.1583C27.4812 20.1081 27.4812 20.1081 27.3744 20.0569C27.2994 20.0217 27.2244 19.9865 27.1471 19.9503C27.0696 19.9135 26.992 19.8766 26.9121 19.8387C26.7482 19.761 26.5841 19.6836 26.4199 19.6066C26.1691 19.4887 25.9189 19.3697 25.6687 19.2505C25.5092 19.1751 25.3497 19.0998 25.1901 19.0245C25.1155 18.989 25.0409 18.9534 24.964 18.9168C24.3359 18.6235 23.9965 18.4795 23.3389 18.7934ZM18.6562 21.7499C18.6562 23.6989 18.6562 25.648 18.6562 27.6561C19.2575 27.9442 19.8589 28.2323 20.4784 28.5292C20.6665 28.6196 20.8546 28.71 21.0484 28.8032C21.2001 28.8756 21.3518 28.9479 21.5035 29.0202C21.5801 29.0573 21.6568 29.0943 21.7357 29.1324C21.8118 29.1686 21.8878 29.2047 21.9661 29.2419C22.0309 29.2729 22.0956 29.3039 22.1623 29.3359C22.5172 29.4835 22.8853 29.5971 23.2499 29.7186C23.2499 27.7695 23.2499 25.8205 23.2499 23.8124C22.7491 23.5765 22.2483 23.3406 21.7323 23.0975C21.577 23.0243 21.4217 22.9511 21.2617 22.8757C20.9275 22.7183 20.5932 22.5613 20.2588 22.4045C20.0699 22.3159 19.8813 22.2268 19.6927 22.1378C19.583 22.0864 19.4734 22.035 19.3604 21.982C19.2645 21.9369 19.1686 21.8918 19.0699 21.8453C18.8558 21.7377 18.8558 21.7377 18.6562 21.7499ZM28.6501 21.9868C28.4923 22.0636 28.4923 22.0636 28.3315 22.1419C28.2208 22.1962 28.1101 22.2505 27.996 22.3065C26.9234 22.8322 25.8404 23.3216 24.7499 23.8124C24.7499 25.7614 24.7499 27.7105 24.7499 29.7186C25.2859 29.54 25.7387 29.3827 26.2345 29.1393C26.2912 29.1116 26.3479 29.084 26.4064 29.0556C26.5849 28.9685 26.7631 28.8807 26.9413 28.7928C27.1189 28.7058 27.2965 28.6189 27.4743 28.5321C27.636 28.453 27.7976 28.3736 27.9592 28.2941C28.4174 28.0745 28.8811 27.8664 29.3437 27.6561C29.3437 25.707 29.3437 23.758 29.3437 21.7499C29.0724 21.7499 28.8933 21.8674 28.6501 21.9868Z" fill="#F4F4F4"/>
<path d="M26.3863 33.0347C26.5043 33.0345 26.6224 33.0344 26.7441 33.0342C26.8672 33.0364 26.9903 33.0387 27.1172 33.041C27.2389 33.0399 27.3606 33.0389 27.486 33.0378C28.3254 33.0443 28.8603 33.1321 29.5078 33.6913C30.0529 34.3273 30.2238 34.786 30.2128 35.6121C30.1575 36.2552 29.9187 36.6829 29.4434 37.1132C29.1752 37.3339 28.8939 37.5131 28.5938 37.6874C28.6696 37.7678 28.7453 37.8482 28.8234 37.931C28.9246 38.0392 29.0258 38.1475 29.127 38.2558C29.1767 38.3084 29.2264 38.3611 29.2777 38.4153C30.1565 39.3588 30.1565 39.3588 30.2403 39.9081C30.1875 40.2187 30.1875 40.2187 30.041 40.4472C29.7145 40.6565 29.5383 40.6584 29.1563 40.5937C28.6173 40.2862 28.2444 39.7357 27.8647 39.2596C27.5869 38.9135 27.2945 38.5817 27 38.2499C26.9992 38.3076 26.9983 38.3653 26.9974 38.4247C26.9923 38.6868 26.9845 38.9488 26.9766 39.2109C26.9746 39.347 26.9746 39.347 26.9726 39.4859C26.9494 40.1566 26.9494 40.1566 26.7345 40.4659C26.4282 40.6585 26.229 40.6496 25.875 40.5937C25.5664 40.3518 25.4232 40.212 25.3474 39.8226C25.3473 39.7085 25.3472 39.5943 25.3471 39.4767C25.3464 39.4134 25.3458 39.3501 25.3451 39.2849C25.3435 39.0765 25.3453 38.8684 25.3473 38.6601C25.3472 38.5148 25.347 38.3694 25.3466 38.2241C25.3464 37.9199 25.3477 37.6157 25.3503 37.3115C25.3535 36.9222 25.353 36.5329 25.3512 36.1436C25.3502 35.8436 25.351 35.5436 25.3525 35.2436C25.3529 35.1001 25.3529 34.9565 25.3523 34.813C25.3518 34.6122 25.3537 34.4115 25.3563 34.2106C25.3569 34.0965 25.3574 33.9824 25.358 33.8648C25.4597 33.2276 25.7711 33.0343 26.3863 33.0347ZM26.9063 34.5937C26.9063 35.1196 26.9063 35.6456 26.9063 36.1874C27.1934 36.199 27.1934 36.199 27.4864 36.2109C27.6479 36.2174 27.6479 36.2174 27.8127 36.2241C28.185 36.1804 28.3301 36.0727 28.5938 35.8124C28.7309 35.5381 28.7293 35.3665 28.6875 35.0624C28.4889 34.8014 28.4174 34.7137 28.125 34.5937C27.7102 34.5548 27.3246 34.5723 26.9063 34.5937Z" fill="#F4F4F4"/>
<path d="M21.0905 33.0474C21.3653 33.1143 21.471 33.258 21.6563 33.4689C21.7772 33.7028 21.7772 33.7028 21.8823 33.9684C21.9223 34.0683 21.9624 34.1682 22.0037 34.2711C22.0457 34.3787 22.0877 34.4863 22.1309 34.5972C22.1975 34.7644 22.1975 34.7644 22.2654 34.935C22.3832 35.2312 22.4999 35.5279 22.6163 35.8248C22.7106 36.0644 22.8056 36.3037 22.9007 36.543C23.1761 37.236 23.4509 37.9292 23.7188 38.6251C23.7747 38.7695 23.7747 38.7695 23.8317 38.9168C23.8661 39.008 23.9005 39.0993 23.936 39.1933C23.9665 39.2737 23.997 39.3541 24.0285 39.4369C24.1249 39.7607 24.1062 39.9943 24.0001 40.3126C23.7784 40.577 23.6412 40.5919 23.297 40.6349C22.9688 40.5939 22.9688 40.5939 22.7638 40.465C22.4999 40.0828 22.2188 39.5684 22.2188 39.0939C20.9659 39.1403 20.9659 39.1403 19.6876 39.1876C19.4556 39.7445 19.4556 39.7445 19.2188 40.3126C18.8047 40.6232 18.6861 40.6562 18.1876 40.5939C17.9591 40.4474 17.9591 40.4474 17.8126 40.2189C17.7709 39.7133 17.8713 39.3213 18.0601 38.8591C18.0862 38.7927 18.1124 38.7263 18.1392 38.6578C18.2246 38.4414 18.3115 38.2256 18.3985 38.0099C18.4582 37.8599 18.5177 37.7099 18.5772 37.5598C18.6989 37.2531 18.8213 36.9466 18.9442 36.6403C19.0893 36.2782 19.2322 35.9154 19.3739 35.5521C19.4754 35.2918 19.5776 35.0318 19.6799 34.7719C19.7277 34.6499 19.7754 34.5279 19.8229 34.4058C19.8888 34.2366 19.9557 34.0679 20.0227 33.8992C20.06 33.8043 20.0973 33.7094 20.1357 33.6117C20.3689 33.1294 20.5512 33.063 21.0905 33.0474ZM20.9063 35.9064C20.7968 36.17 20.6874 36.4336 20.5782 36.6974C20.5469 36.7726 20.5156 36.8478 20.4834 36.9254C20.4538 36.997 20.4241 37.0686 20.3936 37.1423C20.3661 37.2086 20.3387 37.2749 20.3103 37.3432C20.2445 37.4867 20.2445 37.4867 20.2501 37.5939C20.6832 37.5939 21.1163 37.5939 21.5626 37.5939C21.4824 37.193 21.3774 36.8641 21.2286 36.4865C21.1646 36.3231 21.1646 36.3231 21.0993 36.1565C21.0666 36.074 21.0338 35.9914 21.0001 35.9064C20.9691 35.9064 20.9382 35.9064 20.9063 35.9064Z" fill="#F4F4F4"/>
<path d="M24 11.4727C24.3819 11.5522 24.5068 11.6981 24.75 12C24.8091 12.3227 24.8091 12.3227 24.8089 12.6888C24.8091 12.7539 24.8094 12.8189 24.8096 12.8859C24.8095 13.0228 24.8083 13.1597 24.8059 13.2965C24.8027 13.5056 24.804 13.7144 24.8058 13.9235C24.8052 14.0569 24.8043 14.1902 24.8031 14.3236C24.8015 14.5047 24.8015 14.5047 24.8 14.6895C24.7423 15.0475 24.6602 15.159 24.375 15.375C24.1875 15.4248 24.1875 15.4248 24 15.4219C23.9071 15.4233 23.9071 15.4233 23.8125 15.4248C23.5331 15.3506 23.4285 15.226 23.25 15C23.2 14.6895 23.2 14.6895 23.1969 14.3236C23.1963 14.2587 23.1957 14.1937 23.1951 14.1268C23.1944 13.9898 23.1947 13.8527 23.1959 13.7157C23.1972 13.5068 23.194 13.2982 23.1905 13.0893C23.1904 12.9558 23.1905 12.8223 23.191 12.6888C23.1909 12.568 23.1909 12.4472 23.1908 12.3227C23.2792 11.8408 23.5169 11.5733 24 11.4727Z" fill="#F4F4F4"/>
<path d="M27.4688 13.1252C27.6272 13.2351 27.6272 13.2351 27.75 13.4064C27.7864 13.6648 27.7864 13.6648 27.7874 13.9744C27.7879 14.1418 27.7879 14.1418 27.7885 14.3126C27.7874 14.4293 27.7863 14.546 27.7852 14.6662C27.7862 14.7825 27.7873 14.8988 27.7885 15.0187C27.7881 15.1304 27.7877 15.2421 27.7874 15.3572C27.787 15.4595 27.7867 15.5618 27.7864 15.6672C27.7457 15.9695 27.6817 16.0975 27.4688 16.3127C27.1312 16.4228 26.9738 16.4372 26.6484 16.2893C26.4375 16.1252 26.4375 16.1252 26.25 15.8439C26.2257 15.6114 26.2257 15.6114 26.2251 15.3375C26.2249 15.2386 26.2246 15.1396 26.2244 15.0377C26.2255 14.8828 26.2255 14.8828 26.2266 14.7248C26.2258 14.6219 26.2251 14.519 26.2244 14.413C26.2246 14.3139 26.2248 14.2149 26.2251 14.1129C26.2253 14.0224 26.2255 13.9318 26.2257 13.8386C26.2509 13.585 26.3029 13.4335 26.4375 13.2189C26.7716 12.9591 27.0743 13.032 27.4688 13.1252Z" fill="#F4F4F4"/>
<path d="M21.0586 13.0369C21.3608 13.1209 21.4775 13.1577 21.6563 13.4061C21.848 13.7896 21.7756 14.2795 21.7793 14.701C21.7821 14.8035 21.7848 14.9061 21.7876 15.0117C21.7936 15.7689 21.7936 15.7689 21.575 16.1439C21.3395 16.3423 21.2139 16.3986 20.9063 16.4061C20.5489 16.3063 20.461 16.2537 20.25 15.9373C20.2035 15.5189 20.211 15.0983 20.209 14.6776C20.2059 14.5612 20.2029 14.4449 20.1997 14.3251C20.199 14.2133 20.1984 14.1016 20.1977 13.9865C20.1964 13.8842 20.1951 13.7819 20.1938 13.6765C20.25 13.4061 20.25 13.4061 20.4664 13.1819C20.7188 13.0311 20.7188 13.0311 21.0586 13.0369Z" fill="#F4F4F4"/>
<path d="M30.4688 14.4373C30.7058 14.617 30.7474 14.7105 30.8438 14.9998C30.8675 15.3079 30.8655 15.6165 30.8672 15.9255C30.8692 16.0098 30.8711 16.094 30.8731 16.1808C30.8759 16.6469 30.8664 16.9645 30.5626 17.3435C30.3891 17.517 30.1477 17.4646 29.9162 17.4772C29.6288 17.4191 29.527 17.2873 29.3438 17.0623C29.2968 16.809 29.2968 16.809 29.2973 16.5228C29.2972 16.4196 29.2972 16.3163 29.2971 16.2099C29.299 16.1025 29.3009 15.9952 29.3028 15.8845C29.3021 15.7768 29.3015 15.6691 29.3008 15.5581C29.3068 14.7679 29.3068 14.7679 29.4694 14.5508C29.812 14.3009 30.0749 14.3388 30.4688 14.4373Z" fill="#F4F4F4"/>
<path d="M18.0468 14.3553C18.3749 14.4373 18.3749 14.4373 18.5335 14.5977C18.7675 15.0071 18.7002 15.4771 18.6972 15.9373C18.7 16.091 18.7 16.091 18.7029 16.2479C18.7028 16.3465 18.7027 16.4451 18.7027 16.5467C18.7029 16.6816 18.7029 16.6816 18.7032 16.8192C18.6431 17.13 18.5245 17.2414 18.2812 17.4373C18.0085 17.5038 17.8178 17.4692 17.5312 17.4373C17.2804 17.2675 17.2537 17.1675 17.1562 16.8748C17.1325 16.5666 17.1345 16.258 17.1327 15.949C17.1308 15.8648 17.1289 15.7806 17.1269 15.6938C17.1241 15.2313 17.1268 14.9012 17.4374 14.5311C17.7187 14.3436 17.7187 14.3436 18.0468 14.3553Z" fill="#F4F4F4"/>
</g>
<defs>
<clipPath id="clip0_72_203">
<rect width="48" height="48" fill="white"/>
</clipPath>
</defs>
</svg>
