<svg width="48" height="48" viewBox="0 0 48 48" fill="none" xmlns="http://www.w3.org/2000/svg">
<g clip-path="url(#clip0_72_195)">
<path d="M28.9687 2.24988C29.2051 2.45624 29.4347 2.66885 29.6645 2.88269C30.4712 3.58678 31.2727 3.99147 32.3532 3.96631C33.3132 3.8641 34.0138 3.37289 34.6936 2.72009C35.6929 1.77051 36.8947 1.27455 38.2675 1.27722C38.3448 1.27731 38.4222 1.27739 38.5019 1.27747C39.2052 1.29094 40.0049 1.36694 40.5735 1.82105C40.7713 2.07737 40.7757 2.30808 40.7812 2.62488C40.6464 2.90027 40.6464 2.90027 40.4062 3.09363C39.9971 3.14057 39.738 3.11835 39.3456 2.99988C39.024 2.91267 38.792 2.89636 38.4627 2.90027C38.3701 2.90112 38.2775 2.90196 38.1821 2.90283C38.0764 2.90446 38.0764 2.90446 37.9687 2.90613C37.9405 3.01347 37.9405 3.01347 37.9117 3.12297C35.9114 10.6877 35.9114 10.6877 33.0878 12.5155C32.6879 12.7355 32.3376 12.9078 31.8749 12.8436C30.2577 12.3286 29.2119 10.6854 28.4707 9.25426C27.5741 7.45503 26.3437 4.86801 26.3437 2.81238C24.1944 2.99104 23.0939 4.11546 21.573 5.54065C21.2933 5.8022 21.0074 6.0555 20.7176 6.30567C20.4805 6.51293 20.2481 6.72513 20.0155 6.93738C19.4174 7.48254 18.8117 8.01612 18.1874 8.53113C18.7461 9.05253 19.3217 9.53563 19.9256 10.0028C20.3274 10.3153 20.7155 10.6405 21.0995 10.9745C21.7031 11.4991 22.3293 11.9886 22.9687 12.4686C22.9705 12.3916 22.9724 12.3145 22.9743 12.2351C22.9832 11.8852 22.9935 11.5353 23.0038 11.1854C23.0067 11.0642 23.0096 10.9429 23.0126 10.8179C23.018 10.6425 23.018 10.6425 23.0236 10.4636C23.0265 10.3561 23.0295 10.2486 23.0325 10.1378C23.0624 9.84364 23.1127 9.63603 23.2499 9.37488C23.5987 9.14234 23.7747 9.14394 24.1874 9.18738C24.3931 9.32547 24.3931 9.32547 24.5624 9.56238C24.5975 9.84918 24.6099 10.1016 24.605 10.3881C24.605 10.4714 24.6051 10.5546 24.6051 10.6404C24.6049 10.9154 24.602 11.1903 24.599 11.4652C24.5983 11.6559 24.5978 11.8467 24.5974 12.0374C24.596 12.5393 24.5923 13.0411 24.5882 13.5429C24.5843 14.055 24.5826 14.5672 24.5807 15.0793C24.5767 16.0841 24.5703 17.0889 24.5624 18.0936C27.0493 18.3928 27.0493 18.3928 29.5464 18.577C29.7435 18.5862 29.9404 18.5969 30.1374 18.6078C31.6117 18.6859 33.0789 18.6653 34.5526 18.5858C34.6627 18.5801 34.6627 18.5801 34.7751 18.5742C36.2344 18.4961 37.6762 18.3307 39.1226 18.1251C39.3749 18.0936 39.3749 18.0936 39.6562 18.0936C39.6553 17.9876 39.6545 17.8815 39.6536 17.7723C39.646 16.7735 39.6404 15.7748 39.6367 14.776C39.6348 14.2626 39.6321 13.7491 39.6279 13.2356C39.6238 12.7402 39.6215 12.2448 39.6206 11.7494C39.6199 11.5602 39.6185 11.3711 39.6165 11.182C39.6138 10.9173 39.6134 10.6528 39.6136 10.3881C39.6116 10.2705 39.6116 10.2705 39.6095 10.1504C39.6119 9.80577 39.6233 9.60575 39.8346 9.32659C40.0459 9.17691 40.1497 9.13414 40.4062 9.13464C40.499 9.13156 40.499 9.13156 40.5937 9.12842C40.8915 9.22207 40.9882 9.39843 41.1562 9.65613C41.1987 9.97613 41.1987 9.97613 41.1928 10.3376C41.1922 10.4015 41.1917 10.4653 41.1912 10.5311C41.1891 10.7337 41.1844 10.9361 41.1796 11.1386C41.1777 11.2764 41.176 11.4143 41.1745 11.5522C41.1703 11.889 41.1639 12.2257 41.1562 12.5624C41.8646 11.997 41.8646 11.997 42.5683 11.4257C42.6535 11.3558 42.7387 11.286 42.8264 11.214C43.261 10.857 43.695 10.4993 44.1289 10.1416C44.4321 9.8917 44.7354 9.64208 45.0402 9.39429C45.1313 9.32021 45.2224 9.24613 45.3163 9.1698C45.3944 9.1066 45.4724 9.04339 45.5529 8.97827C45.7218 8.83604 45.8784 8.69032 46.0312 8.53113C45.1542 7.71628 45.1542 7.71628 44.2583 6.92236C44.0021 6.69675 43.7511 6.46552 43.4999 6.23425C42.9657 5.74272 42.4278 5.2576 41.8651 4.79871C41.564 4.54163 41.5384 4.48394 41.5019 4.08972C41.5312 3.74988 41.5312 3.74988 41.6718 3.52136C41.994 3.32 42.29 3.30975 42.6562 3.37488C42.8805 3.52997 43.035 3.65685 43.2187 3.84949C43.316 3.94513 43.4134 4.04071 43.5109 4.13623C43.5805 4.20618 43.5805 4.20618 43.6514 4.27754C43.817 4.44167 43.9908 4.59436 44.1679 4.74597C44.6068 5.12682 45.0373 5.51676 45.4687 5.90613C45.7025 6.11665 45.9364 6.32708 46.1703 6.53748C46.3316 6.68277 46.4928 6.82829 46.6537 6.974C47.158 7.43044 47.158 7.43044 47.6776 7.86902C47.9723 8.11837 47.9904 8.20068 48.0644 8.58386C48.0602 8.87464 48.0157 8.98089 47.827 9.20715C47.5796 9.43031 47.3246 9.63803 47.0624 9.84363C46.8924 9.98416 46.7225 10.1248 46.5526 10.2655C46.3789 10.4062 46.2051 10.5469 46.0312 10.6874C45.8592 10.8279 45.6873 10.9685 45.5155 11.1093C45.2644 11.3148 45.0132 11.5203 44.7619 11.7256C44.1617 12.2161 43.5631 12.7086 42.965 13.2016C42.4852 13.5969 42.0043 13.9909 41.5224 14.3835C41.3539 14.5179 41.3539 14.5179 41.2499 14.6249C41.2085 15.1501 41.1963 15.6754 41.1862 16.2021C41.1818 16.379 41.1755 16.5558 41.167 16.7325C41.1167 17.7928 41.1428 18.5493 41.8772 19.3616C41.9667 19.4553 42.0571 19.5482 42.1483 19.6403C45.2461 22.9242 46.9616 28.1007 47.7187 32.4374C47.734 32.5247 47.7493 32.6121 47.7652 32.7021C47.9514 33.8055 48.0285 34.8986 48.0409 36.0175C48.043 36.1311 48.0451 36.2448 48.0473 36.362C48.0468 36.5212 48.0468 36.5212 48.0464 36.6836C48.0466 36.7779 48.0468 36.8722 48.0469 36.9693C47.9866 37.2893 47.8786 37.3947 47.6249 37.5936C47.4394 37.6845 47.4394 37.6845 47.2385 37.7474C47.1604 37.772 47.0824 37.7965 47.0019 37.8218C46.9155 37.8471 46.8291 37.8723 46.7401 37.8983C46.6471 37.9258 46.5541 37.9534 46.4582 37.9818C42.2451 39.1858 37.857 39.7079 33.4862 39.8202C33.4049 39.8224 33.3235 39.8246 33.2396 39.8268C32.3088 39.8504 31.396 39.8471 30.4687 39.7499C30.4623 39.8574 30.4623 39.8574 30.4559 39.967C30.1896 44.3762 30.1896 44.3762 28.9687 45.4686C27.7338 46.3924 26.5768 46.4866 25.0812 46.5492C24.9884 46.5532 24.8957 46.5572 24.8002 46.5613C24.4936 46.5741 24.1871 46.5862 23.8805 46.598C23.773 46.6022 23.6654 46.6063 23.5546 46.6106C20.9655 46.708 18.3774 46.7161 15.7868 46.7115C15.3477 46.7108 14.9086 46.711 14.4694 46.7118C2.86274 46.7321 2.86274 46.7321 1.33913 45.3196C0.457188 44.3658 0.25488 43.1981 0.131005 41.953C0.124882 41.8918 0.118759 41.8305 0.112451 41.7674C-0.0149436 40.4672 -0.0431549 39.1715 -0.0367656 37.8651C-0.0352551 37.4999 -0.0367648 37.1348 -0.0385509 36.7696C-0.0397336 35.5328 0.0038913 34.3071 0.119286 33.076C0.129397 32.9626 0.139508 32.8491 0.149925 32.7322C0.283686 31.4533 0.63375 30.294 1.63357 29.4279C2.01551 29.1487 2.35539 28.9613 2.80654 28.8221C3.02166 28.7474 3.02166 28.7474 3.1874 28.5936C3.29736 28.2722 3.34885 27.9583 3.4031 27.6232C3.85542 25.263 6.82051 23.4925 8.58535 22.1509C9.57075 21.4007 10.5102 20.6019 11.4374 19.7811C11.2518 19.5846 11.0719 19.4356 10.8401 19.297C10.7791 19.26 10.7181 19.2229 10.6553 19.1848C10.5905 19.1457 10.5257 19.1066 10.4589 19.0663C8.63377 17.9419 6.60724 16.4568 5.91201 14.3319C5.59684 12.9792 5.75832 11.4836 6.41518 10.2604C7.1256 9.1541 8.09285 8.44285 9.3749 8.15613C10.9413 7.94132 12.4441 8.14838 13.7636 9.07605C15.0163 10.0502 15.8476 11.2559 16.0952 12.8469C16.2896 14.6683 15.8398 16.2926 14.9999 17.9003C14.9699 17.9579 14.9399 18.0156 14.909 18.075C14.7517 18.3657 14.5819 18.6235 14.3671 18.8733C14.1361 19.0941 14.1361 19.0941 14.1562 19.3124C15.5701 20.0499 16.9876 20.7804 18.4129 21.4959C18.5556 21.5676 18.6983 21.6394 18.8409 21.7114C19.0412 21.8123 19.2418 21.9128 19.4424 22.0132C19.5025 22.0436 19.5627 22.074 19.6246 22.1053C19.9228 22.2623 19.9228 22.2623 20.2499 22.3124C20.4098 22.0808 20.5594 21.8486 20.7069 21.6093C21.0749 21.0261 21.4578 20.4607 21.8729 19.91C21.9178 19.8503 21.9627 19.7905 22.0089 19.7289C22.3706 19.2535 22.3706 19.2535 22.5524 19.0755C22.9343 18.6935 23.0345 18.4097 23.0467 17.8734C23.0458 17.7886 23.045 17.7038 23.0441 17.6165C23.0454 17.5279 23.0467 17.4394 23.048 17.3481C23.0515 17.0673 23.0511 16.7866 23.0507 16.5057C23.0524 16.3145 23.0543 16.1233 23.0565 15.9321C23.0614 15.4651 23.0628 14.9982 23.0624 14.5311C23.0061 14.5047 22.9498 14.4782 22.8918 14.451C22.5981 14.2967 22.3619 14.0797 22.1132 13.8632C22.0032 13.7687 21.893 13.6743 21.7829 13.5801C21.729 13.534 21.6751 13.4878 21.6196 13.4403C21.424 13.2745 21.2244 13.1142 21.0233 12.955C20.3824 12.4468 19.7539 11.9234 19.123 11.4029C18.7184 11.0694 18.3122 10.7378 17.9062 10.4061C17.639 10.1879 17.372 9.96964 17.1052 9.75098C16.9667 9.63752 16.8278 9.52438 16.6885 9.41187C16.356 9.14123 16.2327 9.0304 16.1835 8.59558C16.2287 8.15092 16.3513 8.06717 16.6874 7.78113C16.7916 7.67638 16.8951 7.57086 16.9979 7.46472C17.2806 7.18206 17.5753 6.91853 17.878 6.65759C18.1413 6.42693 18.3988 6.19021 18.6562 5.953C19.0248 5.61353 19.397 5.27898 19.7757 4.95068C20.0145 4.74081 20.2493 4.52668 20.4843 4.31238C20.8397 3.9882 21.1974 3.66746 21.562 3.35364C21.697 3.23423 21.8287 3.11119 21.9583 2.98596C23.8837 1.15132 26.7185 0.588036 28.9687 2.24988ZM28.0312 3.56238C28.717 6.12641 29.62 9.43986 31.8244 11.1473C32.0578 11.2756 32.0578 11.2756 32.3012 11.1957C33.1798 10.6864 33.7315 9.76953 34.2187 8.90613C34.252 8.84709 34.2853 8.78806 34.3196 8.72723C34.9088 7.65068 35.2951 6.49755 35.6835 5.33777C35.7094 5.26088 35.7353 5.184 35.7619 5.10479C35.8356 4.88477 35.9081 4.66441 35.9801 4.44385C36.0137 4.34304 36.0137 4.34304 36.048 4.24019C36.1783 3.89856 36.1783 3.89856 36.0937 3.56238C36.0358 3.61676 35.9779 3.67114 35.9182 3.72717C34.6852 4.86454 33.5301 5.47656 31.8222 5.45715C30.5058 5.37637 29.507 4.80286 28.5827 3.90057C28.3498 3.64118 28.3498 3.64118 28.0312 3.56238ZM8.17336 10.4655C7.43283 11.2635 7.2765 12.2046 7.2864 13.2589C7.38327 14.506 8.28143 15.5245 9.1874 16.3124C10.2326 17.1869 11.3841 17.8838 12.5624 18.5624C13.8559 17.3441 14.6071 15.5345 14.6601 13.7694C14.6202 12.5211 14.1753 11.4444 13.2615 10.583C11.7514 9.42339 9.66738 9.12245 8.17336 10.4655ZM23.9166 19.7289C23.8677 19.7911 23.8188 19.8533 23.7685 19.9174C23.7135 19.9861 23.6585 20.0548 23.6018 20.1255C23.5476 20.1975 23.4933 20.2695 23.4374 20.3436C23.3604 20.4436 23.3604 20.4436 23.2818 20.5456C23.1274 20.7496 22.9771 20.956 22.828 21.1639C22.7754 21.2369 22.7228 21.3099 22.6687 21.3851C22.2619 21.956 21.8953 22.5387 21.5624 23.1561C21.9153 23.4542 22.288 23.6889 22.6874 23.9178C23.3889 24.3308 24.0307 24.792 24.6562 25.3124C24.7051 25.3527 24.7541 25.3931 24.8045 25.4346C25.7182 26.1974 26.4559 27.032 26.8476 28.1776C26.9968 28.5734 26.9968 28.5734 27.3247 28.821C27.503 28.8805 27.6831 28.9348 27.8645 28.984C28.6278 29.2137 29.276 29.9213 29.6582 30.6008C29.9613 31.2394 30.0958 31.8185 30.164 32.5194C30.1797 32.6581 30.1797 32.6581 30.1958 32.7996C30.2274 33.0849 30.255 33.3703 30.2812 33.6561C30.2898 33.7487 30.2984 33.8413 30.3073 33.9366C30.3841 34.8362 30.4056 35.7363 30.4276 36.6385C30.4317 36.7956 30.4358 36.9526 30.4399 37.1097C30.4498 37.4897 30.4593 37.8698 30.4687 38.2499C31.9392 38.4427 33.4395 38.3483 34.9159 38.2675C34.9916 38.2634 35.0674 38.2594 35.1454 38.2553C37.4247 38.2708 37.4247 38.2708 39.5624 37.7811C39.6297 35.4049 39.3465 33.069 38.9649 30.7287C38.9548 30.666 38.9447 30.6033 38.9343 30.5386C38.907 30.3693 38.879 30.2002 38.851 30.031C38.7452 29.1744 38.7452 29.1744 38.9179 28.8866C39.1657 28.7379 39.3687 28.705 39.6562 28.6874C39.8523 28.7475 39.8523 28.7475 40.0312 28.8749C40.3736 29.7447 40.4276 30.791 40.5526 31.7167C40.5678 31.8275 40.5678 31.8275 40.5833 31.9405C40.8401 33.8201 40.9827 35.6986 41.0624 37.5936C41.3418 37.5492 41.6211 37.5042 41.9003 37.4589C42.0198 37.4399 42.0198 37.4399 42.1418 37.4206C42.2176 37.4082 42.2935 37.3958 42.3716 37.3831C42.4769 37.3661 42.4769 37.3661 42.5844 37.3488C42.7515 37.3276 42.7515 37.3276 42.8437 37.2186C42.8451 36.996 42.8385 36.7786 42.8261 36.5565C42.8221 36.4847 42.8181 36.4128 42.814 36.3388C42.7625 35.5526 42.666 34.7716 42.5683 33.9901C42.5603 33.9257 42.5523 33.8614 42.544 33.7951C42.4674 33.1826 42.3867 32.5727 42.2698 31.9664C42.1968 31.5818 42.1672 31.2189 42.1757 30.826C42.1774 30.7222 42.1791 30.6184 42.1808 30.5115C42.183 30.4355 42.1852 30.3594 42.1874 30.2811C42.6067 30.1414 42.9869 30.1414 43.4062 30.2811C43.4956 30.8004 43.5834 31.3199 43.6698 31.8397C43.6828 31.9174 43.6957 31.9952 43.709 32.0752C43.9081 33.2824 44.0617 34.4856 44.1619 35.7051C44.1758 35.8672 44.1758 35.8672 44.1898 36.0325C44.2007 36.1731 44.2007 36.1731 44.2117 36.3167C44.2421 36.5944 44.2421 36.5944 44.4374 36.9374C45.118 36.7518 45.7987 36.5661 46.4999 36.3749C46.5737 33.6181 46.0062 30.9071 45.0937 28.3124C45.0669 28.2358 45.0401 28.1592 45.0125 28.0802C43.9552 25.0958 42.3952 21.8639 40.1249 19.5936C39.8723 19.5864 39.8723 19.5864 39.58 19.62C39.4152 19.6354 39.4152 19.6354 39.2471 19.6511C38.7267 19.7065 38.2069 19.7649 37.6874 19.828C33.4656 20.3405 29.175 20.2378 24.9688 19.6295C24.4121 19.5345 24.4121 19.5345 23.9166 19.7289ZM12.9374 20.4374C12.8437 20.5344 12.8437 20.5344 12.7481 20.6333C12.1544 21.2386 11.541 21.7863 10.8749 22.3124C10.7621 22.4032 10.6495 22.4942 10.5369 22.5852C10.0018 23.0172 9.46475 23.4441 8.91201 23.8534C8.20413 24.3795 7.5225 24.9371 6.84365 25.4999C6.71658 25.6047 6.71658 25.6047 6.58694 25.7115C5.6574 26.5046 4.94722 27.3685 4.78115 28.5936C4.87575 28.5893 4.97034 28.585 5.0678 28.5806C5.41928 28.5649 5.77082 28.5512 6.1224 28.5381C6.27446 28.5322 6.4265 28.5257 6.57852 28.5187C6.79723 28.5087 7.01595 28.5006 7.23477 28.4929C7.30255 28.4894 7.37034 28.4859 7.44018 28.4823C7.73496 28.4735 7.93507 28.4817 8.19689 28.6237C8.41039 28.8527 8.42482 29.0354 8.4374 29.3436C8.34683 29.6014 8.30801 29.6896 8.0624 29.8124C7.45511 29.9019 6.83782 29.9163 6.22512 29.9398C6.00438 29.949 5.78364 29.9583 5.5629 29.9676C5.41268 29.9735 5.26244 29.9787 5.11218 29.9833C4.01869 30.0177 3.14696 30.0941 2.34951 30.9257C1.90995 31.4419 1.73813 32.0311 1.66982 32.6952C1.66249 32.7639 1.65516 32.8327 1.6476 32.9035C1.50386 34.3863 1.3131 36.529 2.14443 37.8339C2.62309 38.4127 3.19256 38.7813 3.9374 38.9061C4.08328 38.9186 4.22947 38.9278 4.37576 38.934C4.46 38.9377 4.54425 38.9415 4.63105 38.9453C4.72119 38.949 4.81133 38.9526 4.9042 38.9563C4.99845 38.9603 5.09269 38.9644 5.1898 38.9685C5.38931 38.9769 5.58884 38.9852 5.78837 38.9933C6.08998 39.0056 6.39156 39.0185 6.69314 39.0316C7.64995 39.072 8.60455 39.1094 9.5624 39.0936C9.56426 39.0167 9.56612 38.9397 9.56803 38.8604C9.57543 38.5698 9.58356 38.2793 9.59216 37.9887C9.59743 37.8031 9.6019 37.6175 9.60635 37.4319C9.67215 35.266 9.67215 35.266 10.4658 34.4325C11.4291 33.5493 12.602 33.641 13.8269 33.6404C13.9684 33.6401 14.1099 33.6398 14.2514 33.6394C14.5471 33.6389 14.8428 33.6387 15.1386 33.6388C15.5149 33.6388 15.8912 33.6375 16.2676 33.6359C16.5596 33.6348 16.8517 33.6346 17.1437 33.6347C17.2823 33.6346 17.4209 33.6342 17.5596 33.6334C20.0157 33.6217 20.0157 33.6217 20.886 34.4768C21.6336 35.3861 21.6101 36.4866 21.6269 37.6053C21.63 37.7501 21.6332 37.8949 21.6366 38.0397C21.6444 38.391 21.6507 38.7423 21.6562 39.0936C22.32 39.0738 22.9837 39.0521 23.6474 39.029C23.8729 39.0213 24.0984 39.0142 24.3239 39.0075C24.6493 38.9977 24.9746 38.9863 25.2999 38.9746C25.3997 38.972 25.4994 38.9693 25.6022 38.9666C26.5766 38.9286 27.4015 38.749 28.1249 38.0624C28.6076 37.4654 28.7145 36.7891 28.7929 36.0467C28.8007 35.9729 28.8085 35.899 28.8166 35.8228C28.9628 34.3412 29.1178 32.2051 28.1718 30.9363C27.5395 30.2381 26.8058 30.0581 25.89 30.0082C25.678 29.9985 25.4659 29.9904 25.2538 29.9823C25.1196 29.9759 24.9855 29.9694 24.8513 29.9627C24.4693 29.9444 24.0871 29.9299 23.7048 29.9161C23.4241 29.9056 23.1435 29.8937 22.8628 29.8819C21.2424 29.8177 19.6229 29.8016 18.0014 29.7926C17.7734 29.7912 17.5454 29.7899 17.3174 29.7885C16.3737 29.7831 15.4299 29.7778 14.4862 29.7747C13.9017 29.7728 13.3173 29.7695 12.7328 29.7653C12.5117 29.764 12.2905 29.7632 12.0694 29.7629C11.7633 29.7624 11.4572 29.7602 11.1511 29.7577C11.0603 29.758 10.9694 29.7582 10.8758 29.7585C10.7514 29.757 10.7514 29.757 10.6244 29.7554C10.5524 29.7551 10.4804 29.7548 10.4062 29.7544C10.1687 29.7091 10.0853 29.625 9.9374 29.4374C9.89346 29.2557 9.89346 29.2557 9.89053 29.0624C9.88763 28.9986 9.88473 28.9348 9.88174 28.869C9.9374 28.6874 9.9374 28.6874 10.1305 28.5379C10.467 28.377 10.7569 28.3648 11.122 28.3656C11.1925 28.3646 11.263 28.3637 11.3356 28.3627C11.5674 28.3599 11.7992 28.359 12.031 28.3582C12.1922 28.3566 12.3534 28.3549 12.5146 28.3531C12.9379 28.3486 13.3613 28.3458 13.7847 28.3434C14.217 28.3406 14.6494 28.3362 15.0817 28.332C15.9295 28.3239 16.7772 28.3176 17.6249 28.3124C17.6447 28.2564 17.6644 28.2004 17.6848 28.1427C18.0622 27.0781 18.4455 26.0313 18.9374 25.0135C19.0277 24.8249 19.1176 24.6361 19.2069 24.447C19.2454 24.3674 19.2838 24.2877 19.3234 24.2056C19.4236 23.9934 19.4236 23.9934 19.4062 23.7186C17.4537 22.6804 15.472 21.6999 13.4925 20.7146C13.3074 20.6224 13.1224 20.5299 12.9374 20.4374ZM20.8124 24.5624C20.336 25.4137 19.9033 26.2691 19.5409 27.1757C19.5085 27.2564 19.476 27.3372 19.4426 27.4204C19.2688 27.8532 19.2688 27.8532 19.2187 28.3124C20.0018 28.4166 20.7853 28.4377 21.5741 28.4589C21.644 28.4608 21.7139 28.4628 21.7859 28.4649C22.9928 28.499 24.1988 28.5109 25.4062 28.4999C24.856 26.9257 23.0842 25.8818 21.7499 25.0311C21.6677 24.9775 21.5855 24.9238 21.5009 24.8685C21.1823 24.6412 21.1823 24.6412 20.8124 24.5624ZM11.5348 35.392C11.4692 35.4725 11.4692 35.4725 11.4022 35.5546C11.357 35.6073 11.3118 35.6599 11.2653 35.7142C11.0028 36.1758 11.0474 36.7387 11.0467 37.256C11.0463 37.3304 11.046 37.4048 11.0457 37.4815C11.0452 37.6383 11.045 37.7951 11.045 37.9519C11.0448 38.1899 11.0431 38.4279 11.0413 38.6659C11.0411 38.819 11.0409 38.972 11.0408 39.1251C11.0401 39.1954 11.0394 39.2656 11.0388 39.338C11.0412 39.9184 11.104 40.4559 11.4198 40.9569C11.8195 41.3451 12.2632 41.3779 12.7997 41.4015C12.8689 41.405 12.9381 41.4085 13.0093 41.4121C13.7934 41.4483 14.5776 41.4515 15.3623 41.4496C15.6091 41.4491 15.8558 41.4496 16.1026 41.4502C16.8731 41.4507 17.6432 41.442 18.413 41.4073C18.4769 41.4053 18.5408 41.4032 18.6066 41.4011C19.1461 41.3718 19.531 41.2272 19.9042 40.8339C20.1257 40.4974 20.1674 40.2156 20.1727 39.8179C20.1739 39.7396 20.1752 39.6614 20.1764 39.5807C20.1771 39.4969 20.1778 39.413 20.1785 39.3265C20.1796 39.1958 20.1796 39.1958 20.1808 39.0624C20.1821 38.878 20.1831 38.6936 20.1838 38.5092C20.1849 38.3214 20.1868 38.1335 20.1896 37.9457C20.1936 37.6735 20.1951 37.4015 20.1961 37.1293C20.1985 37.0046 20.1985 37.0046 20.201 36.8774C20.1991 36.3244 20.1009 35.8966 19.7812 35.4374C19.3134 35.0749 18.8812 35.0506 18.3028 35.0488C18.2083 35.0483 18.2083 35.0483 18.1119 35.0478C17.904 35.0469 17.6962 35.0467 17.4883 35.0466C17.3433 35.0463 17.1983 35.046 17.0532 35.0457C16.7493 35.0451 16.4453 35.0449 16.1414 35.045C15.753 35.045 15.3647 35.0437 14.9763 35.0421C14.6767 35.0411 14.3771 35.0409 14.0775 35.0409C13.9344 35.0408 13.7913 35.0404 13.6482 35.0397C13.4474 35.0388 13.2466 35.039 13.0459 35.0396C12.9319 35.0395 12.8179 35.0393 12.7004 35.0392C12.2781 35.0693 11.8756 35.1285 11.5348 35.392ZM1.4999 39.3749C1.44069 42.0412 1.44069 42.0412 2.53115 44.3436C3.57723 45.234 5.29898 45.0563 6.59463 45.1039C6.74845 45.1098 6.74845 45.1098 6.90537 45.1158C9.48899 45.2127 12.073 45.216 14.658 45.2115C15.1062 45.2108 15.5543 45.211 16.0024 45.2118C18.6294 45.2163 21.2544 45.2042 23.8798 45.1039C23.9793 45.1002 24.0789 45.0966 24.1814 45.0928C26.325 45.1044 26.325 45.1044 28.1015 44.0858C28.7163 43.4021 28.7541 42.5496 28.8288 41.6752C28.8456 41.4784 28.8639 41.2818 28.8824 41.0853C28.9348 40.5135 28.9751 39.9496 28.9687 39.3749C28.9108 39.4122 28.8529 39.4496 28.7932 39.488C27.714 40.1632 26.7516 40.3148 25.4992 40.3592C25.3524 40.365 25.3524 40.365 25.2027 40.3708C24.7862 40.387 24.3696 40.4024 23.9531 40.4178C23.6481 40.4293 23.3432 40.4411 23.0382 40.453C22.9443 40.4563 22.8503 40.4596 22.7535 40.4631C22.6656 40.4665 22.5776 40.47 22.487 40.4735C22.3717 40.4778 22.3717 40.4778 22.2539 40.4821C22.0153 40.5011 21.7938 40.5316 21.5624 40.5936C21.4475 40.7835 21.4475 40.7835 21.3866 41.0214C21.1486 41.6869 20.7767 42.1768 20.1444 42.5096C19.6225 42.7511 19.0765 42.774 18.5093 42.8019C18.4312 42.8058 18.3531 42.8098 18.2726 42.8138C17.4025 42.8544 16.533 42.8583 15.662 42.8553C15.5395 42.855 15.5395 42.855 15.4146 42.8547C11.4903 42.843 11.4903 42.843 10.5585 42.1698C10.1276 41.7081 9.88648 41.1758 9.65615 40.5936C8.89011 40.521 8.12515 40.4854 7.35635 40.4596C7.2584 40.4562 7.16045 40.4528 7.05953 40.4492C6.65014 40.435 6.24076 40.4209 5.83131 40.4086C2.98235 40.3215 2.98235 40.3215 1.98623 39.6854C1.89281 39.6271 1.7994 39.5687 1.70315 39.5085C1.63608 39.4644 1.56901 39.4203 1.4999 39.3749Z" fill="#F4F4F4"/>
<path d="M14.1671 35.9962C14.5762 35.9886 14.9851 35.9865 15.3943 35.9877C15.603 35.9882 15.8117 35.9877 16.0204 35.9871C16.4303 35.9867 16.84 35.9916 17.2499 35.9999C17.3199 36.0011 17.3898 36.0024 17.4619 36.0037C17.6679 36.0083 17.8735 36.0157 18.0794 36.0241C18.2594 36.0304 18.2594 36.0304 18.4431 36.0369C18.8028 36.1034 18.9176 36.1698 19.1249 36.4686C19.2686 37.0302 19.2359 37.6152 19.2362 38.1913C19.2374 38.2943 19.2385 38.3972 19.2397 38.5033C19.2417 39.623 19.2417 39.623 19.0312 40.1249C18.4322 40.4918 17.809 40.4469 17.1239 40.4435C17.0037 40.4438 16.8834 40.444 16.7594 40.4443C16.5057 40.4447 16.252 40.4441 15.9983 40.4428C15.6745 40.4412 15.3509 40.4421 15.0271 40.4438C14.7163 40.4451 14.4055 40.4442 14.0946 40.4435C13.9791 40.4441 13.8636 40.4446 13.7445 40.4452C13.1579 40.4404 12.6994 40.4252 12.1874 40.1249C11.7853 39.3206 11.8633 37.4243 12.0937 36.5624C12.3352 36.2644 12.4793 36.1121 12.8583 36.0278C12.9687 36.0246 13.079 36.0215 13.1927 36.0182C13.284 36.0148 13.284 36.0148 13.3773 36.0114C13.6405 36.0028 13.9038 36.0011 14.1671 35.9962ZM13.5937 37.5936C13.5753 37.742 13.5579 37.8904 13.5409 38.039C13.5311 38.1216 13.5214 38.2043 13.5113 38.2894C13.4871 38.5564 13.4871 38.5564 13.5937 38.9061C14.9549 38.9061 16.3162 38.9061 17.7187 38.9061C17.7187 38.473 17.7187 38.0399 17.7187 37.5936C17.3229 37.4947 16.9623 37.4864 16.5581 37.4874C16.4824 37.4874 16.4066 37.4873 16.3285 37.4872C16.1686 37.4871 16.0087 37.4873 15.8488 37.4877C15.604 37.4882 15.3592 37.4877 15.1144 37.4871C14.9589 37.4871 14.8034 37.4873 14.648 37.4874C14.5747 37.4873 14.5015 37.4871 14.426 37.4869C14.124 37.4882 13.8823 37.4974 13.5937 37.5936Z" fill="#F4F4F4"/>
</g>
<defs>
<clipPath id="clip0_72_195">
<rect width="48" height="48" fill="white"/>
</clipPath>
</defs>
</svg>
