<svg width="48" height="48" viewBox="0 0 48 48" fill="none" xmlns="http://www.w3.org/2000/svg">
<g clip-path="url(#clip0_72_127)">
<path d="M7.15019 10.772C7.21403 10.7721 7.27788 10.7723 7.34366 10.7724C7.54614 10.7729 7.74861 10.7741 7.95109 10.7753C8.08897 10.7758 8.22685 10.7762 8.36473 10.7766C8.70146 10.7775 9.03818 10.7794 9.37492 10.7812C9.37492 11.338 9.37492 11.8949 9.37492 12.4687C9.06313 12.4723 9.06313 12.4723 8.74504 12.476C8.54147 12.4796 8.33793 12.4838 8.13438 12.4881C7.99401 12.4907 7.85363 12.4927 7.71324 12.4941C6.84229 12.5028 6.14232 12.5105 5.43852 13.0912C5.39755 13.141 5.35658 13.1908 5.31437 13.2421C5.2722 13.2909 5.23002 13.3397 5.18657 13.39C4.78122 14.0549 4.74028 14.656 4.74379 15.4162C4.74286 15.5752 4.74286 15.5752 4.7419 15.7375C4.74015 16.093 4.7404 16.4485 4.74064 16.804C4.73994 17.0632 4.73882 17.3224 4.73772 17.5815C4.73531 18.205 4.73433 18.8284 4.73387 19.4518C4.73326 20.1733 4.73086 20.8947 4.72847 21.6162C4.72303 23.5201 4.72002 25.4241 4.71672 27.328C4.70705 31.5819 4.69738 35.8358 4.68742 40.2187C17.4337 40.2187 30.1799 40.2187 43.3124 40.2187C43.3008 33.8436 43.3008 33.8436 43.289 27.3398C43.2875 25.9974 43.286 24.6551 43.2845 23.2721C43.2814 22.0696 43.2814 22.0696 43.2778 20.8671C43.2762 20.3312 43.2756 19.7954 43.2757 19.2595C43.2758 18.6411 43.2747 18.0228 43.2719 17.4045C43.2705 17.0883 43.27 16.7721 43.2706 16.456C43.2712 16.1168 43.2696 15.7778 43.2673 15.4387C43.2684 15.2918 43.2684 15.2918 43.2695 15.142C43.2611 14.4154 43.1246 13.7546 42.6595 13.1776C42.5984 13.1293 42.5374 13.081 42.4745 13.0312C42.4137 12.9809 42.353 12.9306 42.2903 12.8788C41.8419 12.5849 41.4554 12.5363 40.9229 12.5236C40.857 12.5218 40.791 12.52 40.7231 12.5181C40.514 12.5125 40.3048 12.5081 40.0956 12.5038C39.9532 12.5002 39.8108 12.4966 39.6684 12.4928C39.3206 12.4837 38.9728 12.4762 38.6249 12.4687C38.6249 11.9118 38.6249 11.3549 38.6249 10.7812C39.02 10.7746 39.4149 10.7691 39.81 10.7657C39.9439 10.7643 40.0778 10.7624 40.2117 10.7599C41.5412 10.7362 42.5287 10.967 43.6523 11.6894C44.3995 12.4169 44.9065 13.3603 44.9523 14.4132C44.9539 14.6085 44.9534 14.8038 44.9513 14.999C44.9516 15.1075 44.9519 15.2159 44.9522 15.3277C44.9529 15.6886 44.9508 16.0494 44.9487 16.4103C44.9484 16.67 44.9487 16.9296 44.9489 17.1893C44.9491 17.7471 44.9479 18.3049 44.9458 18.8627C44.9428 19.6692 44.9418 20.4756 44.9413 21.2821C44.9405 22.5907 44.938 23.8993 44.9345 25.208C44.931 26.4787 44.9284 27.7494 44.9268 29.02C44.9267 29.0985 44.9266 29.1769 44.9265 29.2577C44.926 29.6511 44.9255 30.0445 44.925 30.438C44.9212 33.6982 44.9146 36.9584 44.9062 40.2187C45.0402 40.2161 45.0402 40.2161 45.177 40.2135C45.2946 40.2122 45.4123 40.2109 45.5335 40.2095C45.6499 40.2078 45.7664 40.2061 45.8864 40.2044C46.6066 40.2354 47.0789 40.5582 47.5773 41.0555C47.9646 41.5883 48.0497 42.0727 48.0409 42.7148C48.0402 42.7887 48.0394 42.8627 48.0386 42.9389C48.001 44.2567 47.4368 45.563 46.4999 46.4999C45.4323 47.3985 44.3132 48.0224 42.8928 48.024C42.8261 48.0244 42.7595 48.0247 42.6908 48.025C42.4685 48.0259 42.2462 48.0254 42.024 48.025C41.8626 48.0253 41.7011 48.0258 41.5397 48.0263C41.097 48.0274 40.6542 48.0274 40.2115 48.0272C39.7336 48.0271 39.2558 48.0282 38.7779 48.0291C37.842 48.0306 36.9061 48.0311 35.9702 48.0312C35.2094 48.0313 34.4485 48.0317 33.6876 48.0323C31.5297 48.034 29.3717 48.0348 27.2138 48.0347C27.0975 48.0347 26.9812 48.0347 26.8613 48.0347C26.7449 48.0346 26.6284 48.0346 26.5085 48.0346C24.6215 48.0346 22.7346 48.0364 20.8476 48.039C18.9094 48.0417 16.9712 48.043 15.0331 48.0428C13.9452 48.0428 12.8573 48.0433 11.7695 48.0453C10.8432 48.047 9.91689 48.0474 8.99059 48.0461C8.51822 48.0455 8.04587 48.0455 7.57351 48.0471C7.14052 48.0486 6.70757 48.0483 6.27458 48.0467C6.1185 48.0464 5.96242 48.0468 5.80634 48.0478C4.22351 48.0577 3.06212 47.6547 1.76359 46.7636C0.650517 45.6505 -0.0325364 44.3317 -0.0352358 42.7499C-0.037532 42.6791 -0.0398281 42.6083 -0.0421938 42.5353C-0.0455457 41.885 0.149227 41.4147 0.576336 40.9254C0.679663 40.8366 0.679663 40.8366 0.785077 40.746C0.887678 40.655 0.887678 40.655 0.992352 40.5622C1.46411 40.237 1.90965 40.1963 2.47258 40.2069C2.58932 40.2086 2.70606 40.2103 2.82634 40.2121C2.95867 40.2153 2.95867 40.2153 3.09367 40.2187C3.09353 40.1633 3.09339 40.108 3.09324 40.0509C3.08484 36.7684 3.07841 33.4858 3.07452 30.2032C3.07405 29.8088 3.07357 29.4144 3.07307 29.02C3.07292 28.9023 3.07292 28.9023 3.07277 28.7821C3.07114 27.5118 3.06819 26.2416 3.06474 24.9713C3.06123 23.6673 3.05915 22.3633 3.05839 21.0593C3.05787 20.255 3.05625 19.4508 3.0532 18.6465C3.05122 18.0946 3.05062 17.5426 3.05111 16.9907C3.05135 16.6725 3.05078 16.3544 3.04897 16.0362C3.0471 15.6905 3.04755 15.3448 3.04857 14.999C3.04748 14.8995 3.04639 14.8 3.04526 14.6975C3.05427 13.5656 3.46428 12.6512 4.21867 11.8124C5.04782 11.0923 6.06707 10.7675 7.15019 10.772ZM1.78117 42.0937C1.50627 42.506 1.54611 42.8799 1.63725 43.3494C1.87295 44.235 2.34646 45.1042 3.09367 45.6562C3.82886 46.0798 4.49995 46.4181 5.36305 46.4177C5.50847 46.418 5.50847 46.418 5.65682 46.4183C5.81564 46.4179 5.81564 46.4179 5.97767 46.4174C6.1471 46.4176 6.1471 46.4176 6.31995 46.4177C6.63315 46.4178 6.94634 46.4175 7.25954 46.417C7.59741 46.4166 7.93527 46.4168 8.27314 46.4168C8.85841 46.4169 9.44368 46.4166 10.0289 46.4161C10.8751 46.4153 11.7213 46.4151 12.5675 46.415C13.9404 46.4147 15.3134 46.4141 16.6863 46.4132C18.0199 46.4124 19.3535 46.4117 20.6872 46.4113C20.7694 46.4113 20.8516 46.4113 20.9363 46.4112C21.3487 46.4111 21.7611 46.411 22.1735 46.4109C25.5948 46.4099 29.0161 46.4082 32.4374 46.4062C32.4374 45.3852 32.4374 44.3643 32.4374 43.3124C34.0152 43.3124 35.593 43.3124 37.2187 43.3124C37.2187 44.3334 37.2187 45.3543 37.2187 46.4062C37.6827 46.4062 38.1468 46.4062 38.6249 46.4062C38.6249 45.3852 38.6249 44.3643 38.6249 43.3124C40.2027 43.3124 41.7805 43.3124 43.4062 43.3124C43.4062 44.3024 43.4062 45.2924 43.4062 46.3124C44.5382 45.9351 45.3985 45.4302 45.9913 44.3579C46.2886 43.7248 46.512 43.0829 46.4062 42.3749C46.207 42.0521 46.111 41.9328 45.7499 41.8124C45.543 41.8038 45.3359 41.801 45.1288 41.8011C45.0337 41.801 45.0337 41.801 44.9367 41.8009C44.7238 41.8007 44.5109 41.8013 44.298 41.8018C44.1456 41.8018 43.9931 41.8018 43.8407 41.8017C43.4264 41.8017 43.0121 41.8023 42.5978 41.8029C42.165 41.8035 41.7322 41.8035 41.2994 41.8037C40.4797 41.804 39.6599 41.8047 38.8402 41.8057C37.907 41.8067 36.9738 41.8072 36.0406 41.8077C34.1208 41.8087 32.201 41.8103 30.2812 41.8124C30.2695 41.9156 30.2579 42.0188 30.2459 42.1251C30.2299 42.2617 30.2138 42.3983 30.1977 42.5349C30.1901 42.6028 30.1825 42.6707 30.1747 42.7406C30.0949 43.4077 29.9354 43.8457 29.455 44.3261C28.8315 44.754 28.3549 44.8543 27.6141 44.8518C27.4846 44.853 27.4846 44.853 27.3524 44.8542C27.0683 44.8564 26.7842 44.8565 26.5 44.8564C26.3014 44.857 26.1028 44.8577 25.9042 44.8585C25.4884 44.8598 25.0726 44.8599 24.6567 44.8594C24.1255 44.8588 23.5944 44.8617 23.0633 44.8655C22.6532 44.8679 22.2431 44.8682 21.833 44.8678C21.6372 44.868 21.4415 44.8689 21.2457 44.8706C19.1553 44.8865 19.1553 44.8865 18.4111 44.2051C17.959 43.7086 17.8705 43.1734 17.8007 42.5331C17.7926 42.4637 17.7845 42.3943 17.7762 42.3227C17.7564 42.1527 17.7375 41.9826 17.7187 41.8124C15.7099 41.8058 13.7011 41.8009 11.6923 41.7978C10.7596 41.7964 9.82694 41.7944 8.89425 41.7912C8.08137 41.7884 7.26851 41.7866 6.45563 41.786C6.02516 41.7856 5.5947 41.7847 5.16423 41.7827C4.75909 41.7808 4.35398 41.7802 3.94884 41.7806C3.80012 41.7805 3.65141 41.78 3.5027 41.7789C3.29962 41.7775 3.09662 41.7778 2.89354 41.7786C2.7799 41.7783 2.66626 41.7781 2.54918 41.7778C2.21793 41.8161 2.04533 41.8934 1.78117 42.0937ZM19.4062 41.8124C19.315 42.756 19.315 42.756 19.5909 43.1389C19.9545 43.361 20.2556 43.3771 20.6694 43.3701C20.7483 43.3706 20.8272 43.3711 20.9084 43.3717C21.1685 43.3728 21.4284 43.3705 21.6884 43.3681C21.8695 43.3679 22.0505 43.3679 22.2316 43.3681C22.6109 43.3679 22.99 43.3662 23.3693 43.3632C23.8551 43.3595 24.3408 43.3591 24.8266 43.3598C25.2005 43.3601 25.5743 43.3589 25.9481 43.3573C26.1272 43.3567 26.3063 43.3564 26.4854 43.3565C26.7359 43.3563 26.9862 43.3543 27.2367 43.3518C27.3105 43.3521 27.3844 43.3523 27.4604 43.3526C27.8845 43.346 28.1635 43.2958 28.4999 43.0312C28.6705 42.7249 28.6705 42.7249 28.5937 41.8124C25.5618 41.8124 22.5299 41.8124 19.4062 41.8124ZM34.1249 44.9062C34.1249 45.4012 34.1249 45.8962 34.1249 46.4062C34.589 46.4062 35.053 46.4062 35.5312 46.4062C35.5312 45.9112 35.5312 45.4162 35.5312 44.9062C35.0671 44.9062 34.603 44.9062 34.1249 44.9062ZM40.3124 44.9062C40.3124 45.4012 40.3124 45.8962 40.3124 46.4062C40.7765 46.4062 41.2405 46.4062 41.7187 46.4062C41.7187 45.9112 41.7187 45.4162 41.7187 44.9062C41.2546 44.9062 40.7905 44.9062 40.3124 44.9062Z" fill="#F4F4F4"/>
<path d="M7.80675 13.8638C7.92921 13.8636 7.92921 13.8636 8.05413 13.8634C8.14342 13.8637 8.2327 13.864 8.32469 13.8644C8.41891 13.8644 8.51313 13.8644 8.61021 13.8643C8.92218 13.8644 9.23415 13.8651 9.54611 13.8659C9.76221 13.866 9.9783 13.8662 10.1944 13.8663C10.7636 13.8666 11.3327 13.8676 11.9019 13.8686C12.4826 13.8695 13.0632 13.87 13.6438 13.8704C14.7834 13.8715 15.923 13.8731 17.0626 13.875C17.0626 14.4319 17.0626 14.9888 17.0626 15.5625C13.9998 15.5625 10.937 15.5625 7.78134 15.5625C7.78134 22.6782 7.78134 29.7938 7.78134 37.125C8.77134 37.125 9.76134 37.125 10.7813 37.125C10.7813 35.64 10.7813 34.155 10.7813 32.625C11.462 32.4085 12.1426 32.1919 12.8438 31.9688C13.3597 31.1571 13.3597 31.1571 13.492 30.2399C13.358 29.8648 13.1695 29.5227 12.9786 29.1739C12.9388 29.1 12.899 29.0261 12.8579 28.9499C12.76 28.7684 12.6615 28.5873 12.5626 28.4063C13.0021 27.8779 13.472 27.3909 13.9593 26.9066C14.0376 26.8285 14.1159 26.7504 14.1965 26.6698C14.4446 26.4223 14.6931 26.175 14.9415 25.9278C15.1106 25.7591 15.2797 25.5905 15.4487 25.4218C15.8614 25.0102 16.2744 24.5987 16.6876 24.1875C16.7396 24.2126 16.7916 24.2377 16.8452 24.2635C17.0815 24.3772 17.3181 24.4904 17.5548 24.6035C17.6366 24.643 17.7184 24.6825 17.8027 24.7231C17.8819 24.7609 17.961 24.7986 18.0426 24.8376C18.1516 24.8898 18.1516 24.8898 18.2628 24.9432C18.6298 25.1001 18.7705 25.1516 19.1577 25.0111C19.2743 24.9584 19.3903 24.9045 19.506 24.8496C20.1228 24.5625 20.1228 24.5625 20.4376 24.5625C20.4482 24.4695 20.4589 24.3764 20.4698 24.2805C20.5252 23.8933 20.6382 23.5368 20.7657 23.168C20.7869 23.1047 20.808 23.0413 20.8298 22.9761C20.9869 22.5132 20.9869 22.5132 21.0938 22.4063C21.2751 22.3975 21.4566 22.3953 21.6381 22.3956C21.7544 22.3956 21.8708 22.3956 21.9907 22.3957C22.1186 22.3961 22.2465 22.3966 22.3745 22.3971C22.5047 22.3973 22.6348 22.3974 22.765 22.3975C23.1083 22.3979 23.4515 22.3988 23.7947 22.3998C24.1447 22.4008 24.4948 22.4012 24.8448 22.4017C25.532 22.4027 26.2191 22.4043 26.9063 22.4063C26.9655 22.553 27.0246 22.6997 27.0836 22.8465C27.1329 22.969 27.1329 22.969 27.1833 23.0941C27.5626 24.06 27.5626 24.06 27.5626 24.5625C27.7424 24.5973 27.7424 24.5973 27.9259 24.6328C28.2669 24.7039 28.5345 24.8132 28.8429 24.9727C29.1346 25.0918 29.2855 25.1383 29.5951 25.0676C29.8544 24.9526 30.0953 24.8232 30.3399 24.6797C30.4251 24.6333 30.5103 24.5869 30.5981 24.5391C30.8069 24.4248 31.0134 24.3077 31.2188 24.1875C31.7472 24.627 32.2343 25.0969 32.7185 25.5843C32.8357 25.7017 32.8357 25.7017 32.9553 25.8215C33.2029 26.0696 33.4501 26.318 33.6974 26.5664C33.866 26.7355 34.0346 26.9046 34.2033 27.0736C34.615 27.4864 35.0264 27.8993 35.4376 28.3125C34.6876 29.8125 34.6876 29.8125 34.5809 30.0092C34.4677 30.2591 34.5223 30.3938 34.5938 30.6563C34.6135 30.7585 34.6332 30.8608 34.6535 30.9661C34.7587 31.3759 34.7587 31.3759 35.1563 31.9688C36.1773 32.2936 36.1773 32.2936 37.2188 32.625C37.2188 34.11 37.2188 35.595 37.2188 37.125C38.2088 37.125 39.1988 37.125 40.2188 37.125C40.2188 30.0094 40.2188 22.8938 40.2188 15.5625C37.156 15.5625 34.0932 15.5625 30.9376 15.5625C30.9376 15.0057 30.9376 14.4488 30.9376 13.875C32.1837 13.8663 33.4297 13.8597 34.6758 13.8556C35.2544 13.8536 35.833 13.851 36.4117 13.8467C36.9703 13.8427 37.5289 13.8404 38.0876 13.8394C38.3005 13.8388 38.5134 13.8374 38.7262 13.8354C39.0249 13.8326 39.3236 13.8323 39.6223 13.8325C39.7537 13.8304 39.7537 13.8304 39.8877 13.8284C40.449 13.8319 40.8762 13.9288 41.3438 14.25C41.6604 14.5909 41.824 14.8207 41.8252 15.2833C41.8256 15.3626 41.826 15.4419 41.8264 15.5237C41.8264 15.6551 41.8264 15.6551 41.8264 15.7893C41.8267 15.882 41.8271 15.9747 41.8274 16.0703C41.8285 16.383 41.8288 16.6957 41.8292 17.0084C41.8298 17.2318 41.8304 17.4552 41.8311 17.6786C41.8329 18.3505 41.8339 19.0225 41.8347 19.6944C41.8351 20.0108 41.8356 20.3272 41.8361 20.6435C41.8377 21.6952 41.839 22.7469 41.8397 23.7986C41.8399 24.0716 41.8401 24.3446 41.8403 24.6176C41.8403 24.6854 41.8404 24.7533 41.8404 24.8232C41.8412 25.9221 41.8436 27.0211 41.8466 28.1201C41.8497 29.2482 41.8514 30.3763 41.8517 31.5045C41.8519 32.138 41.8527 32.7714 41.8551 33.4049C41.8573 34.0008 41.8577 34.5968 41.8567 35.1928C41.8567 35.4116 41.8573 35.6303 41.8586 35.8491C41.8602 36.1478 41.8596 36.4463 41.8583 36.745C41.8599 36.8749 41.8599 36.8749 41.8614 37.0074C41.8559 37.5633 41.7808 37.8986 41.4376 38.3438C40.8449 38.8439 40.1757 38.7714 39.4327 38.7664C39.2941 38.7668 39.1556 38.7674 39.0171 38.7682C38.6371 38.7697 38.2572 38.769 37.8773 38.7678C37.4673 38.7669 37.0573 38.7683 36.6472 38.7693C35.8443 38.771 35.0414 38.7706 34.2384 38.7695C33.5859 38.7687 32.9333 38.7686 32.2808 38.769C32.1879 38.769 32.095 38.7691 31.9994 38.7691C31.8107 38.7693 31.622 38.7694 31.4334 38.7695C29.6642 38.7706 27.8951 38.7693 26.1259 38.7673C24.6079 38.7656 23.0898 38.7659 21.5717 38.7677C19.8089 38.7697 18.0461 38.7705 16.2833 38.7693C16.0953 38.7692 15.9074 38.7691 15.7194 38.769C15.5807 38.7689 15.5807 38.7689 15.4392 38.7688C14.7874 38.7685 14.1356 38.769 13.4838 38.7699C12.6895 38.7709 11.8952 38.7707 11.1009 38.7687C10.6957 38.7677 10.2904 38.7673 9.88515 38.7685C9.51412 38.7696 9.14313 38.769 8.7721 38.767C8.63792 38.7666 8.50373 38.7668 8.36955 38.7677C7.0746 38.7758 7.0746 38.7758 6.56259 38.3438C6.16088 37.8222 6.13373 37.3919 6.13997 36.7475C6.1391 36.6077 6.1391 36.6077 6.1382 36.4651C6.13671 36.1536 6.13789 35.8422 6.13907 35.5307C6.13856 35.3071 6.13789 35.0835 6.13708 34.8598C6.13555 34.316 6.13577 33.7721 6.13686 33.2283C6.13771 32.7862 6.13782 32.3442 6.13741 31.9021C6.13735 31.8392 6.1373 31.7762 6.13724 31.7113C6.13712 31.5834 6.137 31.4554 6.13687 31.3275C6.1358 30.1286 6.13703 28.9297 6.13905 27.7308C6.14072 26.7025 6.14043 25.6742 6.1387 24.6459C6.1367 23.451 6.13591 22.2562 6.13706 21.0614C6.13718 20.934 6.1373 20.8065 6.13741 20.6791C6.13747 20.6164 6.13753 20.5537 6.13759 20.4891C6.13791 20.0476 6.13737 19.6062 6.13648 19.1647C6.1354 18.5704 6.13615 17.9761 6.13832 17.3819C6.13881 17.1636 6.13867 16.9454 6.13784 16.7272C6.13682 16.4296 6.1381 16.132 6.13997 15.8344C6.13914 15.7478 6.1383 15.6613 6.13744 15.5721C6.14376 15.0542 6.21337 14.7522 6.56259 14.3438C6.97432 14.0329 7.29068 13.8631 7.80675 13.8638ZM22.3126 24C22.1482 24.3796 21.991 24.7517 21.8731 25.1485C21.8496 25.2263 21.826 25.3041 21.8017 25.3843C21.7389 25.6033 21.7389 25.6033 21.7501 25.875C21.6437 25.8924 21.5374 25.9098 21.4278 25.9278C20.9597 26.0308 20.5279 26.2028 20.086 26.3848C20.0173 26.413 19.9486 26.4411 19.8779 26.4701C19.5836 26.5937 19.3278 26.7082 19.065 26.892C18.8438 27 18.8438 27 18.5692 26.9429C18.1744 26.7641 17.7981 26.5583 17.4193 26.3482C17.1724 26.2248 17.1724 26.2248 16.9842 26.307C16.7134 26.4813 16.4971 26.6987 16.273 26.9275C16.2257 26.9751 16.1784 27.0227 16.1296 27.0717C15.9792 27.2232 15.8295 27.3753 15.6798 27.5274C15.5777 27.6304 15.4755 27.7335 15.3733 27.8365C15.1234 28.0884 14.8741 28.3409 14.6251 28.5938C14.7833 29.0883 14.9995 29.493 15.2678 29.9359C15.3973 30.2397 15.3878 30.3468 15.2813 30.6563C15.1825 30.8617 15.0784 31.0647 14.9708 31.2657C14.6412 31.8986 14.2501 32.65 14.2501 33.375C14.165 33.3828 14.0799 33.3905 13.9923 33.3985C13.4713 33.4904 12.9708 33.6765 12.4688 33.8438C12.4688 34.9266 12.4688 36.0094 12.4688 37.125C13.4898 37.125 14.5107 37.125 15.5626 37.125C15.5549 36.7093 15.5471 36.2936 15.5392 35.8653C15.524 33.3977 16.2673 31.3111 18.0092 29.5141C19.7289 27.8094 21.8956 27.1608 24.2653 27.1578C26.5818 27.1839 28.618 28.128 30.2461 29.7705C31.5668 31.1615 32.4553 33.1262 32.4467 35.0559C32.4465 35.1649 32.4463 35.2739 32.446 35.3862C32.4452 35.523 32.4443 35.6598 32.4435 35.8008C32.4415 36.2378 32.4396 36.6748 32.4376 37.125C33.4585 37.125 34.4795 37.125 35.5313 37.125C35.5313 36.0422 35.5313 34.9594 35.5313 33.8438C34.6547 33.5178 34.6547 33.5178 33.7501 33.375C33.7363 33.309 33.7225 33.2431 33.7083 33.1751C33.5138 32.3187 33.2373 31.4287 32.7423 30.694C32.6251 30.4688 32.6251 30.4688 32.6328 30.2436C32.782 29.8212 33.0248 29.4516 33.2531 29.068C33.4028 28.8028 33.4028 28.8028 33.3196 28.6076C33.1433 28.3388 32.9261 28.1217 32.6976 27.898C32.6262 27.827 32.6262 27.827 32.5534 27.7546C32.4019 27.6042 32.2499 27.4544 32.0977 27.3047C31.9947 27.2026 31.8917 27.1004 31.7887 26.9982C31.5367 26.7483 31.2842 26.499 31.0313 26.25C30.5208 26.4138 30.0828 26.6399 29.6159 26.9019C29.3438 27 29.3438 27 29.1201 26.9425C29.0392 26.8996 28.9584 26.8567 28.8751 26.8125C28.7607 26.7611 28.6459 26.7105 28.5309 26.6605C28.4689 26.6329 28.407 26.6053 28.3432 26.5769C27.3324 26.0811 27.3324 26.0811 26.2501 25.875C26.2124 25.6952 26.2124 25.6952 26.1739 25.5117C26.0442 24.6993 26.0442 24.6993 25.6876 24C25.4376 23.9917 25.1901 23.9892 24.9402 23.9909C24.8654 23.991 24.7906 23.9911 24.7136 23.9913C24.4738 23.9918 24.234 23.993 23.9942 23.9942C23.8321 23.9946 23.6699 23.9951 23.5077 23.9954C23.1093 23.9965 22.711 23.9981 22.3126 24ZM18.7501 31.0313C17.5576 32.445 16.9396 34.2506 17.0626 36.0938C17.1245 36.4341 17.1863 36.7744 17.2501 37.125C18.271 37.125 19.292 37.125 20.3438 37.125C20.282 36.7847 20.2201 36.4444 20.1563 36.0938C20.0816 34.9124 20.361 33.9385 21.0938 33C21.7543 32.2666 22.7201 31.8486 23.6914 31.7575C24.8336 31.7111 25.8622 32.0494 26.7188 32.8125C27.4758 33.5957 27.8326 34.5145 27.8614 35.5957C27.8438 36.0938 27.8438 36.0938 27.6563 37.125C28.6773 37.125 29.6982 37.125 30.7501 37.125C31.0845 35.2856 30.9353 33.5898 29.917 31.9684C29.7343 31.7104 29.5433 31.4639 29.3438 31.2188C29.2872 31.1457 29.2305 31.0725 29.1721 30.9972C28.0798 29.6658 26.4318 28.9215 24.7501 28.6875C22.4053 28.555 20.3894 29.3331 18.7501 31.0313ZM22.3236 34.0254C21.8123 34.6775 21.6557 35.2698 21.7501 36.0938C21.8741 36.4897 22.0176 36.83 22.3126 37.125C22.5636 37.1472 22.8046 37.1581 23.056 37.1598C23.1298 37.1607 23.2035 37.1615 23.2795 37.1624C23.4357 37.1637 23.5919 37.1646 23.7481 37.1649C23.9868 37.166 24.2254 37.1706 24.4641 37.1754C24.6158 37.1763 24.7675 37.1769 24.9193 37.1774C24.9906 37.1792 25.0619 37.1811 25.1353 37.1829C25.4972 37.1799 25.6522 37.1595 25.9158 36.9028C26.267 36.3131 26.3372 35.7383 26.2501 35.0625C26.0364 34.3698 25.6614 33.9158 25.0313 33.5625C24.1158 33.1309 23.0339 33.2945 22.3236 34.0254Z" fill="#F4F4F4"/>
<path d="M31.6875 0C34.7812 0 37.875 0 41.0625 0C41.0625 2.56781 41.0625 5.13562 41.0625 7.78125C39.7941 7.78125 38.5256 7.78125 37.2188 7.78125C37.2188 9.32812 37.2188 10.875 37.2188 12.4688C34.6509 12.4688 32.0831 12.4688 29.4375 12.4688C29.4375 15.2531 29.4375 18.0375 29.4375 20.9062C28.9116 20.9062 28.3856 20.9062 27.8438 20.9062C27.8438 17.565 27.8438 14.2238 27.8438 10.7812C30.3806 10.7812 32.9175 10.7812 35.5312 10.7812C35.5312 9.79125 35.5312 8.80125 35.5312 7.78125C34.2628 7.78125 32.9944 7.78125 31.6875 7.78125C31.6875 5.21344 31.6875 2.64562 31.6875 0ZM33.375 1.59375C33.375 3.10969 33.375 4.62563 33.375 6.1875C35.3859 6.1875 37.3969 6.1875 39.4688 6.1875C39.4688 4.67156 39.4688 3.15562 39.4688 1.59375C37.4578 1.59375 35.4469 1.59375 33.375 1.59375Z" fill="#F4F4F4"/>
<path d="M6.9375 0C10.0312 0 13.125 0 16.3125 0C16.3125 2.56781 16.3125 5.13562 16.3125 7.78125C15.0441 7.78125 13.7756 7.78125 12.4688 7.78125C12.4688 8.77125 12.4688 9.76125 12.4688 10.7812C15.0056 10.7812 17.5425 10.7812 20.1562 10.7812C20.1562 14.1225 20.1562 17.4637 20.1562 20.9062C19.6303 20.9062 19.1044 20.9062 18.5625 20.9062C18.5625 18.1219 18.5625 15.3375 18.5625 12.4688C15.9947 12.4688 13.4269 12.4688 10.7812 12.4688C10.7812 10.9219 10.7812 9.375 10.7812 7.78125C9.51281 7.78125 8.24437 7.78125 6.9375 7.78125C6.9375 5.21344 6.9375 2.64562 6.9375 0ZM8.53125 1.59375C8.53125 3.10969 8.53125 4.62563 8.53125 6.1875C10.5422 6.1875 12.5531 6.1875 14.625 6.1875C14.625 4.67156 14.625 3.15562 14.625 1.59375C12.6141 1.59375 10.6031 1.59375 8.53125 1.59375Z" fill="#F4F4F4"/>
<path d="M19.3125 0C22.4062 0 25.5 0 28.6875 0C28.6875 2.56781 28.6875 5.13562 28.6875 7.78125C27.4191 7.78125 26.1506 7.78125 24.8438 7.78125C24.8438 12.1125 24.8438 16.4438 24.8438 20.9062C24.2869 20.9062 23.73 20.9062 23.1562 20.9062C23.1562 16.575 23.1562 12.2437 23.1562 7.78125C21.8878 7.78125 20.6194 7.78125 19.3125 7.78125C19.3125 5.21344 19.3125 2.64562 19.3125 0ZM20.9062 1.59375C20.9062 3.10969 20.9062 4.62563 20.9062 6.1875C22.9481 6.1875 24.99 6.1875 27.0938 6.1875C27.0938 4.67156 27.0938 3.15562 27.0938 1.59375C25.0519 1.59375 23.01 1.59375 20.9062 1.59375Z" fill="#F4F4F4"/>
<path d="M34.7812 3.09375C35.8331 3.09375 36.885 3.09375 37.9688 3.09375C37.9688 3.61969 37.9688 4.14562 37.9688 4.6875C36.9169 4.6875 35.865 4.6875 34.7812 4.6875C34.7812 4.16156 34.7812 3.63563 34.7812 3.09375Z" fill="#F4F4F4"/>
<path d="M22.4062 3.09375C23.4581 3.09375 24.51 3.09375 25.5938 3.09375C25.5938 3.61969 25.5938 4.14562 25.5938 4.6875C24.5419 4.6875 23.49 4.6875 22.4062 4.6875C22.4062 4.16156 22.4062 3.63563 22.4062 3.09375Z" fill="#F4F4F4"/>
<path d="M10.0312 3.09375C11.0831 3.09375 12.135 3.09375 13.2188 3.09375C13.2188 3.61969 13.2188 4.14562 13.2188 4.6875C12.1669 4.6875 11.115 4.6875 10.0312 4.6875C10.0312 4.16156 10.0312 3.63563 10.0312 3.09375Z" fill="#F4F4F4"/>
</g>
<defs>
<clipPath id="clip0_72_127">
<rect width="48" height="48" fill="white"/>
</clipPath>
</defs>
</svg>
