<svg width="48" height="48" viewBox="0 0 48 48" fill="none" xmlns="http://www.w3.org/2000/svg">
<path d="M23.5546 6.72075C23.6184 6.71803 23.6822 6.71531 23.748 6.71251C24.067 6.70849 24.2596 6.7368 24.5333 6.90494C24.8053 7.18128 24.8091 7.30402 24.8106 7.68663C24.812 7.79989 24.8135 7.91314 24.815 8.02983C24.8141 8.15181 24.8131 8.27379 24.8122 8.39946C24.8125 8.52624 24.8129 8.65302 24.8135 8.77981C24.8142 9.04525 24.8132 9.31062 24.811 9.57605C24.8084 9.91594 24.8099 10.2557 24.8127 10.5955C24.8144 10.8573 24.8139 11.1189 24.8126 11.3807C24.8122 11.5668 24.8136 11.7529 24.815 11.939C24.8128 12.1089 24.8128 12.1089 24.8106 12.2822C24.8102 12.3818 24.8098 12.4815 24.8094 12.5841C24.7499 12.8438 24.7499 12.8438 24.5296 13.0636C24.2246 13.2542 24.0387 13.2642 23.6809 13.2627C23.5666 13.2641 23.4522 13.2654 23.3343 13.2668C23.0948 13.266 22.8553 13.2653 22.6158 13.2646C21.7758 13.2595 21.7758 13.2595 21.0937 13.6875C20.913 13.9782 20.9056 14.1405 20.9179 14.4844C21.0078 14.8439 21.1145 15.0209 21.3749 15.2813C21.6765 15.3818 21.9037 15.3897 22.2209 15.3948C22.332 15.3975 22.4432 15.4001 22.5578 15.4029C22.7919 15.4077 23.026 15.4119 23.2602 15.4153C23.3716 15.4182 23.483 15.4211 23.5978 15.4241C23.6996 15.426 23.8014 15.4278 23.9063 15.4298C24.2215 15.4735 24.4012 15.5625 24.6562 15.75C24.7999 16.0375 24.7613 16.338 24.7591 16.6531C24.7589 16.7589 24.7589 16.7589 24.7587 16.8667C24.7581 17.0922 24.757 17.3176 24.7558 17.543C24.7553 17.6957 24.7549 17.8484 24.7545 18.0011C24.7535 18.3758 24.7517 18.7504 24.7499 19.125C25.6471 19.125 26.5443 19.125 27.4687 19.125C27.4609 18.835 27.4532 18.545 27.4452 18.2461C27.4382 17.2965 27.5315 16.6283 28.1835 15.9024C28.883 15.2672 29.5994 15.1214 30.5309 15.1517C31.2544 15.2347 31.862 15.5798 32.3437 16.125C32.6998 16.6556 32.9197 17.126 32.9153 17.7701C32.915 17.8492 32.9147 17.9284 32.9144 18.0099C32.9136 18.0918 32.9128 18.1736 32.912 18.2579C32.9116 18.3411 32.9112 18.4244 32.9107 18.5102C32.9096 18.7151 32.9081 18.9201 32.9062 19.125C33.0173 19.1231 33.1285 19.1211 33.243 19.1191C33.6562 19.1123 34.0694 19.108 34.4826 19.1044C34.6613 19.1026 34.84 19.1 35.0186 19.0968C35.2758 19.0922 35.5329 19.0901 35.7901 19.0884C35.8697 19.0865 35.9493 19.0846 36.0313 19.0826C36.4128 19.0824 36.6076 19.0951 36.9397 19.2997C37.2261 19.6095 37.2224 19.8682 37.2145 20.2794C37.1035 22.6825 36.4635 24.8587 35.2184 26.9173C35.1412 27.0511 35.1412 27.0511 35.0624 27.1875C34.9973 27.2994 34.9973 27.2994 34.9309 27.4135C34.847 27.7773 34.9831 28.0421 35.1386 28.3653C35.1686 28.4282 35.1987 28.4911 35.2296 28.5559C35.4153 28.9143 35.5732 29.1607 35.9472 29.3438C36.5735 29.5297 37.0587 29.3741 37.6464 29.1504C38.3775 28.8785 38.3775 28.8785 38.8124 28.9688C39.0981 29.1516 39.3243 29.385 39.5624 29.625C39.6674 29.7279 39.7725 29.8307 39.8777 29.9334C40.8597 30.8991 40.8597 30.8991 40.9101 31.336C40.9091 31.8539 40.6937 32.3057 40.4995 32.7781C40.3614 33.2451 40.4657 33.5369 40.597 33.9954C40.8467 34.4254 41.1217 34.523 41.5722 34.6993C41.7151 34.7569 41.8576 34.8157 41.9995 34.8758C42.0941 34.913 42.0941 34.913 42.1905 34.9509C42.4524 35.1095 42.586 35.2725 42.7499 35.5313C42.7999 35.8439 42.7999 35.8439 42.803 36.1963C42.8036 36.2591 42.8042 36.3218 42.8048 36.3864C42.8054 36.5185 42.8051 36.6505 42.804 36.7826C42.8027 36.9839 42.8059 37.1849 42.8094 37.3862C42.8095 37.5149 42.8093 37.6437 42.8089 37.7725C42.809 37.947 42.809 37.947 42.8091 38.125C42.7338 38.5227 42.5925 38.6554 42.2812 38.9063C42.0962 39.015 42.0962 39.015 41.9204 39.0865C41.8561 39.1145 41.7917 39.1424 41.7254 39.1713C41.6594 39.1998 41.5933 39.2284 41.5253 39.2579C40.8977 39.5434 40.8977 39.5434 40.4941 40.084C40.326 40.6676 40.4825 41.1167 40.6933 41.6661C40.8654 42.1327 40.9641 42.4432 40.8749 42.9375C40.6945 43.2268 40.4615 43.45 40.2187 43.6875C40.1248 43.7843 40.0312 43.8812 39.9378 43.9783C39.8382 44.0807 39.7384 44.183 39.6386 44.2852C39.5907 44.3344 39.5428 44.3835 39.4935 44.4342C39.0376 44.8906 39.0376 44.8906 38.7187 45C38.1522 44.9909 37.7511 44.8577 37.2304 44.6368C36.7776 44.4728 36.4751 44.3885 36.0116 44.543C35.3488 44.9106 35.1194 45.6528 34.8656 46.3293C34.7612 46.5405 34.6961 46.6461 34.4999 46.7813C34.2552 46.8115 34.0333 46.8252 33.7884 46.8252C33.7189 46.826 33.6494 46.8267 33.5779 46.8274C33.4311 46.8284 33.2843 46.8287 33.1374 46.8283C32.9131 46.8282 32.689 46.8321 32.4647 46.8362C32.3219 46.8367 32.1792 46.837 32.0364 46.837C31.9695 46.8385 31.9026 46.84 31.8337 46.8416C31.4862 46.8368 31.3418 46.8098 31.0885 46.5645C30.9394 46.3158 30.831 46.0657 30.7282 45.7949C30.5505 45.3375 30.4075 44.9953 29.9984 44.7071C29.4482 44.4605 29.4482 44.4605 28.8749 44.5313C28.7482 44.7701 28.6342 45.0061 28.5233 45.252C28.2086 45.9154 27.9405 46.3664 27.2519 46.6983C26.9585 46.7949 26.7166 46.8064 26.4078 46.8085C26.2902 46.8097 26.1725 46.8109 26.0512 46.8122C25.9235 46.8124 25.7958 46.8127 25.668 46.8128C25.5359 46.8134 25.4039 46.814 25.2718 46.8147C24.9953 46.8158 24.7188 46.8162 24.4423 46.816C24.0895 46.816 23.7369 46.8186 23.3841 46.8218C23.1114 46.8239 22.8387 46.8243 22.5659 46.8242C22.436 46.8244 22.306 46.8252 22.1761 46.8267C21.365 46.8349 20.7174 46.8305 20.0897 46.2609C19.5728 45.7324 19.282 45.0274 19.1249 44.3145C18.9795 43.528 18.9795 43.528 18.4932 42.9419C18.2011 42.8285 18.2011 42.8285 17.9018 42.7467C17.426 42.5913 17.1196 42.2486 16.8639 41.8276C16.6369 41.272 16.6761 40.6792 16.6816 40.0899C16.682 40.003 16.6824 39.9161 16.6828 39.8266C16.6839 39.6136 16.6855 39.4006 16.6874 39.1875C16.584 39.1762 16.4805 39.1648 16.3739 39.1531C16.0312 39.0938 16.0312 39.0938 15.7968 38.8946C15.6097 38.536 15.638 38.3535 15.7499 37.9688C15.9081 37.7403 15.9081 37.7403 16.1249 37.5938C16.3123 37.588 16.5 37.5874 16.6874 37.5938C16.6859 37.5145 16.6859 37.5145 16.6844 37.4336C16.6805 37.1901 16.6781 36.9467 16.6757 36.7032C16.6741 36.62 16.6726 36.5369 16.6709 36.4512C16.6652 35.6779 16.7459 35.029 17.2499 34.4063C17.4499 34.2972 17.4499 34.2972 17.6249 34.2188C17.1905 32.6105 16.4889 31.4167 15.3749 30.1875C15.3011 30.1056 15.2272 30.0237 15.1512 29.9393C15.0125 29.7859 14.8739 29.6326 14.7351 29.4793C12.1194 26.5395 10.6158 23.1433 10.7929 19.1543C10.9925 15.9567 12.3154 13.1395 14.4374 10.7813C14.4954 10.7154 14.5534 10.6496 14.6132 10.5817C16.8676 8.17127 20.2782 6.76837 23.5546 6.72075ZM15.9374 11.625C15.8205 11.7331 15.8205 11.7331 15.7012 11.8433C13.6018 13.8428 12.4715 16.7662 12.3749 19.6352C12.3589 20.9316 12.5325 22.2059 12.9374 23.4375C12.97 23.5369 13.0027 23.6362 13.0363 23.7386C13.6495 25.4514 14.6006 26.8455 15.8235 28.1759C16.1157 28.5001 16.3897 28.8376 16.6636 29.1772C16.8034 29.3495 16.9453 29.5202 17.0891 29.6891C18.1555 30.9494 18.7041 32.2063 19.2187 33.75C21.2296 33.75 23.2405 33.75 25.3124 33.75C25.5191 33.2362 25.5191 33.2362 25.3919 32.8071C25.3655 32.7399 25.3391 32.6728 25.3119 32.6036C25.283 32.5353 25.2542 32.4669 25.2245 32.3965C24.8388 31.4753 24.8388 31.4753 25.0312 30.9375C25.2999 30.6009 25.6037 30.3079 25.9159 30.0118C25.9989 29.9306 26.0819 29.8493 26.1673 29.7657C26.9285 29.026 26.9285 29.026 27.4379 29.0281C27.8397 29.0915 28.205 29.2682 28.5765 29.4288C29.0413 29.5885 29.438 29.5769 29.8944 29.3965C30.4636 29.1047 30.641 28.6054 30.8647 28.0366C30.9909 27.7213 31.0799 27.5094 31.3351 27.2791C31.6103 27.1817 31.8398 27.1724 32.1301 27.1823C32.5689 27.1941 32.9611 27.1922 33.3255 26.9217C33.4894 26.7028 33.6269 26.4836 33.7519 26.2404C33.8557 26.0393 33.9675 25.8437 34.0799 25.6473C34.9332 24.1252 35.5474 22.4852 35.5312 20.7188C35.4224 20.7169 35.3136 20.7151 35.2015 20.7132C34.7975 20.706 34.3936 20.6977 33.9896 20.689C33.8149 20.6855 33.6401 20.6822 33.4653 20.6792C33.214 20.675 32.9627 20.6695 32.7113 20.6639C32.6333 20.6628 32.5553 20.6617 32.4749 20.6606C31.7811 20.6429 31.7811 20.6429 31.4999 20.4375C31.3705 20.1788 31.3909 19.9633 31.3864 19.674C31.3837 19.5583 31.3811 19.4426 31.3783 19.3233C31.3735 19.079 31.3693 18.8346 31.3659 18.5902C31.3615 18.4161 31.3615 18.4161 31.3571 18.2385C31.3552 18.1321 31.3534 18.0258 31.3515 17.9163C31.2943 17.49 31.1171 17.2471 30.8261 16.9395C30.4846 16.7346 30.1962 16.7062 29.8124 16.7813C29.4339 16.9775 29.2143 17.1333 29.0624 17.5313C29.0327 17.8048 29.0327 17.8048 29.0335 18.1052C29.0311 18.216 29.0288 18.3269 29.0263 18.4411C29.0231 18.6741 29.0201 18.907 29.0176 19.1399C29.0151 19.2509 29.0126 19.3619 29.01 19.4762C29.0082 19.628 29.0082 19.628 29.0062 19.7829C28.9639 20.0981 28.8748 20.2765 28.6874 20.5313C28.4569 20.6465 28.3034 20.6382 28.0457 20.6402C27.9512 20.6411 27.8567 20.642 27.7593 20.6429C27.6057 20.6435 27.6057 20.6435 27.4489 20.6441C27.3439 20.6446 27.2389 20.6452 27.1308 20.6457C26.9084 20.6466 26.686 20.6472 26.4636 20.6476C26.1231 20.6485 25.7826 20.6514 25.4421 20.6543C25.2262 20.655 25.0104 20.6554 24.7946 20.6558C24.6925 20.657 24.5905 20.6581 24.4853 20.6593C24.3902 20.659 24.2951 20.6588 24.1972 20.6585C24.1136 20.6588 24.0301 20.6591 23.944 20.6595C23.6684 20.6174 23.5409 20.5392 23.3437 20.3438C23.3037 20.0837 23.287 19.8591 23.2865 19.5986C23.285 19.5261 23.2834 19.4537 23.2818 19.3791C23.2773 19.1479 23.2753 18.9168 23.2734 18.6856C23.2707 18.5288 23.2679 18.372 23.2649 18.2152C23.258 17.831 23.2534 17.4468 23.2499 17.0625C23.198 17.0617 23.1461 17.0608 23.0927 17.0599C20.7378 17.0099 20.7378 17.0099 19.9687 16.2188C19.4559 15.5471 19.2116 14.82 19.3124 13.9688C19.4298 13.4094 19.5793 12.9922 19.9687 12.5625C19.9687 12.5007 19.9687 12.4388 19.9687 12.375C20.0227 12.3481 20.0767 12.3211 20.1324 12.2934C20.2666 12.2262 20.4006 12.1586 20.5345 12.0905C20.5972 12.0587 20.6599 12.0269 20.7245 11.9942C20.7875 11.9622 20.8504 11.9301 20.9153 11.8971C21.2209 11.7522 21.4786 11.704 21.8125 11.6891C21.888 11.6856 21.9634 11.682 22.0411 11.6783C22.1364 11.6743 22.2318 11.6702 22.33 11.6661C22.6336 11.6525 22.9371 11.639 23.2499 11.625C23.2499 10.5422 23.2499 9.45942 23.2499 8.3438C20.4997 8.3438 17.8723 9.77015 15.9374 11.625ZM32.2499 28.6875C32.1245 28.9334 31.9995 29.1795 31.8749 29.4258C31.8213 29.5308 31.8213 29.5308 31.7665 29.6379C31.7327 29.7049 31.6988 29.772 31.664 29.8411C31.6168 29.9339 31.6168 29.9339 31.5688 30.0286C31.4875 30.1873 31.4875 30.1873 31.4999 30.375C31.3259 30.4302 31.3259 30.4302 31.1483 30.4864C30.7821 30.6065 30.4343 30.7521 30.0819 30.9082C29.4154 31.1856 29.0201 31.1878 28.3476 30.9317C28.221 30.8778 28.221 30.8778 28.092 30.8229C27.8005 30.7374 27.66 30.7413 27.3749 30.8438C27.1595 31.0141 27.1595 31.0141 26.9706 31.2247C26.9052 31.2934 26.8399 31.3622 26.7725 31.433C26.7238 31.4861 26.6751 31.5391 26.6249 31.5938C26.6678 31.7384 26.7108 31.8829 26.7538 32.0274C26.7792 32.1133 26.8046 32.1992 26.8307 32.2878C26.8875 32.471 26.9533 32.6515 27.0233 32.8301C27.1848 33.4354 26.9244 34.0092 26.6952 34.5645C26.6683 34.6344 26.6413 34.7043 26.6136 34.7764C26.2431 35.6832 25.5156 35.8993 24.6562 36.2813C24.6562 36.7454 24.6562 37.2094 24.6562 37.6875C24.8864 37.7974 25.1169 37.9067 25.3476 38.0157C25.4131 38.047 25.4786 38.0783 25.5461 38.1105C25.8832 38.2831 25.8832 38.2831 26.2499 38.3438C26.2737 38.4203 26.2975 38.4968 26.3221 38.5756C26.4075 38.8205 26.4977 39.0506 26.6026 39.2868C26.632 39.3539 26.6614 39.4211 26.6917 39.4902C26.7527 39.6284 26.8147 39.7661 26.8778 39.9033C27.1211 40.4663 27.1096 40.8461 26.9021 41.4328C26.8302 41.6048 26.758 41.7767 26.6853 41.9484C26.6035 42.1819 26.6035 42.1819 26.6901 42.3835C26.9146 42.7121 27.1268 43.0049 27.4687 43.2188C27.8641 43.2316 28.1961 43.0824 28.5526 42.9258C29.252 42.6748 29.8203 42.9262 30.4569 43.2188C30.6148 43.2894 30.7727 43.3597 30.9308 43.4297C30.9997 43.4612 31.0686 43.4926 31.1395 43.5249C31.3104 43.6054 31.3104 43.6054 31.4999 43.5938C31.5248 43.658 31.5497 43.7221 31.5754 43.7883C31.7015 44.0971 31.8398 44.3987 31.9804 44.7012C32.0693 44.8926 32.1583 45.0841 32.2499 45.2813C32.683 45.2813 33.1162 45.2813 33.5624 45.2813C33.6079 45.1706 33.6533 45.0599 33.7001 44.9458C33.7635 44.7998 33.8269 44.6538 33.8905 44.5079C33.92 44.435 33.9495 44.3621 33.9799 44.287C34.1936 43.8061 34.3872 43.5858 34.8755 43.3835C34.9372 43.3601 34.9989 43.3367 35.0624 43.3125C35.158 43.2666 35.2536 43.2207 35.3521 43.1734C36.0194 42.8768 36.5663 42.6749 37.2751 42.9324C37.4343 42.9996 37.592 43.0705 37.7475 43.1459C38.0256 43.2375 38.162 43.2225 38.4374 43.125C38.6528 42.9547 38.6528 42.9547 38.8417 42.7442C38.9071 42.6754 38.9725 42.6067 39.0398 42.5358C39.0885 42.4828 39.1372 42.4297 39.1874 42.375C39.1525 42.2833 39.1176 42.1916 39.0816 42.0971C39.0367 41.973 38.9919 41.8488 38.9472 41.7247C38.9125 41.6347 38.9125 41.6347 38.877 41.5428C38.5691 40.6712 38.8428 39.8801 39.1867 39.0592C39.5929 38.2194 40.3217 37.9181 41.1562 37.5938C41.1562 37.1607 41.1562 36.7275 41.1562 36.2813C41.0509 36.25 40.9456 36.2187 40.8372 36.1864C40.1634 35.9507 39.6276 35.7151 39.2654 35.0728C39.1845 34.9014 39.1077 34.7279 39.0351 34.5528C39.0003 34.469 38.9655 34.3852 38.9296 34.2989C38.6384 33.5048 38.7252 32.891 39.0058 32.1036C39.0397 32.0068 39.0737 31.91 39.1087 31.8102C39.1347 31.7388 39.1606 31.6674 39.1874 31.5938C38.9245 31.288 38.6591 31.0023 38.3437 30.75C38.0017 30.7261 37.8163 30.7933 37.5032 30.9159C37.4088 30.9527 37.4088 30.9527 37.3124 30.9903C37.2563 31.0155 37.2003 31.0408 37.1425 31.0668C36.48 31.2549 35.9659 31.0318 35.3671 30.7676C35.2875 30.7342 35.2078 30.7008 35.1258 30.6664C34.6174 30.4475 34.2833 30.2789 34.0476 29.7587C34.0189 29.6962 33.9902 29.6336 33.9607 29.5692C33.9317 29.5045 33.9028 29.4398 33.873 29.3731C33.8429 29.3073 33.8129 29.2415 33.782 29.1737C33.7082 29.0119 33.6352 28.8498 33.5624 28.6875C33.1293 28.6875 32.6962 28.6875 32.2499 28.6875ZM18.2812 35.8125C18.2812 36.4004 18.2812 36.9882 18.2812 37.5938C19.859 37.5938 21.4368 37.5938 23.0624 37.5938C23.0934 36.8513 23.1243 36.1088 23.1562 35.3438C22.5371 35.333 21.9184 35.3237 21.2994 35.318C21.0888 35.3157 20.8783 35.3125 20.6678 35.3084C20.3651 35.3027 20.0624 35.3001 19.7596 35.298C19.6186 35.2944 19.6186 35.2944 19.4748 35.2907C19.3866 35.2907 19.2985 35.2906 19.2076 35.2906C19.1304 35.2895 19.0531 35.2885 18.9736 35.2874C18.67 35.3436 18.67 35.3436 18.2812 35.8125ZM18.2812 39.1875C18.273 39.4766 18.268 39.7656 18.2636 40.0547C18.2612 40.1366 18.2589 40.2184 18.2564 40.3027C18.2479 40.7728 18.2479 40.7728 18.4053 41.2076C18.7249 41.4847 19.0576 41.4489 19.4608 41.4482C19.5541 41.4482 19.5541 41.4482 19.6493 41.4482C19.8548 41.4482 20.0602 41.4474 20.2657 41.4467C20.4082 41.4465 20.5507 41.4464 20.6932 41.4463C21.0682 41.4459 21.4432 41.445 21.8182 41.444C22.2009 41.443 22.5836 41.4426 22.9663 41.4421C23.7171 41.4411 24.4679 41.4395 25.2187 41.4375C25.2674 41.3034 25.3151 41.1688 25.3623 41.0341C25.389 40.9592 25.4157 40.8843 25.4431 40.8072C25.5242 40.5026 25.4657 40.329 25.33 40.0489C25.2926 39.9651 25.2553 39.8814 25.2168 39.7951C24.9559 39.4682 24.6736 39.3117 24.2812 39.1875C23.8192 39.1372 23.3594 39.1437 22.8954 39.1509C22.762 39.1516 22.6285 39.1522 22.4951 39.1525C22.1461 39.154 21.7972 39.1576 21.4483 39.1618C21.0913 39.1657 20.7343 39.1674 20.3774 39.1692C19.6786 39.1732 18.9799 39.1796 18.2812 39.1875ZM20.4374 43.0313C20.4908 43.2543 20.5457 43.4768 20.6015 43.6993C20.6162 43.7616 20.631 43.824 20.6462 43.8882C20.7784 44.407 20.9739 44.807 21.3793 45.1735C21.8165 45.3437 22.2459 45.3213 22.7109 45.3186C22.8131 45.3189 22.9154 45.3192 23.0208 45.3195C23.2367 45.3197 23.4526 45.3191 23.6685 45.318C23.9987 45.3165 24.3289 45.318 24.6591 45.3197C24.8691 45.3196 25.079 45.3192 25.289 45.3186C25.3876 45.3192 25.4863 45.3198 25.5879 45.3204C26.2461 45.3178 26.2461 45.3178 26.8124 45C26.4445 44.2087 25.7754 43.4813 25.0312 43.0313C24.2555 42.7904 23.4336 42.8791 22.6347 42.9317C22.4207 42.9397 22.2066 42.947 21.9925 42.9535C21.4735 42.9709 20.9556 42.9973 20.4374 43.0313Z" fill="#F4F4F4"/>
<path d="M31.1382 1.15821C31.3129 1.15698 31.3129 1.15698 31.4912 1.15572C31.8104 1.15401 32.1295 1.15441 32.4488 1.1559C32.7829 1.15708 33.1171 1.15598 33.4512 1.15525C34.0124 1.15439 34.5735 1.15552 35.1346 1.15775C35.7833 1.1603 36.4319 1.15948 37.0805 1.15689C37.6375 1.15477 38.1945 1.15447 38.7515 1.15569C39.0842 1.15642 39.4168 1.15652 39.7494 1.15497C40.1203 1.15337 40.491 1.15559 40.8618 1.15821C40.9721 1.15726 41.0823 1.15631 41.1959 1.15533C41.9178 1.16478 41.9178 1.16478 42.2555 1.38693C42.4424 1.85731 42.4279 2.30735 42.425 2.80913C42.4258 2.92275 42.4266 3.03636 42.4274 3.15342C42.4292 3.46433 42.4293 3.77515 42.4284 4.08606C42.428 4.34584 42.4286 4.60561 42.4293 4.86538C42.4309 5.47827 42.4306 6.09113 42.429 6.70401C42.4274 7.33589 42.4289 7.96771 42.4319 8.59957C42.4344 9.14258 42.4351 9.68558 42.4343 10.2286C42.4339 10.5527 42.4341 10.8768 42.436 11.2009C42.438 11.5622 42.4363 11.9235 42.4341 12.2848C42.4358 12.4456 42.4358 12.4456 42.4375 12.6096C42.4288 13.3294 42.4288 13.3294 42.1646 13.7072C41.8983 13.8803 41.7757 13.9336 41.4631 13.9328C41.3354 13.9341 41.3354 13.9341 41.2052 13.9354C41.0691 13.9331 41.0691 13.9331 40.9303 13.9308C40.789 13.9308 40.789 13.9308 40.6449 13.9308C40.4463 13.9303 40.2476 13.9286 40.049 13.9259C39.7448 13.922 39.4409 13.9221 39.1368 13.9227C38.9436 13.9217 38.7504 13.9205 38.5572 13.9191C38.4208 13.919 38.4208 13.919 38.2817 13.919C38.1969 13.9175 38.1121 13.916 38.0247 13.9145C37.9504 13.9137 37.876 13.9129 37.7994 13.9121C37.5396 13.8654 37.4104 13.7732 37.2187 13.5939C37.1182 13.2923 37.1103 13.065 37.1052 12.7479C37.1025 12.6367 37.0999 12.5256 37.0971 12.411C37.0923 12.1769 37.0881 11.9428 37.0847 11.7086C37.0818 11.5972 37.0789 11.4858 37.0759 11.371C37.0731 11.2183 37.0731 11.2183 37.0703 11.0625C37.0126 10.6474 36.8611 10.3997 36.5332 10.1427C36.2272 10.0075 36.0504 9.98398 35.7187 10.0314C35.3465 10.2318 35.1186 10.3848 34.9687 10.7814C34.939 11.0549 34.939 11.0549 34.9398 11.3552C34.9374 11.4661 34.9351 11.577 34.9327 11.6912C34.9294 11.9241 34.9264 12.157 34.9239 12.3899C34.9214 12.5009 34.9189 12.6119 34.9164 12.7263C34.9145 12.8781 34.9145 12.8781 34.9125 13.033C34.8702 13.3482 34.7811 13.5266 34.5937 13.7814C34.3737 13.8914 34.2403 13.8881 33.995 13.8902C33.9099 13.8911 33.8248 13.892 33.7371 13.8929C33.5988 13.8935 33.5988 13.8935 33.4577 13.8942C33.3632 13.8947 33.2686 13.8952 33.1712 13.8958C32.9708 13.8967 32.7705 13.8973 32.5702 13.8976C32.2636 13.8985 31.9571 13.9015 31.6505 13.9044C31.456 13.905 31.2616 13.9055 31.0671 13.9059C30.9753 13.907 30.8835 13.9082 30.7889 13.9094C30.7032 13.9091 30.6175 13.9088 30.5292 13.9085C30.454 13.9089 30.3788 13.9092 30.3013 13.9096C30.0387 13.866 29.9115 13.775 29.7187 13.5939C29.6092 13.2652 29.6132 12.9706 29.6158 12.6289C29.616 12.5627 29.6161 12.4965 29.6162 12.4283C29.6167 12.2172 29.6179 12.0061 29.6191 11.795C29.6196 11.6518 29.62 11.5085 29.6204 11.3653C29.6214 11.0144 29.623 10.6635 29.625 10.3126C29.4916 10.3137 29.4916 10.3137 29.3556 10.3149C29.1797 10.3158 29.1797 10.3158 29.0002 10.3166C28.8842 10.3174 28.7683 10.3181 28.6488 10.3189C27.7641 10.3023 27.0932 10.0955 26.4426 9.48534C25.7948 8.79554 25.6312 8.18452 25.6542 7.24303C25.7243 6.59995 25.9696 5.98657 26.4375 5.53136C27.2074 4.92307 27.911 4.7481 28.875 4.76964C29.0088 4.7718 29.1426 4.77389 29.2763 4.77591C29.4489 4.77861 29.4489 4.77861 29.625 4.78136C29.623 4.6901 29.621 4.59883 29.619 4.5048C29.6122 4.16499 29.6079 3.82518 29.6044 3.48532C29.6025 3.33846 29.5999 3.1916 29.5967 3.04477C29.5921 2.83321 29.59 2.62174 29.5884 2.41015C29.5864 2.34489 29.5845 2.27964 29.5825 2.21241C29.5824 1.91878 29.6183 1.70182 29.744 1.43595C30.1606 1.08262 30.6092 1.15366 31.1382 1.15821ZM31.2187 2.71886C31.1878 3.77074 31.1569 4.82261 31.125 5.90636C30.7218 6.30954 30.7025 6.3277 30.1794 6.3286C30.0137 6.33123 30.0137 6.33123 29.8447 6.33391C29.7297 6.33397 29.6146 6.33403 29.4961 6.3341C29.2688 6.33494 29.0415 6.33697 28.8142 6.34032C28.6631 6.34042 28.6631 6.34042 28.509 6.34053C28.0392 6.3965 27.7412 6.55795 27.4336 6.91417C27.2526 7.27613 27.2241 7.4752 27.2812 7.87511C27.4767 8.28175 27.6741 8.49311 28.0936 8.66279C28.6897 8.81552 29.3401 8.75974 29.9513 8.76006C30.1168 8.76269 30.1168 8.76269 30.2856 8.76537C30.4362 8.76563 30.4362 8.76563 30.5898 8.7659C30.8437 8.81261 30.8437 8.81261 31.0162 8.95848C31.1643 9.27038 31.1699 9.5623 31.1729 9.90099C31.1746 9.96913 31.1763 10.0373 31.178 10.1075C31.1831 10.3243 31.1863 10.5411 31.1894 10.7579C31.1925 10.9053 31.1958 11.0526 31.1991 11.1999C31.2073 11.5604 31.213 11.9208 31.2187 12.2814C31.8994 12.2814 32.58 12.2814 33.2812 12.2814C33.289 12.0068 33.2967 11.7322 33.3047 11.4493C33.3467 10.4959 33.4908 9.68056 34.2187 9.00011C34.9934 8.53656 35.6596 8.35151 36.5625 8.43761C37.2215 8.6111 37.8127 8.90264 38.1972 9.48571C38.476 9.96879 38.6282 10.3673 38.6546 10.9264C38.6582 10.9978 38.6618 11.0692 38.6655 11.1427C38.6715 11.2771 38.6715 11.2771 38.6777 11.4142C38.698 11.8434 38.698 11.8434 38.7187 12.2814C39.3994 12.2814 40.08 12.2814 40.7812 12.2814C40.7812 9.12574 40.7812 5.97011 40.7812 2.71886C37.6256 2.71886 34.47 2.71886 31.2187 2.71886Z" fill="#F4F4F4"/>
<path d="M35.6656 33.2782C36.6674 34.0711 37.2451 35.0611 37.4531 36.3222C37.5859 37.6832 37.2649 38.7907 36.4827 39.903C35.7322 40.814 34.7147 41.338 33.5625 41.5312C32.0751 41.6382 30.8799 41.2954 29.7162 40.3447C28.8554 39.546 28.3753 38.4377 28.2975 37.2758C28.256 36.0133 28.6394 34.8729 29.4609 33.914C31.1142 32.1706 33.6841 31.9168 35.6656 33.2782ZM31.4062 34.4062C31.3407 34.4448 31.2752 34.4835 31.2077 34.5234C30.5723 34.9454 30.1697 35.566 29.9648 36.2988C29.8286 37.13 29.9481 37.827 30.3633 38.5605C30.8734 39.2056 31.5202 39.7632 32.3437 39.9374C33.2678 40.0395 34.0708 39.8694 34.8179 39.2969C35.5155 38.6419 35.8424 37.8916 35.9062 36.9374C35.8402 36.0062 35.466 35.3015 34.7959 34.6651C33.8332 33.8786 32.4732 33.7571 31.4062 34.4062Z" fill="#F4F4F4"/>
<path d="M8.90617 10.2187C9.22366 10.3639 9.52073 10.5379 9.82024 10.7168C9.89988 10.7624 9.97952 10.808 10.0616 10.855C10.7349 11.2502 10.7349 11.2502 10.9687 11.625C11.0065 11.9885 10.9968 12.2606 10.7812 12.5625C10.5482 12.7437 10.4181 12.7505 10.1216 12.7386C9.63888 12.6622 9.24855 12.4011 8.83586 12.1523C8.75622 12.1059 8.67658 12.0595 8.59453 12.0117C7.888 11.5943 7.888 11.5943 7.68742 11.3437C7.61461 10.6884 7.61461 10.6884 7.86321 10.3652C8.22753 10.0973 8.47841 10.0989 8.90617 10.2187Z" fill="#F4F4F4"/>
<path d="M10.5937 27.1876C10.8222 27.3399 10.8222 27.3399 10.9687 27.5626C11.0214 27.8848 11.0214 27.8848 10.9687 28.2188C10.6119 28.6444 10.1829 28.9047 9.70893 29.1798C9.63974 29.2216 9.57056 29.2634 9.49927 29.3065C9.11757 29.5304 8.79592 29.6983 8.3437 29.7188C7.81759 29.5104 7.81759 29.5104 7.68745 29.2501C7.62599 28.7146 7.62599 28.7146 7.68745 28.5001C8.10137 28.0934 8.58497 27.812 9.08784 27.5274C9.16029 27.484 9.23273 27.4407 9.30738 27.396C9.7716 27.133 10.057 27.0327 10.5937 27.1876Z" fill="#F4F4F4"/>
<path d="M7.02532 19.0781C7.20469 19.0741 7.20469 19.0741 7.38768 19.0701C8.36556 19.068 8.36556 19.068 8.65679 19.3418C8.86422 19.6776 8.8817 19.8621 8.81243 20.25C8.65711 20.4971 8.59445 20.5867 8.34368 20.7187C7.91886 20.7824 7.50076 20.7712 7.07219 20.7598C6.95672 20.7592 6.84125 20.7587 6.72228 20.7581C5.77461 20.7452 5.77461 20.7452 5.43743 20.5312C5.19717 20.2338 5.24543 19.9443 5.27995 19.5846C5.5262 18.8954 6.44341 19.077 7.02532 19.0781Z" fill="#F4F4F4"/>
<path d="M15.4687 3.65635C15.7085 3.87252 15.8633 4.13246 16.0312 4.40635C16.1311 4.56243 16.1311 4.56243 16.233 4.72166C16.3027 4.83511 16.3722 4.94876 16.4413 5.0626C16.4749 5.11592 16.5085 5.16923 16.5431 5.22417C16.8007 5.66552 16.8239 5.97307 16.7812 6.46885C16.6406 6.70322 16.6406 6.70322 16.4062 6.84385C15.8982 6.91641 15.8982 6.91641 15.6562 6.84385C15.2152 6.48322 14.9613 6.03376 14.6894 5.54307C14.6468 5.47019 14.6042 5.39732 14.5603 5.32224C14.311 4.8762 14.186 4.55584 14.2499 4.03135C14.5375 3.51108 14.9262 3.50003 15.4687 3.65635Z" fill="#F4F4F4"/>
<path d="M24.0001 1.17188C24.062 1.17091 24.1239 1.16994 24.1876 1.16895C24.4648 1.24257 24.5716 1.37121 24.7501 1.59375C24.7986 1.87994 24.7986 1.87994 24.7999 2.21191C24.8004 2.33168 24.8009 2.45144 24.8014 2.57483C24.8006 2.63693 24.7998 2.69903 24.799 2.76302C24.797 2.9526 24.799 3.14185 24.8014 3.33142C24.8009 3.45118 24.8004 3.57094 24.7999 3.69434C24.7995 3.80389 24.7991 3.91344 24.7986 4.02631C24.7405 4.36892 24.6458 4.47682 24.3751 4.6875C24.048 4.81664 23.9322 4.79167 23.6017 4.6582C23.3439 4.5 23.3439 4.5 23.2501 4.3125C23.226 3.92774 23.2247 3.54283 23.2224 3.15738C23.2208 2.96618 23.2167 2.77514 23.2126 2.58398C23.2118 2.46338 23.211 2.34277 23.2102 2.21851C23.2088 2.10776 23.2075 1.99702 23.2061 1.88292C23.2757 1.42599 23.5298 1.16453 24.0001 1.17188Z" fill="#F4F4F4"/>
</svg>
