<svg width="48" height="48" viewBox="0 0 48 48" fill="none" xmlns="http://www.w3.org/2000/svg">
<g clip-path="url(#clip0_72_155)">
<path d="M36.4161 -0.046875C36.4856 -0.0497754 36.555 -0.0526758 36.6266 -0.0556641C37.1566 0.0801769 37.4464 0.636475 37.7168 1.07812C37.7555 1.14082 37.7942 1.20351 37.834 1.2681C41.6206 7.50446 41.6206 7.50446 41.045 10.0312C40.8088 10.8919 40.4041 11.5919 39.8438 12.2812C39.8925 12.3012 39.9412 12.3211 39.9914 12.3417C40.3148 12.5224 40.5788 12.7593 40.8575 13.002C40.9163 13.053 40.9752 13.1041 41.0359 13.1567C41.7834 13.809 42.4155 14.5017 43.0313 15.2812C43.1012 15.3683 43.171 15.4553 43.243 15.5449C44.3011 16.9017 45.2095 18.5259 45.4688 20.25C45.4842 20.3515 45.4842 20.3515 45.4999 20.4551C45.5276 20.668 45.5472 20.8796 45.5625 21.0938C45.5676 21.1615 45.5727 21.2293 45.5779 21.2992C45.6353 22.8417 45.2135 24.4475 44.1563 25.5938C43.4846 26.2892 42.5658 26.7607 41.5935 26.8276C41.3693 26.8308 41.146 26.829 40.9219 26.8242C40.8448 26.8234 40.7677 26.8225 40.6883 26.8217C40.5005 26.8195 40.3128 26.8161 40.125 26.8125C40.126 26.9149 40.126 26.9149 40.1269 27.0194C40.2763 44.1781 40.2763 44.1781 37.5792 47.5496C37.2146 47.9064 36.9021 48.0427 36.3926 48.0527C35.9005 48.0388 35.6137 47.9405 35.2328 47.6338C33.0289 45.0934 33.0894 40.1216 32.8418 36.9258C32.8361 36.8522 32.8304 36.7786 32.8245 36.7028C32.6758 34.7557 32.6114 32.8074 32.5723 30.8555C32.5682 30.6616 32.5642 30.4678 32.56 30.2739C32.5502 29.8076 32.5407 29.3413 32.5313 28.875C32.3518 29.0372 32.1727 29.1997 31.9937 29.3624C31.9434 29.4078 31.8931 29.4532 31.8412 29.5C30.2555 30.9448 29.2062 33.0959 29.0419 35.2384C29.0117 35.9294 29.0137 36.621 29.0157 37.3125C29.0239 40.2221 28.5152 42.5772 26.4375 44.7188C26.3814 44.7818 26.3252 44.8449 26.2673 44.9099C24.8809 46.413 22.7003 47.3359 20.674 47.4507C16.4961 47.5993 12.5417 45.6697 9.50981 42.8555C9.42039 42.771 9.33096 42.6865 9.23882 42.5995C9.0448 42.4171 8.8483 42.245 8.64263 42.0762C8.28407 41.7719 7.98919 41.422 7.68755 41.0625C7.61709 40.9815 7.54664 40.9006 7.47405 40.8171C6.45165 39.6251 5.60119 38.3288 4.87505 36.9375C4.84052 36.872 4.80598 36.8065 4.7704 36.739C3.67494 34.6336 2.42409 31.6747 2.7188 29.25C2.88722 28.9749 2.99481 28.8307 3.2813 28.6875C3.71734 28.6275 4.0271 28.6229 4.40044 28.8691C4.57472 29.1279 4.62775 29.2396 4.68682 29.5302C4.70231 29.605 4.7178 29.6798 4.73376 29.7569C4.78253 30.0063 4.83095 30.2558 4.87908 30.5054C5.84325 35.4949 8.51801 39.9107 12.7568 42.7881C13.184 43.0706 13.6201 43.3359 14.0625 43.5938C14.1469 43.6435 14.1469 43.6435 14.2329 43.6943C16.4301 44.9782 19.0492 45.8495 21.5977 45.2344C22.7777 44.891 23.8401 44.3302 24.75 43.5C24.8356 43.4273 24.8356 43.4273 24.9229 43.3531C26.0328 42.3467 26.8168 40.7148 26.9238 39.2254C26.9306 38.9591 26.9322 38.6933 26.9319 38.4269C26.9338 38.2245 26.9358 38.0222 26.9378 37.8199C26.9399 37.5063 26.9415 37.1927 26.942 36.8791C26.9521 33.4874 27.8504 30.577 30.252 28.1133C31.7583 26.6159 31.7583 26.6159 32.625 26.4375C32.6202 26.2588 32.6202 26.2588 32.6152 26.0764C32.5382 21.7376 32.9704 17.2638 33.9375 13.0312C33.8775 12.9869 33.8174 12.9425 33.7555 12.8969C32.8796 12.2272 32.0754 11.3722 31.8201 10.2609C31.6047 9.88767 31.2535 9.80693 30.8614 9.66211C30.7779 9.63017 30.6944 9.59824 30.6083 9.56534C25.8069 7.77151 20.4952 7.60955 15.7566 9.71045C14.7333 10.1796 13.7619 10.691 12.8438 11.3438C12.7493 11.4109 12.6548 11.4781 12.5574 11.5474C10.945 12.7284 9.53117 14.0462 8.3438 15.6562C8.27044 15.7557 8.19709 15.8552 8.12151 15.9576C6.76115 17.865 5.85842 19.9428 5.17763 22.1749C5.15404 22.2501 5.13044 22.3252 5.10613 22.4026C5.08558 22.4696 5.06502 22.5366 5.04385 22.6056C4.906 22.9282 4.72291 23.0273 4.4063 23.1562C4.10581 23.1808 3.84931 23.1568 3.56255 23.0625C3.24718 22.7787 3.13535 22.5417 3.0938 22.125C3.14383 21.8516 3.20169 21.595 3.27544 21.3281C3.29676 21.2501 3.31808 21.172 3.34005 21.0916C3.977 18.8396 4.99537 16.7052 6.37505 14.8125C6.41295 14.7602 6.45085 14.7078 6.4899 14.6539C7.05628 13.8783 7.67873 13.1614 8.3438 12.4688C8.39409 12.4159 8.44438 12.3631 8.49619 12.3086C9.74746 10.9999 11.1295 9.96866 12.6563 9C12.7128 8.96411 12.7693 8.92822 12.8275 8.89124C15.7288 7.077 19.2059 6.23651 22.5938 6.09375C22.7339 6.08777 22.7339 6.08777 22.8769 6.08167C25.8916 6.02113 29.1418 6.57537 31.875 7.875C31.8836 7.784 31.8922 7.693 31.9011 7.59924C31.964 7.16301 32.1276 6.78279 32.3028 6.38086C32.3533 6.26336 32.3533 6.26336 32.4049 6.14349C32.7314 5.39308 33.0873 4.66131 33.4688 3.9375C33.5104 3.85831 33.552 3.77913 33.5948 3.69754C34.0852 2.76872 34.5899 1.85176 35.1563 0.966797C35.198 0.901123 35.2396 0.835448 35.2826 0.767784C35.5827 0.309574 35.8277 -0.0387167 36.4161 -0.046875ZM36.375 2.90625C35.1732 4.62171 33.4549 7.30396 33.6563 9.46875C33.837 10.1824 34.1832 10.7761 34.7912 11.2002C35.5499 11.6494 36.2539 11.8267 37.125 11.625C37.9286 11.3355 38.5593 10.8696 38.9415 10.0957C39.4172 8.86905 38.985 7.86282 38.4844 6.71484C37.9002 5.41189 37.2582 4.09801 36.4688 2.90625C36.4379 2.90625 36.4069 2.90625 36.375 2.90625ZM35.9063 13.5938C35.6258 14.5651 35.4281 15.5236 35.2852 16.5234C35.2652 16.66 35.2451 16.7966 35.2251 16.9331C34.9273 18.9576 34.9273 18.9576 34.875 21C35.8888 21.0696 36.8627 21.1096 37.875 21C37.9006 20.1132 37.8238 19.248 37.7168 18.3691C37.7046 18.266 37.7046 18.266 37.692 18.1608C37.4458 15.8364 37.4458 15.8364 36.8438 13.5938C36.5344 13.5938 36.225 13.5938 35.9063 13.5938ZM39 14.1562C39.0156 14.2541 39.0312 14.352 39.0472 14.4529C39.5032 17.3353 39.8239 20.2005 39.9708 23.1159C39.9742 23.1826 39.9776 23.2494 39.9812 23.3181C39.9904 23.4985 39.9992 23.679 40.0079 23.8594C40.0315 24.1909 40.0741 24.5154 40.125 24.8438C41.4192 24.9251 41.4192 24.9251 42.5625 24.375C43.4064 23.5149 43.5293 22.5136 43.5293 21.3617C43.4984 19.4085 42.3904 17.4639 41.0794 16.0624C40.8988 15.8692 40.7284 15.6714 40.5586 15.4688C40.1441 14.9927 39.6782 14.5533 39.1875 14.1562C39.1257 14.1562 39.0638 14.1562 39 14.1562ZM34.6875 22.9688C34.606 24.1087 34.606 24.1087 34.5608 25.2488C34.5586 25.3355 34.5564 25.4223 34.5541 25.5116C34.2918 35.6692 34.2918 35.6692 36.2813 45.5625C36.3432 45.5625 36.405 45.5625 36.4688 45.5625C38.0777 41.0301 38.1745 35.6323 38.1688 30.8588C38.1688 30.6689 38.1689 30.479 38.169 30.2891C38.1692 29.895 38.169 29.5008 38.1685 29.1067C38.168 28.6047 38.1683 28.1028 38.1689 27.6008C38.1692 27.2101 38.1691 26.8195 38.1688 26.4288C38.1688 26.2438 38.1689 26.0588 38.1691 25.8737C38.1693 25.6146 38.1689 25.3555 38.1684 25.0965C38.1686 25.0223 38.1688 24.9481 38.169 24.8716C38.1667 24.2299 38.1122 23.6146 38.0625 22.9688C36.9488 22.9688 35.835 22.9688 34.6875 22.9688Z" fill="#F4F4F4"/>
<path d="M21.6017 34.8289C22.427 35.4233 23.0472 36.2095 23.25 37.2187C23.3755 38.3829 23.2758 39.4115 22.5762 40.3828C21.9375 41.1408 21.1589 41.7247 20.1496 41.8334C18.9392 41.9174 17.9297 41.7706 16.975 40.9662C16.1764 40.2038 15.7498 39.393 15.7059 38.2842C15.6914 37.111 15.9555 36.2088 16.7813 35.3437C18.0732 34.1105 20.0724 33.8752 21.6017 34.8289ZM17.9063 37.084C17.6331 37.5755 17.6291 38.0791 17.7188 38.625C17.9021 39.1355 18.2431 39.5015 18.7152 39.7639C19.2284 39.9482 19.7717 39.9482 20.2848 39.7639C20.7569 39.5015 21.0979 39.1355 21.2813 38.625C21.3709 38.0791 21.3669 37.5755 21.0938 37.084C20.7464 36.6205 20.3688 36.3315 19.7904 36.2366C18.961 36.1968 18.407 36.4158 17.9063 37.084Z" fill="#F4F4F4"/>
<path d="M13.1642 27.3289C13.9895 27.9233 14.6097 28.7095 14.8125 29.7187C14.938 30.8829 14.8383 31.9115 14.1387 32.8828C13.5 33.6408 12.7214 34.2247 11.7121 34.3334C10.5017 34.4174 9.49216 34.2706 8.53749 33.4662C7.73892 32.7038 7.31228 31.893 7.26839 30.7842C7.25385 29.611 7.51797 28.7088 8.34376 27.8437C9.63565 26.6105 11.6349 26.3752 13.1642 27.3289ZM9.46876 29.584C9.19559 30.0755 9.19163 30.5791 9.28126 31.125C9.46461 31.6355 9.80561 32.0015 10.2777 32.2639C10.7909 32.4482 11.3342 32.4482 11.8473 32.2639C12.3194 32.0015 12.6604 31.6355 12.8438 31.125C12.9334 30.5791 12.9294 30.0755 12.6563 29.584C12.3089 29.1205 11.9313 28.8315 11.3529 28.7366C10.5235 28.6968 9.96954 28.9158 9.46876 29.584Z" fill="#F4F4F4"/>
<path d="M15.9767 16.0789C16.802 16.6733 17.4222 17.4595 17.625 18.4687C17.7505 19.6329 17.6508 20.6615 16.9512 21.6328C16.3125 22.3908 15.5339 22.9747 14.5246 23.0834C13.3142 23.1674 12.3047 23.0206 11.35 22.2162C10.5514 21.4538 10.1248 20.643 10.0809 19.5342C10.0664 18.361 10.3305 17.4588 11.1563 16.5937C12.4482 15.3605 14.4474 15.1252 15.9767 16.0789ZM12.2813 18.334C12.0081 18.8255 12.0041 19.3291 12.0938 19.875C12.2771 20.3855 12.6181 20.7515 13.0902 21.0139C13.6034 21.1982 14.1467 21.1982 14.6598 21.0139C15.1319 20.7515 15.4729 20.3855 15.6563 19.875C15.7459 19.3291 15.7419 18.8255 15.4688 18.334C15.1214 17.8705 14.7438 17.5815 14.1654 17.4866C13.336 17.4468 12.782 17.6658 12.2813 18.334Z" fill="#F4F4F4"/>
<path d="M26.2892 11.3914C27.1145 11.9858 27.7347 12.772 27.9375 13.7812C28.063 14.9454 27.9633 15.974 27.2637 16.9453C26.625 17.7033 25.8464 18.2872 24.8371 18.3959C23.6267 18.4799 22.6172 18.3331 21.6625 17.5287C20.8639 16.7663 20.4373 15.9555 20.3934 14.8467C20.3789 13.6735 20.643 12.7713 21.4688 11.9062C22.7607 10.673 24.7599 10.4377 26.2892 11.3914ZM22.5938 13.6465C22.3206 14.138 22.3166 14.6416 22.4063 15.1875C22.5896 15.698 22.9306 16.064 23.4027 16.3264C23.9159 16.5107 24.4592 16.5107 24.9723 16.3264C25.4444 16.064 25.7854 15.698 25.9688 15.1875C26.0584 14.6416 26.0544 14.138 25.7813 13.6465C25.4339 13.183 25.0563 12.894 24.4779 12.7991C23.6485 12.7593 23.0945 12.9783 22.5938 13.6465Z" fill="#F4F4F4"/>
<path d="M4.03121 24.9375C4.32418 25.1132 4.32418 25.1132 4.49996 25.4062C4.59266 25.8774 4.5728 26.2223 4.32418 26.6367C3.90982 26.8853 3.56492 26.9052 3.09371 26.8125C2.80074 26.6367 2.80074 26.6367 2.62496 26.3437C2.53226 25.8725 2.55212 25.5276 2.80074 25.1132C3.2151 24.8646 3.56 24.8448 4.03121 24.9375Z" fill="#F4F4F4"/>
</g>
<defs>
<clipPath id="clip0_72_155">
<rect width="48" height="48" fill="white"/>
</clipPath>
</defs>
</svg>
