<svg width="48" height="48" viewBox="0 0 48 48" fill="none" xmlns="http://www.w3.org/2000/svg">
<g clip-path="url(#clip0_72_167)">
<path d="M13.4593 0.852881C13.7924 0.976345 14.1262 1.09772 14.4599 1.21928C15.3361 1.53844 16.2111 1.86052 17.0857 2.1841C18.1122 2.56373 19.1408 2.93719 20.1705 3.30809C22.5028 4.14822 24.8293 5.0037 27.1543 5.86382C27.6239 6.0375 28.0937 6.21048 28.5645 6.38094C28.6462 6.41067 28.728 6.44039 28.8122 6.47102C28.9613 6.52513 29.1104 6.57895 29.2597 6.63236C29.7984 6.82841 30.2846 7.06826 30.7501 7.40627C30.809 7.4482 30.8678 7.49014 30.9285 7.53334C31.8958 8.28903 32.4673 9.48553 32.6251 10.6875C32.7828 12.44 31.9679 14.1354 31.3653 15.7383C31.2106 16.1527 31.0563 16.5673 30.9021 16.9819C30.8566 17.1044 30.811 17.2268 30.7654 17.3491C30.4409 18.22 30.1224 19.0927 29.8097 19.9678C29.7437 20.1526 29.6775 20.3374 29.6113 20.5221C29.4421 20.9947 29.2728 21.4672 29.1054 21.9404C27.8591 25.4607 27.8591 25.4607 26.9181 26.7129C26.871 26.7774 26.8238 26.842 26.7753 26.9085C24.8945 29.4394 22.3828 30.7928 19.4532 31.7659C19.2831 31.8231 19.1129 31.8805 18.9428 31.9379C18.5897 32.0568 18.2364 32.1751 17.883 32.2928C17.4318 32.4431 16.9811 32.5947 16.5305 32.7467C16.1806 32.8647 15.8305 32.9821 15.4804 33.0995C15.3141 33.1552 15.1479 33.211 14.9817 33.267C14.7496 33.345 14.5173 33.4224 14.2849 33.4997C14.2177 33.5224 14.1505 33.5451 14.0812 33.5684C12.4064 34.122 10.6331 34.1551 8.99901 33.4387C7.72908 32.7905 6.83063 31.8416 6.10558 30.6328C6.02889 30.507 6.02889 30.507 5.95065 30.3786C5.77896 30.0966 5.60831 29.8139 5.43761 29.5313C5.30866 29.3191 5.17964 29.1069 5.05053 28.8948C4.84751 28.5612 4.64465 28.2274 4.44246 27.8933C4.12477 27.3684 3.80618 26.8441 3.48351 26.3222C1.64833 23.35 0.39977 20.5357 0.714957 16.9629C0.720297 16.8957 0.725637 16.8285 0.731139 16.7592C0.903398 15.1631 1.51388 13.6244 2.06261 12.1289C2.13588 11.9275 2.20909 11.726 2.28225 11.5245C2.52027 10.8701 2.7601 10.2163 3.00011 9.56252C3.04342 9.44446 3.08671 9.3264 3.13 9.20835C3.70781 7.63268 4.28718 6.05759 4.87064 4.48401C4.96126 4.23929 5.05149 3.99442 5.14162 3.74951C5.19144 3.61491 5.24127 3.48031 5.29113 3.34572C5.3321 3.23466 5.37306 3.1236 5.41527 3.00917C5.91191 1.76679 6.76683 0.932774 7.94323 0.316422C9.83727 -0.479167 11.6384 0.175105 13.4593 0.852881ZM7.20311 2.86893C6.85702 3.39844 6.64526 3.94856 6.43664 4.5436C6.39892 4.64877 6.3612 4.75395 6.32235 4.86231C6.21985 5.14848 6.11812 5.43491 6.01669 5.72146C5.84343 6.21005 5.66811 6.6979 5.49319 7.1859C5.42508 7.37603 5.35707 7.56621 5.28907 7.75639C4.97458 8.63486 4.6532 9.5106 4.32763 10.385C4.2829 10.5053 4.23817 10.6257 4.19345 10.746C4.02212 11.2068 3.85068 11.6675 3.67788 12.1278C3.28049 13.1866 2.89128 14.2437 2.57751 15.3307C2.55523 15.4075 2.53296 15.4843 2.51001 15.5635C1.76098 18.265 2.2569 21.1358 3.59777 23.5664C4.14401 24.5314 4.73544 25.4704 5.32003 26.4125C5.74323 27.0954 6.15857 27.7832 6.57395 28.4709C8.02192 30.9653 8.02192 30.9653 10.4613 32.3753C10.8423 32.4494 11.2082 32.4813 11.5958 32.4903C11.6899 32.494 11.6899 32.494 11.7859 32.4979C12.2808 32.4943 12.7316 32.3724 13.2025 32.2304C13.3075 32.199 13.3075 32.199 13.4147 32.167C14.1346 31.9504 14.8478 31.7149 15.5601 31.4744C15.6971 31.4283 15.8342 31.3822 15.9712 31.3361C16.2556 31.2403 16.5399 31.1444 16.8241 31.0482C17.1837 30.9266 17.5435 30.806 17.9034 30.6856C18.1857 30.5909 18.4677 30.4957 18.7497 30.4003C18.8821 30.3556 19.0146 30.3111 19.1471 30.2669C19.8592 30.029 20.5573 29.7717 21.246 29.4721C21.3072 29.4455 21.3684 29.4189 21.4315 29.3915C22.357 28.9798 23.1323 28.3948 23.9064 27.75C23.964 27.7051 24.0217 27.6601 24.081 27.6138C24.6019 27.1971 25.0005 26.6822 25.4064 26.1563C25.4635 26.0829 25.5207 26.0096 25.5796 25.934C26.4076 24.8155 26.9171 23.5137 27.381 22.2129C27.4347 22.0646 27.4885 21.9162 27.5423 21.768C27.6652 21.4296 27.7875 21.091 27.9096 20.7524C28.1588 20.0619 28.4109 19.3725 28.6631 18.683C28.7108 18.5525 28.7585 18.4221 28.8062 18.2916C28.8784 18.0942 28.9505 17.8968 29.0227 17.6994C29.1871 17.2499 29.3512 16.8005 29.5153 16.3509C29.5488 16.259 29.5488 16.259 29.583 16.1652C29.6929 15.8642 29.8026 15.5632 29.9123 15.2622C30.1106 14.7176 30.3095 14.1731 30.51 13.6293C30.5449 13.5341 30.5799 13.4389 30.6159 13.3409C30.6802 13.1659 30.7447 12.9911 30.8096 12.8164C31.1771 11.8139 31.2935 10.8462 30.8439 9.84377C30.0405 8.41813 28.7532 8.00655 27.2877 7.49838C26.8717 7.35408 26.4567 7.20688 26.0417 7.05983C25.8215 6.98182 25.6012 6.90394 25.3809 6.8262C24.2879 6.4399 23.2007 6.03853 22.1138 5.63547C19.7807 4.77055 17.4414 3.92417 15.0991 3.08454C15.0393 3.0631 14.9795 3.04165 14.9179 3.01955C14.6248 2.9145 14.3317 2.80965 14.0384 2.70506C13.4792 2.50545 12.921 2.30351 12.3647 2.09614C12.2586 2.05694 12.1525 2.01775 12.0432 1.97737C11.8456 1.90422 11.6483 1.83029 11.4514 1.75539C9.84887 1.16489 8.25838 1.42178 7.20311 2.86893Z" fill="#F4F4F4"/>
<path d="M40.9219 14.9147C41.923 15.6796 42.4491 16.6308 42.8669 17.8023C42.9023 17.8991 42.9377 17.9959 42.9742 18.0956C43.0879 18.4072 43.2002 18.7192 43.3125 19.0313C43.3884 19.2397 43.4643 19.4482 43.5404 19.6566C43.7802 20.3149 44.0182 20.9738 44.2559 21.6328C44.4287 22.1116 44.6015 22.5904 44.7745 23.0691C44.7959 23.1285 44.8173 23.1878 44.8394 23.249C45.1333 24.0627 45.4301 24.8752 45.7295 25.6868C45.8314 25.9635 45.9331 26.2403 46.0349 26.5171C46.0978 26.6876 46.161 26.858 46.2244 27.0284C46.7137 28.3414 47.1638 29.6544 47.2793 31.0606C47.2864 31.143 47.2935 31.2255 47.3008 31.3105C47.5315 34.3834 46.5919 37.0642 45 39.6563C44.9617 39.7188 44.9233 39.7814 44.8837 39.8458C44.7405 40.0777 44.5963 40.309 44.4504 40.5392C44.0861 41.114 43.7341 41.6959 43.382 42.2782C43.1419 42.6751 42.9008 43.0713 42.6597 43.4676C42.5398 43.6645 42.4201 43.8616 42.3006 44.0587C41.1442 45.9609 39.9102 47.3518 37.6827 47.9413C37.2415 48.035 36.8131 48.0481 36.3633 48.0469C36.2785 48.0496 36.1937 48.0522 36.1063 48.055C35.2401 48.0574 34.4693 47.7976 33.6563 47.5313C33.5537 47.498 33.4512 47.4648 33.3455 47.4305C32.6011 47.189 31.8581 46.9435 31.1156 46.696C30.853 46.6084 30.5903 46.5213 30.3274 46.4345C26.1603 45.0587 22.3608 43.5025 20.2533 39.3836C19.8051 38.4777 19.4425 37.5444 19.0914 36.5976C19.0017 36.3565 18.9102 36.1161 18.8187 35.8757C18.7609 35.7205 18.7032 35.5653 18.6457 35.4101C18.6184 35.3392 18.5912 35.2684 18.5631 35.1955C18.3916 34.7248 18.337 34.3453 18.3751 33.8438C18.5157 33.6094 18.5157 33.6094 18.7501 33.4688C19.0228 33.421 19.217 33.4373 19.5001 33.4688C19.7352 33.6525 19.833 33.8326 19.9304 34.111C19.9561 34.1831 19.9818 34.2552 20.0083 34.3295C20.0353 34.4074 20.0622 34.4853 20.09 34.5656C20.1498 34.733 20.2095 34.9004 20.2693 35.0678C20.3617 35.3297 20.4537 35.5918 20.5456 35.8538C21.6333 38.9458 23.2157 41.7113 26.2501 43.2188C27.1143 43.6113 27.9894 43.9426 28.8897 44.2438C29.0132 44.2855 29.1367 44.3273 29.2602 44.3691C29.5172 44.456 29.7744 44.5425 30.0316 44.6288C30.3547 44.7371 30.6775 44.8461 31.0003 44.9553C31.6789 45.1848 32.3582 45.4122 33.0381 45.6379C33.2549 45.7101 33.4716 45.7826 33.6882 45.8555C33.9672 45.9495 34.2467 46.042 34.5264 46.1342C34.644 46.1742 34.644 46.1742 34.7639 46.2151C36.0409 46.6298 37.2331 46.5294 38.4548 45.9815C39.8104 45.2745 40.4723 44.0079 41.2116 42.7343C41.5048 42.23 41.8085 41.7332 42.1172 41.2383C42.2177 41.0765 42.3182 40.9146 42.4186 40.7527C42.5945 40.4693 42.7705 40.1859 42.9468 39.9026C44.6265 37.1994 45.9751 34.6411 45.6973 31.3535C45.6888 31.246 45.6888 31.246 45.6801 31.1362C45.4931 29.4133 44.8145 27.7756 44.209 26.168C44.0555 25.7575 43.9024 25.3468 43.7496 24.936C43.7042 24.8141 43.6588 24.6923 43.6134 24.5704C43.2773 23.6687 42.9493 22.7644 42.6274 21.8575C42.5571 21.6597 42.4867 21.4619 42.4163 21.2641C42.213 20.693 42.0101 20.1217 41.8095 19.5496C41.7466 19.3709 41.6833 19.1925 41.6197 19.0141C41.5423 18.7971 41.4659 18.5799 41.3905 18.3623C41.0233 17.3398 40.5043 16.4353 39.519 15.9075C38.0877 15.3064 36.8875 15.7863 35.5313 16.3125C35.2449 16.4219 34.9577 16.5289 34.67 16.6348C34.6083 16.659 34.5466 16.6833 34.4831 16.7083C34.0343 16.8744 33.5706 16.9669 33.0938 16.875C32.8941 16.7156 32.822 16.6451 32.7752 16.3916C32.7759 16.3191 32.7766 16.2466 32.7774 16.1719C32.7767 16.0994 32.7759 16.0269 32.7752 15.9522C32.822 15.699 32.9001 15.6343 33.0938 15.4688C33.2633 15.3858 33.2633 15.3858 33.4539 15.3179C33.5256 15.2919 33.5973 15.2659 33.6711 15.2392C33.7481 15.2122 33.8252 15.1853 33.9046 15.1575C33.9842 15.129 34.0639 15.1005 34.1459 15.0711C34.3143 15.011 34.4828 14.9513 34.6514 14.8919C34.9089 14.8013 35.1659 14.7094 35.4229 14.6173C35.5867 14.559 35.7505 14.5008 35.9144 14.4427C35.991 14.4153 36.0677 14.388 36.1467 14.3598C37.7751 13.7882 39.4832 13.9298 40.9219 14.9147Z" fill="#F4F4F4"/>
<path d="M8.46092 17.9297C8.88275 18.0141 9.03222 18.1549 9.3369 18.4449C11.9581 20.9002 15.5 22.1878 19.0723 22.1191C19.2231 22.1129 19.2231 22.1129 19.377 22.1065C19.7914 22.0946 20.0789 22.0889 20.4584 22.266C20.6492 22.534 20.6857 22.7279 20.6637 23.056C20.5996 23.3774 20.4458 23.6301 20.2617 23.8945C20.2235 23.951 20.1854 24.0074 20.146 24.0656C19.0679 25.6138 17.5469 26.5357 15.7148 26.9355C13.734 27.2381 11.8416 26.7727 10.2187 25.5937C8.7237 24.4455 7.84838 22.7622 7.59373 20.9062C7.50694 18.9767 7.50694 18.9767 7.93944 18.1758C8.15623 18 8.15623 18 8.46092 17.9297ZM9.09373 20.3437C9.15542 21.7379 9.69673 22.9574 10.645 23.978C11.8004 25.0304 13.184 25.5373 14.7418 25.5194C16.1546 25.4415 17.4027 24.8426 18.375 23.8125C18.375 23.7816 18.375 23.7506 18.375 23.7187C18.32 23.7127 18.265 23.7066 18.2083 23.7004C15.0052 23.3381 12.0164 22.4885 9.41453 20.5126C9.2221 20.3344 9.2221 20.3344 9.09373 20.3437Z" fill="#F4F4F4"/>
<path d="M39.75 33.9376C40.5114 34.5933 41.4232 35.4381 41.6367 36.4571C41.6232 36.7952 41.5529 36.9554 41.3437 37.2188C41.1264 37.3275 41.0111 37.3209 40.7699 37.3151C40.6908 37.3138 40.6118 37.3125 40.5303 37.3112C40.4449 37.3097 40.3595 37.3082 40.2715 37.3067C36.717 37.2839 33.1417 38.3811 30.4955 40.8293C30.3714 40.9542 30.249 41.0808 30.1296 41.2101C29.8732 41.4745 29.6122 41.4609 29.2566 41.4866C28.9445 41.4077 28.8538 41.237 28.6875 40.9688C28.2156 39.0577 28.6511 37.1979 29.625 35.5313C29.8239 35.2282 30.0378 34.9558 30.2812 34.6876C30.3378 34.6235 30.3943 34.5595 30.4526 34.4935C32.8588 31.921 37.0448 31.799 39.75 33.9376ZM31.2187 35.9063C30.607 36.6896 30.0709 37.7238 30.0879 38.7423C30.0898 38.8583 30.0917 38.9743 30.0937 39.0938C30.1405 39.0619 30.1873 39.03 30.2354 38.9971C30.4682 38.84 30.7026 38.6854 30.9375 38.5313C31.0248 38.4737 31.1122 38.416 31.2022 38.3566C33.6296 36.8057 36.3983 35.911 39.2812 35.8126C38.8948 34.9613 37.954 34.5501 37.125 34.2188C34.9245 33.5103 32.7503 34.2222 31.2187 35.9063Z" fill="#F4F4F4"/>
<path d="M20.625 11.4375C20.8756 11.5171 21.0925 11.5972 21.3281 11.7071C21.3923 11.7364 21.4566 11.7658 21.5227 11.796C23.3775 12.6702 25.2092 14.0118 26.0625 15.9375C26.0565 16.2906 26.0459 16.5018 25.8164 16.7754C25.494 16.9197 25.2869 16.9302 24.9375 16.875C24.7419 16.6897 24.6185 16.5329 24.4688 16.3125C23.3535 14.7432 22.0673 13.8601 20.3438 13.0313C19.6521 12.6972 19.6521 12.6972 19.5 12.375C19.5112 12.0566 19.5393 11.8182 19.6934 11.5372C19.9881 11.3755 20.2992 11.4058 20.625 11.4375Z" fill="#F4F4F4"/>
<path d="M39.9375 23.7187C40.0729 23.9895 40.0666 24.1684 40.0313 24.4687C39.8496 24.7441 39.8496 24.7441 39.5625 24.9375C39.1669 24.9375 38.845 24.879 38.4657 24.773C36.8302 24.3305 35.1135 24.4887 33.5157 25.0078C33.1265 25.1308 32.838 25.1456 32.4375 25.0312C32.1893 24.874 32.1605 24.7639 32.0742 24.4804C32.0598 24.1183 32.1222 24.0028 32.3438 23.7187C32.7895 23.5002 33.2714 23.3778 33.75 23.25C33.8624 23.2196 33.9748 23.1893 34.0906 23.158C35.8243 22.766 38.4482 22.5724 39.9375 23.7187Z" fill="#F4F4F4"/>
<path d="M15.6562 9.65624C15.9063 9.92774 15.9375 10.0456 15.9375 10.4121C15.8156 10.7701 15.7091 10.8848 15.375 11.0625C14.7526 11.0625 14.1508 10.8487 13.5549 10.6816C12.1585 10.3166 10.5903 10.36 9.21936 10.8021C8.86066 10.8856 8.60741 10.8627 8.25 10.7812C8.01086 10.573 7.975 10.443 7.92188 10.1308C7.96977 9.83747 8.03097 9.68315 8.25439 9.48412C10.0853 8.3929 13.8309 8.53709 15.6562 9.65624Z" fill="#F4F4F4"/>
<path d="M39.4687 25.6875C39.7671 25.9081 39.9113 26.0516 40.0019 26.4141C39.8277 27.238 39.2102 27.7746 38.5312 28.2188C37.5275 28.8237 36.4039 28.9209 35.2588 28.7377C34.4303 28.5162 33.6293 28.0479 33.0937 27.375C32.9799 26.9932 32.957 26.8128 33.123 26.4492C33.2812 26.25 33.2812 26.25 33.4687 26.1563C33.8079 26.1201 33.9766 26.1202 34.2649 26.3105C34.3386 26.3775 34.4123 26.4446 34.4883 26.5137C35.1598 27.0783 35.6775 27.245 36.5592 27.2205C37.3559 27.1282 37.8701 26.8037 38.3752 26.1922C38.7326 25.7605 38.8938 25.6199 39.4687 25.6875Z" fill="#F4F4F4"/>
<path d="M23.1499 16.1503C23.7686 16.6285 24.2135 17.3609 24.4686 18.0938C24.5208 18.5108 24.5185 18.6812 24.2694 19.0255C23.9999 19.2188 23.9999 19.2188 23.7186 19.2774C23.3298 19.1964 23.2117 19.0635 22.9686 18.7501C22.9091 18.6146 22.8527 18.4777 22.7987 18.3399C22.5521 17.7519 22.1605 17.4059 21.5921 17.1263C20.7398 16.7882 20.0648 16.7925 19.2186 17.1563C19.1258 17.2182 19.033 17.2801 18.9374 17.3438C18.5777 17.3831 18.3644 17.395 18.0526 17.2032C17.8846 16.9344 17.8404 16.7197 17.8593 16.4023C17.9251 16.1447 18.0686 16.0033 18.283 15.8526C19.8976 14.9609 21.6287 15.1515 23.1499 16.1503Z" fill="#F4F4F4"/>
<path d="M28.6348 27.9785C28.9688 28.0312 28.9688 28.0312 29.2441 28.2129C29.5134 28.6127 29.51 28.8753 29.4375 29.3438C29.1841 30.5869 28.595 31.476 27.5453 32.1885C27.1608 32.4146 26.7688 32.5846 26.3438 32.7188C26.2586 32.7458 26.2586 32.7458 26.1716 32.7733C25.4244 32.9176 24.3853 32.9442 23.7188 32.5312C23.5137 32.2676 23.5137 32.2676 23.4375 31.9688C23.4935 31.6514 23.5709 31.4707 23.7773 31.2246C24.0504 31.1024 24.2411 31.1391 24.531 31.1865C25.3205 31.3027 25.9281 31.2346 26.625 30.8438C26.7236 30.7935 26.8222 30.7432 26.9238 30.6914C27.5728 30.1434 27.8074 29.4856 27.8796 28.656C27.982 28.2144 28.1973 28.0501 28.6348 27.9785Z" fill="#F4F4F4"/>
<path d="M12.6328 12.2637C13.4458 12.8477 14.083 13.557 14.298 14.5697C14.3146 14.8758 14.2655 15.069 14.1035 15.3281C13.7884 15.5221 13.5825 15.5142 13.2188 15.4688C12.8845 15.3255 12.8016 15.1092 12.668 14.7891C12.3812 14.1055 12.005 13.6877 11.328 13.3806C10.727 13.1423 9.95056 13.0752 9.33582 13.3026C9.21689 13.3698 9.09877 13.4385 8.98169 13.5088C8.66312 13.6688 8.41276 13.6405 8.0625 13.5938C7.82812 13.4473 7.82812 13.4473 7.6875 13.2188C7.63477 12.8965 7.63477 12.8965 7.6875 12.5625C8.75462 11.0823 11.3073 11.4369 12.6328 12.2637Z" fill="#F4F4F4"/>
</g>
<defs>
<clipPath id="clip0_72_167">
<rect width="48" height="48" fill="white"/>
</clipPath>
</defs>
</svg>
