<svg width="30" height="34" viewBox="0 0 30 34" fill="none" xmlns="http://www.w3.org/2000/svg">
<path d="M11.3391 31.987C12.644 30.6283 13.2964 28.8166 13.2723 27.0301C13.2723 25.9733 13.8039 25.0172 14.6738 24.4888L17.1627 22.9791C18.0326 22.4507 19.12 22.4507 19.9899 22.9791C22.5272 24.5391 25.8619 24.1868 28.0608 21.8971C30.6464 19.2048 30.6464 14.8266 28.0608 12.1091C25.8619 9.81941 22.5513 9.46716 19.9899 11.0272C19.12 11.5556 18.0326 11.5556 17.1627 11.0272L14.6738 9.51748C13.8039 8.98909 13.2481 8.03294 13.2723 6.97614C13.2964 5.18965 12.644 3.37798 11.3391 2.01924C8.75353 -0.673081 4.54893 -0.673081 1.93919 2.01924C-0.646393 4.71156 -0.646393 9.08973 1.93919 11.8072C2.37414 12.2601 2.85744 12.6375 3.36489 12.9395C4.2348 13.4679 4.79059 14.424 4.79059 15.4808L4.79059 18.4751C4.79059 19.5319 4.25897 20.5132 3.36489 21.0164C2.85744 21.3184 2.37414 21.6958 1.93919 22.1487C-0.646394 24.841 -0.646394 29.2192 1.93919 31.9367C4.54893 34.6793 8.75353 34.6793 11.3391 31.987ZM12.8615 12.9143L15.3504 14.424C16.2445 14.9524 16.7519 15.9337 16.7519 17.0157C16.7519 17.0409 16.7519 17.066 16.7519 17.0912C16.7519 18.148 16.2203 19.1293 15.3504 19.6829L12.8615 21.1926C11.9915 21.721 10.9041 21.721 10.0342 21.1674C10.0101 21.1422 9.9859 21.1422 9.96174 21.1422C9.06766 20.6139 8.51188 19.6326 8.51188 18.5758L8.51188 15.5815C8.51188 14.5247 9.06766 13.5434 9.96174 13.015C9.9859 13.015 10.0101 12.9898 10.0342 12.9898C10.88 12.3859 11.9674 12.3859 12.8615 12.9143Z" fill="#2F55FF"/>
</svg>
