<svg width="68" height="68" viewBox="0 0 68 68" fill="none" xmlns="http://www.w3.org/2000/svg">
<path d="M14.1313 21.4027C14.9623 10.56 23.5164 2 33.9768 2C44.9749 2 53.8712 11.442 53.8712 23.1147C53.8712 30.5334 50.3029 37.0183 44.8772 40.8055" stroke="#2F55FF" stroke-width="3" stroke-linecap="round" stroke-linejoin="round"/>
<path d="M30.9951 63.6843C21.8545 68.6646 10.4653 65.3962 4.9907 55.9543C-0.826075 45.9935 2.10675 32.9719 11.4918 26.8502C17.6019 22.8555 24.9339 22.8036 30.8974 25.9682" stroke="#2F55FF" stroke-width="3" stroke-linecap="round" stroke-linejoin="round"/>
<path d="M36.665 30.6371C37.496 31.5709 38.2292 32.6085 38.8647 33.7498C43.6061 41.9467 42.4818 52.1669 36.7139 58.963" stroke="#2F55FF" stroke-width="3" stroke-linecap="round" stroke-linejoin="round"/>
<path d="M57.0486 27.1094C65.5538 33.0755 68.5355 45.0595 63.6475 54.7609C58.4173 65.0329 46.3438 68.9239 36.6655 63.3728C30.5065 59.845 26.7916 53.3601 26.2539 46.4602" stroke="#2F55FF" stroke-width="3" stroke-linecap="round" stroke-linejoin="round"/>
<path d="M26.938 38.8341C27.329 37.4334 27.8667 36.0845 28.5022 34.7876C32.8036 26.2794 41.8465 22.181 50.3029 24.1524" stroke="#2F55FF" stroke-width="3" stroke-linecap="round" stroke-linejoin="round"/>
<path d="M38.2296 43.8146C36.8609 44.1259 35.4434 44.2815 34.0259 44.2815C24.983 44.2815 17.3576 37.9004 14.9136 29.0809" stroke="#2F55FF" stroke-width="3" stroke-linecap="round" stroke-linejoin="round"/>
</svg>
