<svg width="68" height="68" viewBox="0 0 68 68" fill="none" xmlns="http://www.w3.org/2000/svg">
<path d="M34 66C51.6731 66 66 51.6731 66 34C66 16.3269 51.6731 2 34 2C16.3269 2 2 16.3269 2 34C2 51.6731 16.3269 66 34 66Z" stroke="white" stroke-width="3" stroke-miterlimit="10"/>
<path d="M34 2.0542V65.9999" stroke="white" stroke-width="3" stroke-miterlimit="10"/>
<path d="M34 66C42.8365 66 50 51.6731 50 34C50 16.3269 42.8365 2 34 2C25.1634 2 18 16.3269 18 34C18 51.6731 25.1634 66 34 66Z" stroke="white" stroke-width="3" stroke-miterlimit="10"/>
<path d="M2.0542 33.9999H65.9999" stroke="white" stroke-width="3" stroke-miterlimit="10"/>
</svg>
